<mxfile host="drawio.corp.amazon.com" modified="2025-07-19T19:00:53.425Z" agent="Mozilla/5.0 (Macintosh; Intel Mac OS X 10_15_7) AppleWebKit/537.36 (KHTML, like Gecko) Chrome/138.0.0.0 Safari/537.36" etag="jY7N4aLjwDFi3hOc2nGo" version="21.7.4" type="device">
  <diagram name="Page-1" id="VghdWP-HzqG168t5EoY1">
    <mxGraphModel dx="1434" dy="819" grid="1" gridSize="10" guides="1" tooltips="1" connect="1" arrows="1" fold="1" page="1" pageScale="1" pageWidth="1100" pageHeight="850" math="0" shadow="0">
      <root>
        <mxCell id="0" />
        <mxCell id="1" parent="0" />
        <mxCell id="kNUCHaaY_nJfJqJrPL7E-3" value="" style="shape=image;verticalLabelPosition=bottom;labelBackgroundColor=default;verticalAlign=top;aspect=fixed;imageAspect=0;image=data:image/png,iVBORw0KGgoAAAANSUhEUgAAA7QAAAHOCAYAAACo4UUgAAAKrWlDQ1BJQ0MgUHJvZmlsZQAASImVlwdUU+kSgP97bzoJEAIISAm9I50AUkIPvTcbIQkQSoiBoCJ2FldgRRERAXVFlqrgqhRZKxZsi4Ai9gURFXVdLNhQeRc4BHffee+dNzlz5ztz559/5j/3P2cCAEWVLRSmwrIApAkyRaHebvTomFg6fhRggTIgA3NgwuZkCJnBwf4AlVn7d3l/C0BT9obpVK5/f/9fhcrlZXAAgIJRjudmcNJQPobqR45QlAkAchD1a6/IFE5xD8ryIrRAlB9PceIMf5zi+GnGkKdjwkPdUaYDQCCz2aJEAMgmqJ+exUlE85CnejAXcPkClHNQdk5LS+eifAJlAzRGiPJUfkb8d3kS/5YzXpKTzU6U8Ewv00Lw4GcIU9mr/s/j+N+Sliqe3UMfVXKSyCd0qmf0zB6npPtJWBAfGDTLfO50/DQniX0iZpmT4R47yxmpYaxZ5rI9/CR5UgP9ZzmB7yWJ4WeywmeZl+EZNsui9FDJvgkid+Yss0VzNYhTIiT+JB5Lkj87KTxqlrP4kYGS2lLC/OZi3CV+kThU0gtP4O02t6+X5BzSMr7rnc+SrM1MCveRnAN7rn6egDmXMyNaUhuX5+E5FxMhiRdmukn2EqYGS+J5qd4Sf0ZWmGRtJvpxzq0NlpxhMts3eJYBE4SBCFTpIBJ9WqI/RiZvZeZUI+7pwlUifmJSJp2J3jYenSXgmJnQLc0tbQCYurszn8bb29N3ElIkzPn4HgDYDgMA8+Z8nBYAjqN7UlvmfIYPAJAlAXBajiMWZc34MFMPLCABGbRCZaAOtIEBMEXrsgWOwBV4Al8QBMJBDFgKOCAJpAERWAFywAaQBwrANrATlIN94ACoA4fAEdAGToCz4CK4CnpAP7gHBsEIeAHGwHswAUEQHqJANEgZ0oB0IWPIEmJAzpAn5A+FQjFQHJQICSAxlANtggqgYqgc2g/VQ79Cx6Gz0GWoF7oDDUGj0BvoM4zAZFgeVoP14AUwA2bCfnA4vAROhJfD2XAuvBUug6vgg3ArfBa+CvfDg/ALeBwBiBSiiGgipggDcUeCkFgkAREha5F8pBSpQpqQDqQLuYEMIi+RTxgchoahY0wxjhgfTASGg1mOWYspxJRj6jCtmPOYG5ghzBjmG5aCVcUaYx2wLGw0NhG7ApuHLcXWYFuwF7D92BHsexwOp4jTx9nhfHAxuGTcalwhbg+uGXcG14sbxo3j8XhlvDHeCR+EZ+Mz8Xn43fiD+NP4PvwI/iNBiqBBsCR4EWIJAsJGQimhgXCK0Ed4SpggyhJ1iQ7EICKXuIpYRKwmdhCvE0eIEyQqSZ/kRAonJZM2kMpITaQLpPukt1JSUlpS9lIhUnyp9VJlUoelLkkNSX0iy5GNyO7kxWQxeSu5lnyGfIf8lkKh6FFcKbGUTMpWSj3lHOUh5aM0TdpMmiXNlV4nXSHdKt0n/UqGKKMrw5RZKpMtUypzVOa6zEtZoqyerLssW3atbIXscdkB2XEqjWpBDaKmUQupDdTL1GdyeDk9OU85rlyu3AG5c3LDNISmTXOncWibaNW0C7QReZy8vjxLPlm+QP6QfLf8mIKcgrVCpMJKhQqFkwqDioiiniJLMVWxSPGI4i3Fz/PU5jHn8eZtmdc0r2/eB6X5Sq5KPKV8pWalfqXPynRlT+UU5e3KbcoPVDAqRiohKitU9qpcUHk5X36+43zO/Pz5R+bfVYVVjVRDVVerHlC9pjqupq7mrSZU2612Tu2luqK6q3qyeon6KfVRDZqGswZfo0TjtMZzugKdSU+ll9HP08c0VTV9NMWa+zW7NSe09LUitDZqNWs90CZpM7QTtEu0O7XHdDR0AnRydBp17uoSdRm6Sbq7dLt0P+jp60XpbdZr03umr6TP0s/Wb9S/b0AxcDFYblBlcNMQZ8gwTDHcY9hjBBvZGCUZVRhdN4aNbY35xnuMe02wJvYmApMqkwFTsinTNMu00XTITNHM32yjWZvZqwU6C2IXbF/QteCbuY15qnm1+T0LOQtfi40WHRZvLI0sOZYVljetKFZeVuus2q1eWxtb86z3Wt+2odkE2Gy26bT5amtnK7Jtsh2107GLs6u0G2DIM4IZhYxL9lh7N/t19ifsPznYOmQ6HHH4y9HUMcWxwfHZQv2FvIXVC4edtJzYTvudBp3pznHOPzsPumi6sF2qXB65artyXWtcnzINmcnMg8xXbuZuIrcWtw/uDu5r3M94IB7eHvke3Z5ynhGe5Z4PvbS8Er0avca8bbxXe5/xwfr4+Wz3GWCpsTisetaYr53vGt/zfmS/ML9yv0f+Rv4i/44AOMA3YEfA/UDdQEFgWxAIYgXtCHoQrB+8PPi3EFxIcEhFyJNQi9Cc0K4wWtiysIaw9+Fu4UXh9yIMIsQRnZEykYsj6yM/RHlEFUcNRi+IXhN9NUYlhh/THouPjYytiR1f5Llo56KRxTaL8xbfWqK/ZOWSy0tVlqYuPblMZhl72dE4bFxUXEPcF3YQu4o9Hs+Kr4wf47hzdnFecF25JdxRnhOvmPc0wSmhOOFZolPijsTRJJek0qSXfHd+Of91sk/yvuQPKUEptSmTqVGpzWmEtLi04wI5QYrgfLp6+sr0XqGxME84uNxh+c7lYyI/UU0GlLEkoz1THh2SrokNxD+Ih7KcsyqyPq6IXHF0JXWlYOW1VUartqx6mu2V/ctqzGrO6s4czZwNOUNrmGv2r4XWxq/tXKe9LnfdyHrv9XUbSBtSNvy+0Xxj8cZ3m6I2deSq5a7PHf7B+4fGPOk8Ud7AZsfN+37E/Mj/sXuL1ZbdW77lc/OvFJgXlBZ8KeQUXvnJ4qeynya3JmztLrIt2rsNt02w7dZ2l+11xdTi7OLhHQE7WkvoJfkl73Yu23m51Lp03y7SLvGuwTL/svbdOru37f5SnlTeX+FW0VypWrml8sMe7p6+va57m/ap7SvY9/ln/s+393vvb63Sqyo9gDuQdeBJdWR11y+MX+prVGoKar7WCmoH60Lrztfb1dc3qDYUNcKN4sbRg4sP9hzyONTeZNq0v1mxueAwOCw+/PzXuF9vHfE70nmUcbTpmO6xyhZaS34r1LqqdawtqW2wPaa997jv8c4Ox46W38x+qz2heaLipMLJolOkU7mnJk9nnx4/Izzz8mzi2eHOZZ33zkWfu3k+5Hz3Bb8Lly56XTzXxew6fcnp0onLDpePX2Fcabtqe7X1ms21lt9tfm/ptu1uvW53vb3Hvqejd2HvqT6XvrM3PG5cvMm6ebU/sL/3VsSt2wOLBwZvc28/u5N65/XdrLsT99bfx97PfyD7oPSh6sOqPwz/aB60HTw55DF07VHYo3vDnOEXjzMefxnJfUJ5UvpU42n9M8tnJ0a9RnueL3o+8kL4YuJl3p/UPytfGbw69pfrX9fGosdGXoteT74pfKv8tvad9bvO8eDxh+/T3k98yP+o/LHuE+NT1+eoz08nVnzBfyn7avi145vft/uTaZOTQraIPT0KIKjCCQkAvKkFgBIDAA2dy0mLZmbraYFm/g9ME/hPPDN/T4stANWoiVwPQBCqe1E1OAPQUQOAYFcAwl0BbGUl0dk5eHpmn55N+ABofUUnB6Q7nLoe/ENm5vnv6v6nBZKsf7P/AuWXB7RFBDxFAAAAVmVYSWZNTQAqAAAACAABh2kABAAAAAEAAAAaAAAAAAADkoYABwAAABIAAABEoAIABAAAAAEAAAO0oAMABAAAAAEAAAHOAAAAAEFTQ0lJAAAAU2NyZWVuc2hvdDW8IdcAAAHWaVRYdFhNTDpjb20uYWRvYmUueG1wAAAAAAA8eDp4bXBtZXRhIHhtbG5zOng9ImFkb2JlOm5zOm1ldGEvIiB4OnhtcHRrPSJYTVAgQ29yZSA2LjAuMCI+CiAgIDxyZGY6UkRGIHhtbG5zOnJkZj0iaHR0cDovL3d3dy53My5vcmcvMTk5OS8wMi8yMi1yZGYtc3ludGF4LW5zIyI+CiAgICAgIDxyZGY6RGVzY3JpcHRpb24gcmRmOmFib3V0PSIiCiAgICAgICAgICAgIHhtbG5zOmV4aWY9Imh0dHA6Ly9ucy5hZG9iZS5jb20vZXhpZi8xLjAvIj4KICAgICAgICAgPGV4aWY6UGl4ZWxZRGltZW5zaW9uPjQ2MjwvZXhpZjpQaXhlbFlEaW1lbnNpb24+CiAgICAgICAgIDxleGlmOlBpeGVsWERpbWVuc2lvbj45NDg8L2V4aWY6UGl4ZWxYRGltZW5zaW9uPgogICAgICAgICA8ZXhpZjpVc2VyQ29tbWVudD5TY3JlZW5zaG90PC9leGlmOlVzZXJDb21tZW50PgogICAgICA8L3JkZjpEZXNjcmlwdGlvbj4KICAgPC9yZGY6UkRGPgo8L3g6eG1wbWV0YT4Kij8txAAAQABJREFUeAHsnQdgFEUXx18uBQKCFAUEFEWlKioooiiCDQXsKAgqojTpWBGpoih2UREVu2LDTxFsWBA7inTpINJ7lxKS3Pf+c5ljc1zZu1wCF/4PLttmZ2Z/O1vevjdvkhYvW+U9vnIFoZAACZAACZAACZAACZAACZAACZBAIhBISkqS998bI55EqCzrSAIkQAIkQAIkQAIkQAIkQAIkQAKWgNfrlWxvNhVaC4RTEiABEiABEiABEiABEiABEiCBxCAAC+2qlauo0CbG6WItSYAESIAESIAESIAESIAESIAE9hPwmlm6HO8nwjkSIAESIAESIAESIAESIAESIIEEIJCd7ZWyZcvSQpsA54pVJAESIAESIAESIAESIAESIAEScBDweDxS4ZhjqNA6mHCWBEiABEiABEiABEiABEiABEggAQhkZ2cLAkPR5TgBTharSAIkQAIkQAIkQAIkQAIkQAIksJ8ALLRQaqnQ7mfCORIgARIgARIgARIgARIgARIggQQhAKVWf0kJUl1WkwRIgARIgARIgARIgARIgARIgATEuBuvX7+eFlo2BhIgARIgARIgARIgARIgARIggcQigHFo//jjDyq0iXXaWFsSIAESIAESIAESIAESIAESIAEQaNasmajDMV2O2RxIgARIgARIgARIgARIgARIgAQShwACQk2ZMkVSRBXavRkZkpWVpVGivJKdlW2iRWV7fVMcklf/IR3CIlNIgARIgARIgARIgARIgARIgARIIL8IwJ0YWqg1vprgT0kmAJR4kjFNktTUFNm9e7ekIDH+JScn605Z+tMlJPZqJroOOiwV2fw6VcyXBEiABEiABEiABEiABEiABEggGAGjq+Y4FJt5VWShzBrdVfVVrFOFVhDqWGCRxQas9HqgDUOR9SmzVGiD4eU6EiABEiABEiABEiABEiABEiCB/CLgU2ihuMJeq6ZXnYHuiikEeqrPQosN+g+uxUnJScblOCeFsd5SoTU0+IcESIAESIAESIAESIAESIAESKCACFjF1Si2WqZRZo1HsU+xRTW0Dy00XfyFwPlY/6kZ19dv1reWCq2PA/+SAAmQAAmQAAmQAAmQAAmQAAkUDAGr0KI0o6fmKK6Y4AcF11hoTQKz0QZ98im2WA9l1pkR1lFIgARIgARIgARIgARIgARIgARIIL8JOHXRHH3W6KeIcoxfjoXWF8F4f2Kr2ELzhfnWb8LN7/oyfxIgARIgARIgARIgARIgARIgARJQAvv1UuDYr6/65i+88EKfQhu4EcsUEiABEiABEiABEiABEiABEiABEjh4BHIbVp0KLQIa5woK5ewn60x48CrPkkmABEiABEiABEiABEiABEiABEjgQAJwN4YYl2PMWCXWqdhiPYUESIAESIAESIAESIAESIAESIAEDgUCVm9FXTDvV2ht5ZwJ7DpOSYAESIAESIAESIAESIAESIAESOBQIZCc7DFV8f09VGrFepAACZAACZAACZAACZAACZAACZBABAJZWdmmDy0V2giguJkESIAESIAESIAESIAESIAESODQIgDP4qlTpwoV2kPrvLA2JEACJEACJEACJEACJEACJEACEQggKNSJJ1Y9sA9thP3iujlSACr2540rbmZGAiRAAiRAAiRAAiRAAiRAAoWGQFpqWsEqtE4FFvM21LLGpwqA6htA1+Px+KMvIwEV3ABMXCQBEiABEiABEiABEiABEiCBw5AAdMXZs+fkv0Jrldj9CmyS6byb7c2WXUs2SsY/G2Xf+h3i3bXPnIakYqmSWq6EpJ1wlBQ78SjxJFml1itOBZfK7WHYannIJEACJEACJEACJEACJEACJKAEvKpPli5dOn8VWiixPkXWK1lZWbJvxx7ZNmGObPt2gez+fZlkbd0d9mQkl0qX9AbHS6mLq0vJFqdIaomikpycrIqtz6JLpTYsPm4kARIgARIgARIgARIgARIggUJJIEkNn8kpyfmj0OZSZLOzZPfCdbJu9K+y7b3pIhpe2a1A4d351Tzzk/s+kyNvPEPKdzhX0quVl2SPT7GFUkvF1i1RpiMBEiABEiABEiABEiABEiCBxCcAIye8eVPifShWmd23L1My9mTI2kcnypZXfs97MaoIb3vnL/Mr3bGBVOh7qaQVTZPUVN8hUKnNO2LmQAIkQAIkQAIkQAIkQAIkQAKJQCA7OyfuUjwr63MvzpZ9mZmydfJCWXLJC/FRZgMqCQUZeaMMlIXgUiibQgIkQAIkQAIkQAIkQAIkQAIkUPgJGN1T+9HGbRxapzK77tXf5N82b0nG0k35RhJ5owyURaU23zAzYxIgARIgARIgARIgARIgARI45AjAQ9d0Q41HzXIpsyMmy9oBn8cjW1d5oKx1WiaVWle4mIgESIAESIAESIAESIAESIAECgEB9dDVWMF5ttA6ldm1r/wq64Z/W+BwUCbKplJb4OhZIAmQAAmQAAmQAAmQAAmQAAkUOAHTh1Z12jwptFBm8cvUIXk2fz1P1g/+ssAPxBaIslEH1MXWy27jlARIgARIgARIgARIgARIgARIoPAQ8Hg8koRIx3k5JCiOiGa8Z9MOWdt/Ql6yisu+qAPqgjqhbhQSIAESIAESIAESIAESIAESIIHCR8AEBtZIxzErtFAYYeaFm++aYRMlc/X2g04JdUBdfK7HPuvxQa8UK0ACJEACJEACJEACJEACJEACJBBXArDQSqwux9alNys7S/6btly2vzc9rpXLS2aoC+qEutl65iU/7ksCJEACJEACJEACJEACJEACJHDoEciTyzGss5nq2rtp9G95PrKSDU8U/Crde0me80IGqBPqZgfbjUumzIQESIAESIAESIAESIAESIAESOCQIGC7mKbEUhvsnKXBl3Yt2yg7P58XSxb+fWqO6yIlGlb1L0OpXfXYN+bnXxnlDOqEuqWcVEE82lEYYxRRwhPYvuM/SUtLkaJFioRPyK0xESDfmLBxJxIgARIgARIgARIgARIISgA6Hn5R96GFMosOuFn62zZudtDM3a6E8gpldscvS3MpsVifV2st6oY6ms7CBRwg6oVXx0iH3gMlO6Dcn37/S26+o6+8O/bAAFoPPfmi9HvoaYPujfc+lT79H3WLMc/p/tu1Wy6+tr3c1qN/nvMKzGDL1u3mmH+ZUrBu6T3vf1je+XB8YHXybfnltz70nz8Ucu/gJ+TVt8ea8vKTb74dEDMmgQQisHXbDsE9tEWbO8zvwcdHyqYt2xLoCFhVEiABEiABEiCBWAhAN41aoUVB0NOyNBjUzu8Wx1Kufx+rtM67apRfof3jqHuNgmu3+RNHOYO6oY4BOmWUucSWvEK5o2XW3/Nl6bLluTKY/OufsmDxUvnqu59zrd+zd6989tUkObJkCbN+46bNMm/BklxpYl149Z2Ppf4lN4TdPT29qLS4tLFcdP7ZYdNF2hisLAyjhGPesrVgXy4XLl4ma9dviFTluG1fs26DLFzyrz+/pf+ulJVr15nlePH1Zx5hZtqseeacz5q7IEJKbi6sBOLZBjIzs0x7evP9cYckLtSvfY9+5h56zeUXyTXNLpHvf5oine8cJBn79h2SdWalSIAESIAESIAE8k4AhksEhora5dhYaL3Zsm/7bsmYuSrmmqDPLATuxaEEabb/Eptih7qhjmlF0lSp1TGKCtDt+KzTa5tDmjZznpx0QhX/4f38219mHgoeLAqljvQpsHPn+47x7Hqn+dM6Z2Dp9USov5s0zjyd88h74D1dnatyzeOcx4sf8oKEyy/WY7GNOlflgyy4yT9eaVB8PPi6qU+QQw25Ktb83LaFWPMPWeGcDcHydVunSHkHbg9WVmAaLO/dmyFF9D7jFLf7uknn5ppB2RkZ+yQ1NSXsteWsYzzn3RyHm/Lc5BN4vmf9vUBWrVknA+7uKlc0bWyKqXp8ZblvyBMyf+ESqVO7hpuimYYESIAESIAESCDBCMQU5RgvEsbdOCtbduVBmXWysoqtc12sSqwzD8yjjlla14J2Oz7u2IpS7uiy8sf0/S7ZK1aukc1qpWx2cSNTzRlz5vurO23WXDNft05N/zrMwE23Xbd+0uDSVkHddtet32jc7Bpf2c6kadm+t3z57U/+PLreM1ReevMDs3zZ9R2NG7R/Y8AMXKSffekt/9p1GzZJ3wefFOTd5KpbBS58y1es9m8PnIlU1u49e01dkZfND5Zpp/wxbbYpE8eL+j458nVB39NI8t2Pv0v3+x6SBk1byzW39DDcgu3z8fhvpMtdQwwrpPto3NemL7gzLfi16XSPSQPLNtzA4TbtlIWL/5H+Dz8rF+qxoJ5wEfdqkLRw4uS7afNWs983P/wqg4c/b3ggnyeef+2A+kTLZLS6OXe5a5CpSodeA0w5KA+CcwB3+FYd7jLHd/egx0OyMjvoH2ddhzz+gqkr3DpRV3yUccqceQvNeQA3nMNOfQbJ3AU+L44vvv3R1GWeKhhO+fXPGWb9lL9mOVf75+GmDzbYDobIF+cQbRFssO5sXYfzFK+yYNm27QRdBF4f80mu7gMjX3vPbB/3xffGvbWp1s+K83zhenzulXdk53+77GaxxxOpDOywYtVaeeSZl+XyGzoZ7jhfzmvQ5vWjfihDPc9r3laWrVglodpALOfgtz9naneE20z9X3j1XXMuUC4E1y/c6tEe7DULNoivAIGij7aGaxOKqpVhT79k9rHtEvlgP9succ8LbA/h7keVK1WQl54aIhc1amCLkKPLljLzm7fmbqP+BJwhARIgARIgARIoFARijnLsVfPu7sV5c+e0Siv60DqVWsxbd2ObJlbaqCPqejDk/Ab15Ed1MbYvd3ABhNze9joplp4uf82Y46/W7/qyfkqNalKyxBH+dVB+hz4xUho1qGv22bBxk/arfcT/QouXwJ79HjFudrBK3NP9drX4lpRBw58z7s7IqPW1zUxZmO/eoa20bdkCs0Fl67btsnW77+UPL5+39+ovM2bPl/ZtrpU+XdrJ9NnzpO/Qp40VKFgGkcp6/PlXZeOmrXLHbTfK6afUkAkTfzBKkc3LpwwNlfUbtkivzrfI5RefLx988qVRVKyFyqZ1TqEQ3T/0Kdm1a4/Zr0G9OoYT+DnlvY+/kOEjXpEypUsaVjVOriqo01sffOZPBmUW/BAYq7ceM3h9O/k3GfDICH8auBZ3unOwzFCX8puvv0KuanaRvP+/zwXKQjgJ5Iv6PfDwM7Jj53/S5dZWclzlivLhuK/k5bc+8mcTC5Nz658ulzZuaPJofukF5rwXL55u2iGO4833P5XTaleTnh1vlg0btxhWUMJCCdoC6vrwUy/JgkXL5PabrpMmDeubuqKfsHXp/FcVqdt69jcKVadbbpCut7WR1evWCz50oA/x2XXrmHwmTvo1V1Fff/eTWX/aKdVzrbcLsDqi/PuGPCn1Tqsl7VpdJfMXLZWu9w01/ZRPrnqcdLi5pfz6xwxTFq6LvJbVs+8wSU8vInfecascW6m8vPj6ezLq9fdtlbSt7ZZps/6Wp0e9KZddeJ5hjI3oZtBd67VqzQZdd5OcdcYp8vaHn+lHmqfM2NhIY48nUhn4iIJ+4L/8MV2uv7Kp3HzDVTJn7kK5pdv9si3nOrV53T1wuIAD2mypkiUlVBuIhUvVKpX0uroZVZcypY40x1q1SmWz/MQLr8tL2nf81JrV5N4eHeSsuqfqx51P9JjHm+2wWuN+98e0WfJ1TjeLmfoh79MvvpOWVzSVsmVKmY+NAx95zuxXv+4peq+51ezbo+9Dev/x3TMj3Y/KHVVGzji1pt7ripp90QbsdVTtxCpmHf+QAAmQAAmQAAkUPgLQs2BUitrlWJ1Fzfiu2Rt25pkK3I2hvNYY19n0m0WGNuJxOFdktwWjjj5lqOCjHMN9+OPxE7X/6D9Sq/pJMmXaTKl0THk5tvIx5oXz5ynT5K5u7c3LMV6EO6sSECjD+veRuvoSDzldX9jwkjdTX2phAUa/sSsva6IuzcfJ2arEQZqcV1+ate4sf06fa9zsGp1TT1+ErzRW2hY5rngmYYQ/K9WavF4ttFAsrRJ8xqk1ZOrMuYI+sWmSekAOkco68/RT5amH7jN+7q2uvsxYnn/+fZo/n6FPvmTqPPKxARpt2Zf/SVWPlyGPPS/TtNx6OW7c/h1yZh5/7lXj1j3qyUH+/SpVPEZGvLzf2ozgME+PekNuUWUIij3k+quaqsW4qFFWWl1zuXkZPqb8UUaBx0u4rQOOF4o1lAese0sVwl27d8vbLw5XZaeCyet8/egAZS5aqa9K3uMP3mtcklGHK9p2NYrZHe1bm6xiYYK2du0Vl8rEH36Ra5pfLHVq+RTFST//YT6wON0yb9DzcGv3fjJQFd2vPnolbPWLqnICxvajy6mab/9hz8gPP/8plzY5V89rsmF31eUXSsUK5UxeVbSdwu1z4ZJlRuHAR54vVfHv0bGtaQewGH+pCu11LS6JGF27c7tWcuN1zUy++OAARQrroGBD0lLT1Mo3Rq2aa1S5O17yUhYU5yf0vMAtHh9q0LcdihrqWb7cUaY8/Hl++ANyiipzVh58YpT5MPHy00MkvagvWnjdOrXMhwtY4613BtJHKgPlQakd8/Ljfp6XXNBAWt7WW8aqZ8HtqsRbgfJ8S6sr7aKULlUyaBsAt2i54HivaNrEWIpvvK6F2PsI7qv16tSWasoa7QjS8spLZd7CpfL71Jly641Xm3VoG198M9l4fzQ8+wz9qOS7Xm/Sj0EQWJd/+OUPefqh+wXbIVc3v0gtzvfp+XxfwDKa+9Fa9VrppR/6/vl3hTxwZxc/O5Mx/5AACZAACZAACRQqAsnJHqimsQWFAonsnbndRWOhY4fnQZRjKLLBIh7Hkq/dJx51tHlFO8WLLGTarPnGCgEL0gXnnmnWnXvWGabPF1yGZ89bZNadVe9UM3X+OV2VSCtWsV2+0uf2e0TxYkbZPFMVPbgzw0XPBptatyFv1vNKFcsba8x7anmEWyXc/aBEX9viYr8VxNbL7RQv0sbPPWcHKN+wvMF6B5dMvIAepwrifO1fDHdM/PBiDlmybEXOXrkn23fsNByvUwXOKqBIAUXfKfioADmhyrH+vJF/ZVV8IStVCYLgowGUyT3qKgnrKKyJi5YsN9s2bfG57c78e6FcfME5fmUWG6HUVD+pqkkXzZ+G9esaZRb7QHm6WF0m0b8aEisTs3OQP3PnLzLW+hZqtbUCZm2ua27Ow8ZNW+zqoFMoMlaZRQIoKvA0sC7EUO7BrmzpUrJo6TKjqPw+dYbJa936TWba7JILTFkz5iwwy7+q9RECa3wkgfXOSo1qJ5rZsx3XTN3TfO76O3buNtvyUta1LS7N1Q8Vihpk4dL9Qb9w7E5lFpZ2XJutrr7cr8xin0san2uupbnzF2PRL5HK+HP6HFXy02Tj5i3+Nrt1xw7zUWyBfiBwSsOzT3cuhp3PCxdnxmivOG9QZtdv3Gw+Oo378nvjhrxyzVpnUrmnx+3mvLdT6/Lif/6VQffeISkpySbN39ouISVKFPMfJ9oPLKsz5swzHySjuR/hAxfuJSMfHyT4uEIhARIgARIgARIozASSJCU5JRYLrQ9KpD6DbtEZpVa+cZs8qnTxqmNUheYkLlmiuHEjnqr9aOufUdtY9ernBH06U10RIXBDXqovX5Ba1U4yU/sH7n1OBTA1JceYntMXDRYSRB2FJQcWQwj67cZDkpOT1UJ1jzzz0jvy8NOjTJYIrNJV3YUD+/m6La/EEcVyJS1eLN0s4ziskg43ZPwCBW6+wQTWOIi1CNo0YA+Fw8rSZSvNLKy9wWSdvpBXO+kE4879kLrW4kXaCs6DFbg+4oX8PLXIBkpl/QiwyKHwBG4PthzIJN1R51iZBCsH6xYtXS5Vjq2US1HDetQb8q/2ST2qbGkzH+xP+aP3WybtduT3j0Zzhuzavce4kDvPn5Md0px3dl1zXr5R6zHa0dff/2wUNFh7I0laWpo/CfpKQNBOQ0leyipfrkyubI/RqOWQf5evNhZOzEPZdIo9X1C+AqXq8cflioCN7eHKaKic0M4g6AcdKOlFfa61dj2s024lL1wCy4CHxTPa794eO6453IsC70OVjiknN1x1mXFTb6zu6s6PP4v/8X0wCnacKA8fCvAhxc39CNcn+vfCko4PfRQSIAESIAESIIHCTQBxkvbs2RO7QutJP9DtNFpkzr6zwfbNax/aeNQxWL3crmuo/RnhGgnLHwR9RyEV1I0PfSb/VGUXigZe8qzFwiRw8ec3deuDi+XlF50vbVo2N8oKXAoRQCceAuvT6GceNNbfadqXDX0BEWxo4thX/dGZ41EO8rDKUrfb2wa1qhQtGvyF3e63bsPGXFWB1dcq+dhQsYJPIRn97FC1AlfMlRYLVrEc8OjzqtitkqH9ehkXWSh46FdrFWFEK8Z5C6Zgr14bXOk+oDCXK+yxRcskVPbHVq6givr8Azav1360kArlfYwOSJCzYr324Q4UsKpTq7FZ/fqY/5mPEahvk4ZnSUV1r8ewSde26+nfDX0qYdUD0w43tTSupp3btT5AyfbvkIeZvJQFJs7o5PbYK6piFkoqlPdt26AfRwJljfYlDnSZD1eGbWdotw/23c/P5hvtvcLuh2leuDjzQbC2Owc8apTTFx4bqNPjjeKJ4HHOYHjYB9b/CRMnm93hXox2g48hkMraTiC4rwSKXm5+rwA396M9+lEFniAN1AOGQgIkQAIkQAIkcHgQ2LJ1S+wux56yxWOmhH6z9Tc+ZvrOov9sqB/S2ABRsRSWlzrGUl7gPtaNGFZU9CG1QUuQDu7HGCsRLqbnnOXeZdCWsWz5KjPbqd0N5qUSyuzK1WuNa59N45v6rFkIlOJWEEn1tXf/Z6LYos8vXPdsYBgEhwot0ZeFvBAcBtY8WEZhXcVwRvjt03GEofyEinQMhRP7ffHNj8at29ZrknJ1Cl62ITNmL/DnjfyXr1wlP6tFB+XAUjxv4WJ1J24gTZs0FASagWLhDN6FPE6tdbL8pP3+nC66y5avNPtie7wkViYoH4oAZM+eDN+M/oUHAJR8Z/RYWLQmTJxkrKZW6ffvEDCDPrjONoRAUsivulq2IUvVLRyWuXatrzLu6VC6Zml/70CBQov9Hnn2FbPpsosaBiaJ23KsZX2r/V2d8nVOIKuTq4YOMFS29JHm+Md//YM/EBzyQP94DCkT6IERqYzTNUgWxlLGubTXA66Nz7U/6mrNL5IEawN2n2i5+PNy3ENW5bgVo18zgl/Biop+/cHuD0+9+IY55+++9Ji5XtE3HF9UITWr+9zHV65e4z9OHC/64c6Z53PTdns/KqZeH0P69vB37bDHyykJkAAJkAAJkEDhJID3zWrVT47dQptybKmYyNQc18XfVzZSBuhTC4UWltx5V/lcXyPt49weax2deeRl3r7E4gX+3Pq5rQYICASrJ+TM0/f3D3Rb3ik1fS7Kz48eI1drpN1t23eaAEeB+590wrFm1YiX3xH02bSBVwLTOZeTtXGMeuN9o2C2vra57Ny5y1/XU2qe7Eyaaz6WsmwGfbreKgOGPauBhp7V4DkXiFf/vfzmR0bhPy8nWIxN65x21gjBGNoE+zW98Hwz1IkzIBTSIhgX3BCfH/2O7NZzUfe02mo93ChPapRWKMWXXtjQWAlxTj77apJa0mua4D+/TPnrABfoG69pJp+rtemugY9Law3khOhqb2igqPyQWJkgGBMEwwkhuBcUmAvUagpXT0QLxkcQMPl28q9GcUDwnHDjAiMvuJX2HfKUCTSFPtWvvfuxsVYjXwjchuHu+YpGaUb/cfR7fuKF18w25x9ExEXZiAAOzpjPL4m1LLhNIzL0OWrpm61jnL6qx9pUoxlb9+xQ9UXkaATK6j9shEkP9uCEvtuXND4n126RymhjImxjOKqHTV95tNNxX35n3LSH3NfDuMjnyjBgIVgbsC7a0XLBfjiG8V9PkmPUkn+2RjM+Ud2oIe9oRGO4Gqdomo8nTDTKu9PlGEOPIVI4AledXPV4058WUck/+fxbQd/3xuf62iWOs9vtbeREDXI3XYcxw3BjV+qHNNyv3N6P0B+3fY8HzLV+X6+OAUS4SAIkQAIkQAIkUNgIYHjWJP2X0zEzmsPzmpffIjXCuygGyxHKKZRUGwwqWJrAdVYBhlIbrQsy6uh7UfcGZlsgy/hqAHdiuNmdXS+30mqHKcHLn42WaysVTrlI8nhMMryUYmgUuB1/9+NvZh0iEn+jL4/JOWmwEtbfFpc2lrGffW0smZPGvRFReYGS8VC/3qZ/bu9+w0zeWAfXwqP1xTqUBCsLVs5wYrfDKrpn914Zo4Go4MoIQZnPDx9gIkOHygORfKHMY+gcvDhD+vbqJGM+npBrl7u732bcLfEiDQUFAqv5/b07aoTcVLOM+XsGPSEP6nBJEJQPpu+OneAP3oS+tojIOkLHF8UQPxAEoULU2r80GrMbscccKW2sTGC1vqvbbaqwvyZTZ8yWGtVOMC60zzzc11hGn9HhZiA4PqRzEzwHrsE//jZV7hn8uNm3rka4feDOzuqu7fPUQJTmhUv+kVfe/shsxx/bPp19wdG20R6NwhIQvMu/o2Mm2LWAGxfEk9OX1pE812y0ZdmdB97dVT9+vGuiW2MdohP31bZh62KnNr2dIlAWPl6989F4/zWJ/rB9e3bwc7JpI5VRVRXIEY/2k+dfGSMDHx1hdoPiiKGEml50nlkOVQ9sDNUGsC0WLn17dZD7dfihh5580Qx7hSjhzz3a33wguTenTeCDEO53c3PGGsY4tBh6DMqwjVCNsWIRFG/4iNHSSJVZ3E/QLrGMYbSs4ANU9443mUW0Uzf3I+uKDc8DCgmQAAmQAAmQwGFCQF8Lk1au2eitcHRoJcWJAm6ZsEhl7MuUXf/9J/9e+rJkLQ8fHdW5PxRa/OZf9ZJr5RSKrB3WJxorbfJxpaXKxE5SrHhxVVhSTACZcC+Aznom0jzcZdesWS9HqYus06U58BjgLoqvGDYYU+D2UMtw9/V6s83QJaHSBK6PtSybD4bZgVIO10O3grYJi1jZMqUj9kdGH1iM2WuHVgksA+7E4IohS8Ipn5s2b9XxSouG5R6Yd6zLsTDBtYpoyRh2xikYO3brth3Grdq5Ptj8BmXRXIeCggKGSMewzqKdWUU2cB/0X96sXI7RoXusghGYBsriWx+Mk+8/fUMQrTs/JZqyvvvxdzOm8cdvjFBlv5ysXrvetAF/QLYoKgpuR6obrjP6NnaPpQwE3NqhEb3x8Svae1ioNhANF+dho92gz7m19kJ5XKOcoGzbqOTO9NHMo65rNSJ2eT3OUG0n0v0Ibdt+oIqmbKYlARIgARIgARJIPAIYtue9Me9GZ6HFyxSsLdg5Ra1a6Y2Ol53vuFdobRCoaCyt0aR1ngbUDXVEXVHnaF8EnXkdyvN42caQOpEEfWxjEfTbi1ZiLcuWg/6I0QrOr3OM0HD7w20ynMC9042gn2tBSSxMoHQEKrOoL1740Uc4FoGyEU7wwSTUR5MVq9aq6/Iao8y2vLJpviqzeS0L94zKFSuEO9Sw28J5Mtgd3ZaBDwjhPlbZ/IJNA9tAXrkEfmTCBx9YUOMhqCs+JISTSPcjKrPh6HEbCZAACZAACRQuAjDWwTErapdjo9QmqVKrL3xHXFZTFdrphyQZ1A119GhdC6sye0iCZ6VIIASBPv0fNX1xEUH4do1ynJ9SkGXl53HEO29yiTdR5kcCJEACJEACJHCwCPh0PO0OG43LMSob6Ha8/Ia3JHPWGlfHAXdjCPrQRiPR7pdS5xg57sNbCr27cTQMmZYEYiEAN1BEKz5WrZVuLdehylm4+B/xqMfE8cdWDulSGmrfaNfHUhbcaf/RiNU1q1XVcWZj82iIVM+CKCNcHWLhEi4/biMBEiABEiABEiCBg0UAeulHH34QvUKLCmPIhX3aj3a3DmS74ePpsuXezw/WcQQtt/RjzeXo687QPpJFJVX7z8K1j0ICJEACJEACJEACJEACJEACJFA4CFiFNiZND+Zd9HdC/81SV9SWtPq+oWEOBTSoC+qEuqGOdDc+FM4K60ACJEACJEACJEACJEACJEAC8SPgM1p6JSaFFtXAkBkpav1MTUuT0r0bxa9mecwJdUGdULdIw3rksSjuTgIkQAIkQAIkQAIkQAIkQAIkcBAIYCQWHbQnNoUWVk9jpfUka1+4FClet7KUvPP8g3AYuYtEHVAX1ClZ62brmTsVl0iABEiABEiABEiABEiABEiABBKZQJIG/83KzopNocWBQ1mEBRSuvUU0gEqZDudI+jW1DxoTlI06oC6oE+qGOlJIgARIgARIgARIgARIgARIgAQKFwGfN656DeflsKAwIuiSWnpFhwCScg81k3U7MmTPt4vykm3U+xa9+GRTdlEdrzGtSJpRaKnMRo2RO5AACZAACZAACZAACZAACZBAQhDIztb+szCy5qW2UBrxS9HgS2lpqZJeLF3KP3u1pF9ZKy/ZRrUvyjJlatmoA+pi6xVVRkxMAiRAAiRAAiRAAiRAAiRAAiSQEAQQ5Rij7+TJQosjhfKICFNw87VS7pHmsvm4UrLj+V/tqnyZluh+rpS5o6FRpKHM+lyNPXQ1zhfazJQESIAESIAESIAESIAESIAEDg0CRg9VY+Z+LTQP9Qqm1Jbtep6knV5Jtj41WbLmrs9D7gfumlyrnJS68wIpce4JYtyMqcweCIlrSIAESIAESIAESIAESIAESKDQEvCi52t8FFowciq1mEfmnvOqSvrZx8m296fLrnemS9a/W5A0ZkmuUlrS254upW6sK2nadxcBoNBnFm7GsBKjXAoJkAAJkAAJkAAJkAAJkAAJkEDhJoA+tIjkFBcLrUXlV2qhWGr+SapkpqRmSupNZ0pGq9Nl5zcLZO/ERbLnx39Edu+zu4WfpqdK0UYnSJFLT5YjLqluFFkzzqy6OMPFGD+jQFOZDc+RW0mABEiABEiABEiABEiABEigkBCAQVMVwfgqtGBjraSIfpysltMsnRrFMzNTijQ/RTKb1tTxgrJl97SVkjF/vbHaZm/cJd5dGQZtUrE08RxVTGCNTatRTtJ1XNlkKMYp6h+d6usnm4K8dZxZOzSPLbOQnBseBgmQAAmQAAmQAAmQAAmQAAmQQBgCCAjlVSttXC20tjxrMU1K0lDKOh4slM8UtaRmpaVJliq2UGiLNDhBMs88zuyCCFVOsQqqVWKh0Cbr/mZq3It90ZVtOue+nCcBEiABEiABEiABEiABEiABEijcBGCh9XrjEOU4HCarcCYnIxKyKrbQolUxzdaCodx6sRygzNr8jFIMRTbZo+MLoX+s9snVZZunndr0nJIACZAACZAACZAACZAACZAACRw+BJJUT8wXC60ToVU8jYKa08/V61VF1ZOdkyxUICef1ZZKrJMm50mABEiABEiABEiABEiABEiABHyG0XxyOQ6FN5hyGyqtXW/3scuckgAJkAAJkAAJkAAJkAAJkAAJHN4EoCfOnDU7/y20oTBTUQ1FhutJgARIgARIgARIgARIgARIgAQiETj33HNFYx1TSIAESIAESIAESIAESIAESIAESCBxCCDKMbqnUqFNnHPGmpIACZAACZAACZAACZAACZAACSgBX5RjHVWHNEiABEiABEiABEiABEiABEiABEgg0QjQQptoZ4z1JQESIAESIAESIAESIAESIAESkKysLDFux2RBAiRAAiRAAiRAAiRAAiRAAiRAAolEIDnZ52xMl+NEOmusKwmQAAmQAAmQAAmQAAmQAAmQgBJIkuTkZPahZVsgARIgARIgARIgARIgARIgARJILAJwN4bbMS20iXXeWFsSIAESIAESIAESIAESIAESIAElkJSURIWWLYEESIAESIAESIAESIAESIAESCCxCKSkJIvXy2F7EuussbYkQAIkQAIkQAIkQAIkQAIkQALqbpxtKNDlmI2BBEiABEiABEiABEiABEiABEgg4QjQ5TjhThkrTAIkQAIkQAIkQAIkQAIkQAIkwGF72AZIgARIgARIgARIgARIgARIgAQSkgBcjtmHNiFPHStNAiRAAiRAAiRAAiRAAiRAAoc3AbgbQ9iH9vBuBzx6EiABEiABEiABEiABEiABEkg4AhiH1uPxUKFNuDPHCpMACZAACZAACZAACZAACZAACRgCtNCyIZAACZAACZAACZAACZAACZAACSQUAVhn2Yc2oU4ZK0sCJEACJEACJEACJEACJEACJAACXm+2rFixgi7HbA4kQAIkQAIkQAIkQAIkQAIkQAKJRSApySOVKlWiQptYp421JQESIAESIAESIAESIAESIAES8HiSGBSKzYAESIAESIAESIAESIAESIAESCDxCGRne02lGRQq8c4da0wCJEACJEACJEACJEACJEAChzUBBIQyQ/cc1hR48CRAAiRAAiRAAiRAAiRAAiRAAglHICkpSZKTk9mHNuHOHCtMAiRAAiRAAiRAAiRAAiRAAoc9AbocH/ZNgABIgARIgARIgARIgARIgARIIBEJoA8tx6FNxDPHOpMACZAACZAACZAACZAACZDAYU7A4/EI3I4ZFOowbwg8fBIgARIgARIgARIgARIgARJINAIICEULbaKdNdaXBEiABEiABEiABEiABEiABEjAjEHLKMdsCCRAAiRAAiRAAiRAAiRAAiRAAglJAG7HKQlZ80O80jB9U0iABEiABEiABEiABEiABEggHgTQV5SSmwB0Lvyo0ObmEvOSVWLtFOZvEV/Ds+tizpw7kgAJkAAJkAAJkAAJkAAJHDYE9iuwXuNaC33CrrPTwwZGiAMFB/wOmkI7ebXIg9PUkqk1mLxRp6lJMrCO1lbDVA2snjhfINC48IMCu2fvPtn+3y7ZvSdDMjL2SWZWdo5KG+IscDUJkAAJkAAJkAAJkAAJkAAJBCEAn8+UZI+kpaVKetE0KVm8mBQtkmoUXKvMBdntsFoFHSxp5ZqN3gpHly6wA5+8UhXZKV6BQisenyJr1OpUXYZ6nTMdWFsV25MPXcXWWl0BEQrsxi3bZLcqtKVLFpcSRxTTRldEUlOSC4wrCyIBEiABEiABEiABEiABEihcBPZlZqmusVd27NwlW7b/J+mq0B5V+kij4KL/KORwtdhCH/vyyy8KzkI7ebkqsr+qIrtSlViwxw+fHbQikqXTbFVes3TeTDXtbKzzygVHJ8kFZXT+EJL9VlmvbNq6XdZv2ibHlCsjJ1YpdQjVklUhARIgARIgARIgARIgARJIZAIwkKWqsayk/ipVOErWbdwq/6xcJ+XKHillS5VUa63PAHg4KrVQ6KGXFYjL8UVvqyK7QpsSLLIGOjRZhQ9l1oupLuIHZdZMfctGqU31ysBah4611iqzWepOvH7TVtmlX0yqV61kLLJaawoJkAAJkAAJkAAJkAAJkAAJ5AuB8keVUuU2Xf5dtV67N2ZJuTKlJFndkiGHq1LrO/p8wa1W1kmqMQ/KlslLVUuF9TVTC7LTTKzLWTbrdDlDf3vtT7eZeZ+1NmW8Vx5crNsOAclWyzEss1BmT6xSkcrsIXBOWAUSIAESIAESIAESIAESOBwIoGsjdJBdu/canQS6yeEoWarQo/tnvii0k5eKXPSKKqDfKlwE+zUuxTrNNa/WWCzDKmunSJepyxn46bx/inlVbP/WbrZfaL5LDs5Jg3UW0Hbt2SMbNm+XKpXKsZ+snhoKCZAACZAACZAACZAACZBAwRGAKzJ0Eegk0E2go0BXOZzEWqbj6nI8ebEqnRPVvRgWWajKqpcK4iJhCr5Yh6n5eaXxcUky6AKfTj15ha7UsMuDf1PtFqv8yq/uDAtuTt9arH9wLvLQ/rVltX9tAcWzcroab9qy3fSZxdcRCgmQAAmQAAmQAAmQAAmQAAkUNAHoIojjA92kaFqa3+X48HE9TlJ36+T49aG96FlVZGE5hTLq01F9iizOrF3OOcuDm3hkkP6cAuUWMuhcjwz5zSuDf1fNFS7KUH6hzJqpXYZSq+tStH9tDR3up6quLwAxEY337jHRjE86ngGgCgA5iyABEiABEiABEiABEiABEghBAH1qEddnt+ooxT3pRsELkbTQrYZuBrfj3FplDIf5nPZtrdI5S2bP90qq7ReLqe0va/rJasY6bVwlSSbdlnyAMhtY7KBzksTbJ1kG11eldZ/m5e9XGzgPxVb76X7llYf+gcabf+Kz0Ips37Fbyhx5RP4VxJxJgARIgARIgARIgARIgARIwCUB6CbQUeBxfLi5HcMaHbPL8fT5IqPGeeX3hV4pppGLzRCymuF/Cn5nTvhoa6JtfKK6Fl/uEUwDpcnrqunq6sYn7Hc/tmkGnQN9W92Qf9c0+zQROjwjKjLckaG/OqaD52s6DRr1qI5de/fxui2OYhtGVnaW7MnIlDKlS8Yxd2ZFAiRAAiRAAiRAAiRAAiRAArERKKFD+qxet1mgq6BfKXSXw8HtOEX7EeNYY7LQvjU2W/o8lC1z/s6WoqprFtU+ruk6LabTkjotrdNknaLv6+CmHpnUPfkAZXbIt9mSdH+m/KBKKH6Dv9flwZkyZDK01P3is9am5Fhrdb3fWmvnMd0/33eBVx7OB2stTNqZOrBxZmYmoxorbgoJkAAJkAAJkAAJkAAJkMDBJ4C+tNBRoKtAZzlcBMOoQqJWaN/70CsfjBUpovsX0b6tmBbNSjKKbTFdLq7LJXT6aHP9OjAyVQY1y10ElNcmI7Nk8NeaEEqvTsxP88B08CT9ovCgKrY/5nYhhrXW2weKrUaZgrU2SBRk3zrth6vW4weX4vDiJ6r8my8AmQoOUcUoJEACJEACJEACJEACJEACJHCwCUA3gY4CayV0lsNJYnI5/vgDVehUR01SWEmqgHpUt1NPY/GoK7BHCZ5d3SOdr/FIfQ3W5JQfFnllyBdZ8sMSXYtNB0Q/hsao63EWjGKr2q7XIxccn2T63tq8BjVQ1+QGyTJEg0YN/kMT6n+fYqyZqkXYRkN+cJ5GQS6lUZDL2D3jM819VPHJk7mQAAmQAAmQAAmQAAmQAAmQQKwEDkcdJaZhez55zytpan2FzdX8lJyZ6h/opy/2T5Ezah6I85ons+RrVWh3Y5PdGWcL806BQgvJyWLwJGjMarVtrFGRG+VOPKiBb3nwFJ8CHCwa8uSNqtSWObA+vkKi/xu/nKIvm3uQAAmQAAmQAAmQAAmQAAmQQCgCh5uuApfjqPvQLpolkqqG01S1hNppWs7yiAHJByizL36aLTXaZ8oMjURcStOVhAVVp2F/Jjpy7jRQbJOGwg0Z5tj9AqV20nWq2OaKhKzbTT9bkclr4ntaAYxCAiRAAiRAAiRAAiRAAiRAAocagcNNV7GBr3KbPSOclSUzVZFVnTJVrbRpOoW1FtNbr0+W02rtVx6hwHZ/KEte+1iDRun2YvpD39qSmv4onaLfrXEVtlMouXY+2NRs1yjGP6hiq/kO+QmJfNK4sg4F1FLtw+iDm4Gfrs+ZTl5FBdRy4pQESIAESIAESIAESIAESIAECgsBBMCaPXt2dMP2wDLrUR0R/WfNVPVHzLdutV8vfufDbHljrEYD1lVpuh19bD2qf3p0KJ8k3SlZ+9omq6Vzl053YBgeDPGDzDAcj53qon9YHmSNH6yjOdPBPyCBBn86HytEoNRKpt2uK6yCjKn1X8YshQRIgARIgARIgARIgARIgARIoFAQGD58uFERXR8MLLPmp9bQVPx0+bTaPqXSZvLh+9k5lltEQNafpsMUltp0ncJae4SuO1KVzTK6DIuvCeSEqa73B3mySqnZjjSOn26DtfaHf32KrW5RpVbrYfPCvsZKq/lRSIAESIAESIAESIAESIAESIAEChUBj8cjKSkpMVpoVXf0qOUzSa2mKVAic2TubPSt1WF3YCxF1GOdwRTpnFO7HlGRU3X7Tk3/H3RT7AiLKvRQzAb+UJYzOjK2W7H9c2HJNelypnG20DqLtEVzSgIkQAIkQAIkQAIkQAIkQAIkUHAEvN5sqVixYnQKbbIqikaR1XrCLuvR8XrgQmwFczYKMoyk2G7SqVIJPRRKLabJ2A9TXZ+iU/zS9LdD1yMmlNkJ00CxRSHTQEUV9YBSi/VWMTbpAjPhMgmQAAmQAAmQAAmQAAmQAAmQQCITSEryyIYNG6JTaLOyM1TXTFGrqsf0i9U8JAWaa45AjzQWWii+qrGqfmp0S6xPUoUzSWdM31vdL5fFVvvSJmtf2hTd+J+m2wUrKxRU9LFNxlQLgHKKn67y/ZBG5604LbQmnd2u+1NIgARIgARIgARIgARIgARIgAQKDQHEaNq6dWt0Cm22V+2nxn1YfZVVY03SPrApUDxzBHok+tUizhMsrerW7NdDjYXWb7H1eQ5Dqe16jUfq6ti1UxZ45cnPsiVV90tTK+t2nWZDI4Yg42DiVGih9OLnF90XijGFBEiABEiABEiABEiABEiABEigUBHIVuNn9+7do1Nos7wZ4s1OUeOpDmKr06SkZO1DC1XVJ34LreqSxiKrCqWdGoussdCqwqvrz6jpkVuu98jpOcP9nFkjSbpd5ZGbHsuSHxeoYquW2R2afg8UZuilzh8U1/3F+grHOliL/el0Jkcf9iXgXxIgARIgARIgARIgARIgARIggcJAAOPuNmrUKDqF1lhozdH7tMYk1R69DgstFFrTh1YVSdOHVjXKXFO/hTZJ6qkia5VZJ9CG1ZJk6rycvrVq6t2lG7fZBCgWYhVVu4x1qIfpQ4v5nGX4N1NIgARIgARIgARIgARIgARIgAQKFYEk1S2Tk9XAGs1RoQ+tsc6qZdabBAtttmSri7EvpJNPz0yBUqmroNxCsTRTtZ6ivy1ch7Gsu5k+uMHKrl8dQ/34oiLDkougUylqTt6pFtu92BmKq3O8WpuJvw+trxzjbow6UEiABEiABEiABEiABEiABEiABAoZAZ+yF6p3atCDhYV2/2+fb97YYHOSqwLqH6tWFV1Ya0P9kkMom/W0P+3Mt1Kll7ofp+u4tBi3toTmU1pNvZj6x5qFi7FTsBz4g3mYQgIkQAIkQAIkQAIkQAIkQAIkUKgIoA8t3I6jUmizsvcJrLS+qW8+O9sMtJMDx2u2JWdrH1i1mMJai59v3hcB2S4vmBlCo83JqbMGi5r9Zor0udIjRTWPYqqcltRpGZ2mQlHFz5kFlFm73jnNyY8TEiABEiABEiABEiABEiABEiCBwkHAoxGI4XYclUKb7c2xyvqnsNhCe/SJ6si6jDT71LU421hnrcU2TRVOzMNii+liVWjbtsiUse9BExV5/4NsGfOhb96Xm+9vl6s90vuqZGOpLab7ldAkUGqPQLGBCi12x88qtAdm58uUf0mABEiABEiABEiABEiABEiABBKWQLYaUWGhjbIP7b6cPrS+SMeIcpztTfND8KoSC+utr59ttmrMKdoHVof3Uc3Z2adWF319aVUh/fSdLPn43SzJVNUav/fez5LWrZOl7Q37dW1Ya/F78ZNsGTEuW4cD8vWtxRA/foHymqkZYswg7Apl16nw+hNyhgRIgARIgARIgARIgARIgARIIJEJwEILpXa/1ujiaKyFNkstsFk5/Wm9DgstNEik2b/dZ9H1qKJrrbPWQhtsavvbfqhW2xbXZco7H+U2sd6hSu28N1Lk7iuTpbhuytUPF0nVgntAP1oXx8UkJEACJEACJEACJEACJEACJEACiUUASm1UCq3tO5utVlj8zLIqtlZg8sW6XNtz0nl1mpyVfUCfWvSHRR9b5zQtZ/mD97Lk3SBuyF3VDXnhaynSQCMiWzlCFVqP7ud3N4bb8f6q2WSckkCBE8jYt0+2bd9R4OUWdIGHy3EWNNdDuTzc8zds2nIoV9F13TbqcWTr8VASg8Dhdr627/hP9uzdm+vkYPmvmXNl8q9TBdsL0/WY60BDLBxqbQD3j3kLl8r3P02RlavXhqg1V5MACcSTAO57+EWl0PoiHPv6yNq+ssEstMHS2ejIHo1G5bPW+vrUpqoiimU73d/X1jem7YfvZ0vzINbaQBiIhlxW80k3llrdaqeBCRNkuctdQ6Rt53v9v+73PSSvvPWRLFj0T4IcAatpCXS/9yG58Or2smnzVrsqz9OBjzxn2kY88wxVqZ3/7ZJPPv9W7h74uJzf/Ga55pae8uizo2Xd+o25dsmP48xVQIIuvD7mE+nZd5i/9uCIazkRBPedtz/4LGRVcWyXXd9Rfvxtasg0ibBh2qy50lSP49lRbx8y1U3kdpPfEN2ery1bt5v75M+/T8vvKuVr/v/t2i1Nrmont3br5y8Hx3Zjx3ukU5+Bcmf/R2XFqjWSn9cj7vd4J5k6fY6/Dvk9E3j/cd473baB/K6jM//7H3xabupyr9wz6HGZ9POfzk0JN19Yrp2EA88KR03AdGuNNiiUjXCcqdZW/GCN/fuPzf7Cq9VLl+Ydj9RtGf7tSONLj+jIvh8suMlqTXVGQTZWWu0Dm4qfsdDmnsJae1nLffJWgBuyLXzmXK8U132PVMtsSfSlhXUWFtsElb/nL5YdO/+T02pXN7/UlBR5S18s23S+R6bPmpdQR9WpzyDBgyke8srbY6XehS3jkVWB5dG4YX25pPG5UuKI4nEpc9WadfL5N5Nl/qKl8s3k3+KSZ6hMMjL2Se9+j8hDT46SJctWyJWXNZHqJx0vH437Spq17iKLlv7r3zXwOGE5wLma+fcCf5rDcWbDxs361X6J/9DBcaWew3hLfvDGB7Q16zaErOqptapJw/p1pUrliiHTuNmQmZll2sob733qJnnc01Q6pryc16CenFGnZlzzzstxFVS7ifWA83JssZZp9wt2voI9GzKzssx9csvWbXbXhJympxeVK5o2kYsaNfDX/6ff/5LlK1dLvz6dZfyYkVKr+okSr+vRX4hjJmNfpmG5tQC9jQLvP857Z7A24Khugc8uX7lGvp38q1zT/GJzPq674pICr0M8Cyws1048mYTKK9i9J1Rars8fAjNnzowuKBSsrOgnm2TMn1AWYQZVF4upO6TmmSVMLa/oVFbXeGXCy3BD823fn96nYCbpdkhydrIkq5E4MyeOE4JFwWQMR2Iz1WSYIs4TPIixfu4cr8yq5ZU6tbHkk1c0WFRRLcqjGSDKVYrugFBVO8weOYkScIKXq3t73u6vOaxxN91xnwwfMVreH/2kf72dwQsGGCYnJ9tVZgo3GLCJJG7SuUqjnbOzMHSTKuEHQ9zUMVK93OThJg3KadOyubSR5iGLdJuPzeDr738xs8epEvGpWk5bX3O53RR0Gm3+zkwGD39Bps+eJ0Pv7ynNLmnk39Tl1lbSsfdAuWvAYzLunedN4LdIx+nfOY8zbo9n794MKVJkf9A6FOt238AqutnPTZrAfAOX3eQB1xoIvkpGK27yN8EVtD+KGznrjFMEv1DiprxQ+8Zjvdvyyx9dVp4ddn/IIt3k4yZNsAJi3c+ZV7A80E4itZFg+znztfNu09n0dhrrfnb/UNNI5yvUfrFcO26PwU26WNPg+T34vm65Dmvdhk1m+arLL5SUFN8zP9z1GMuxowC394NYjy3XQUVRXqQ2ELf6uHx/sl0vLr+4kVSsUC7wsMyyqzpF8f7kKj8X9XeTT6ztx819CHDc1CEoVMfKUGWFWm93dVu223Q2X04LhgDuUY899lh0Cm0NVVrnTd1mhuTxaqRhRDXGdGj7WTLg9VNVqS1pan9lp6MEv/Evb1LFdqs+VH3pTHqdR/RjXyRkVWe9KZKi0ZKTvBoJWfPyK7LOZX1v8+hyq9YeuUF/Tpmhltk3PsqSIqrEejSUcrKm8+gFjOl5J0f/wufM+1CbL1umlFrILpTRb38ku9QFaS96QUcAAEAASURBVPeevdK6w13Ss9NN8s0Pv8kvf0yTB+7sLNe2uMRsG63WzB+1b83Sf1fIBWolvFa/HJ7XoK7/sG7r2V9fRk+VovrSP2bsBO2fkyHnq5WiXeurpPrJJ/jTYWbsZxNl4qRftL/O34Ivozddf4XgC6RVnpFXvdNqy3/qnjr+6x9MPn17d5Tr2vWUzTlfxy+59na5qtlF0vW21tLq9rvk5KpVZNiA3rnKgas1OnePfHxArvVYwLY/p88265HXsZWPkddG+Cy/cId66c0PDYddu3cLlL2ON7f0K2Gffv6dvPDqGBnar6c0OPM0kwe+9na5c7C0vLKpdL71BrNuyl+z5OPxE+W7H3+XMqWOlEsvbCid27WSkiX2W1f/N+Eb+fDTr4x18rRTakjTJg2lVRil8vnRYwT5vv3io6YMyx0vIeO/miSwuDY650xz7o4qW9qkCfUHN+ZPv/hOzjnrdLm40Tky9MkXTT3A0grcP4c+/qI8OugudUH7n/z25wzDw54zpHvk6Zflt6kzZezrz0ha2v544S+98aGe66/l4zdHyN6MDPl60s9ya+ur/RxtGccfV0m63n6jsdzOXbBEatc4SZzH+fKbH+n5+MAkv63HA4YlPsK8rOcoUrlO1rY8TL/45kf1UhjntwrD6n1fzw5SupTvvoPyZ6k1uJm+ULz01oeyc+cu+elznwupm/PqLMvOO9t91SrH6rV1sbS+tlkuRQG8Jk761VwbaA+XXHDOAWlsfqGmznKCXV/Yb8Wqteb4f/j5D3OtnlX3VLmraztzPYbijXsGxE3+36q1/38TvtW2OtPkeW+P/R/TTCZB/ti29s6o4VK+3FGmDeAc3Hhdc3nt3f/J3AWL5dSa1aTPHbcI2ASTX/+YIfcN8X2ge+6Vd+Tdj8bLgHvuELi8Pf/Ku/Lacw/LsZUqmF2//PYneWrkG+aed4V6C0DABW2st5bR/JILzLpozwk+FuJeinsWrGD2uMJdQygIH01GvvaeTPzhV1mvCgauY9wLcI8JdVxIg76PcOX+n36Qwn641+DeeEf7Vv57qjmQEH9sfe/sequ5V036eYqgfXbr0EaqnVhFP3q+Kj+rBe+MU2vKDVdfJpfqPcopkdpDpHtUuGMLx8RZBzv/4BMvyuy/F8qHrz3lv64e0/p/o0xfeeZBwb0GYs/96GeHyhHFi+U6X+GeDdgXz8oHHx9png9Yxjnu27uDPvuKYDGozJg9X9vzu+aDHp4njRueJZ3a3SDpRX37WEbxeH6iAs57VDn9wNJEn9k99NnuLO/UmifrtdROrm/fxzzXsd/lN3QSWHA/e/cFf7u11yO2h7tvYHswwQsivCXwHIQnEK7d29pcGyxpxHuL27Ye7f3HXgPRXrM4CCfreDzn0V4/+PRLwwcu4Mhz1FOD5cTjj3X9Lhb4/hT4bmThg+fotz+Wyb/8adpAreonSTd9Ftv3GqSL9D5k83LeB0I936K9dux5uafHbfpOOl2+/3GKHHFEMdOecf2UOtJn/EIdZs9dKC++/oF55mAZ9yu0b7xP/LtitXToNUA63nK9uYdhO2Trth3a/nubddhmr8NMjVXymb5PQXDPa6fvLU++8Lrpz4zr47orLpUb9dntfN+J1A7sO0W451mke4+pEP/kKwHoDClqQMutHUYostZZZfQrCsaexc8Xwdj2pR162yz534src+UAa+1LU09UN+SSOel1H/UFNvuYqc0rUxVQXyRkX39aX59aGwm5zikeGTQs+QBldvbfXrlvsCqzWUlSRC20RbQPLSy1RXWKPrWNT85VnUKxgIsW4knWMNWq3EBZHPzYC4KAPL27tDNuR1nqZvXAw8/qA+kTfRBVl96dbxG4r/XqN8zcyC0IvDBCkcXvalV2b2l1pUyfM086qOXN6WY4Zuzn8sgzL0uZ0kcaBaJmtRONlfjN98fZrMzL52vvfmyUFdxIml50nhQtmmZePG0iKN7nn1PPKKznnHWaUZZQByu4gUFhra8v6sEEN5Vi6elmE/KCggbBDb77fQ/LuC+/Ny6xVskZ8MgImTlnvknT7NJGeiMtaV709mX6ooU9+cIbZtuN1zUzU9xcu97zoL5gbjY3VVgk3//fF9L3wadMh3MkglL18FMvSZVjK8mQvj2kxkknyGPPvWqUfZNJkD/4+LDW4baJY8ZHie9UgcDL72UXnW9eRPr0Hx5k79yr5sxbZBRgKG1Nzq9vNn6lL/lOgZsw2gUerFWOrSjdO7QVtIlhT78kv6sSC4FCDEX6d1VerOAlBooAPmZAqbT9tRuf5yvHprNTuFb99f1Y8/DBOudxNjz7DFX0zzNJWzRtbNpB8eLprsq1+Tun4I7ziRdQvMTj3OOFF+3cCsrHB5cnVeG5XJmijUDcnFebh3Nq2/0R6ip+V9f2UrlieXlCH5Cj3/nYn+ztD8frtfGKFC+WbtIcpQqkSaMfk9yKLSfS9dXt3qECZfZafTC30WthtiqOrTvcrcFgdkoo3qiDm/zx4gGlEgzxQnGOKmS4X9iPUaGOxbY1uCNC7DkYptfIBeeepfeUq4yrOl46Nm3ZFjSbE4+vrGXeYrbhRRDnDS+Cp+tLNMqHgm1l8q9/mnUIgmMF25HulBq+G34s58TeS1F/iD2ucNcQ0g3Xa/8dVcCbaXt78P4egnsLzhOUiFDHhf0ee+41GfXGB1KnVnXp26uj1K9Xx3x8QrcSN2Lr23/Ys8YLoUfHm8wHqLsGDJfb9SUQHxp7drpZg9HtlPuHPq0fFva7vLtpD5HuUeGOLRyTYMdWR93W8dF1yT8rzGbch/BRFOf0j2m+D5jY8IO+wEPwIdMevz1foZ4NZgf9A6+mjZu2GoUfL83jv54kUEJCCc7f7b36K9N9xqX3av3YgI9pz4x6y79LPJ+f6JaBZ8+qNevN87qRfliGgtTr/v1971GedfftoB9rnc9CeMxAbLu11yP2CXff8B9MwMzI1943H4DxIenubu1NdxncDwLFTVty09Zjuf8EtgF77JGuWTfPg2if8/hAEvi8O1o/TkfzLhb4/hTIGsu4Nvo/PMLcK+rXwwfN9iYZzrHtiubmfQg72XMX7vmGdNFeO/a8DH1ilHmH6HhLS7nwvLNNe7574GPmXRX5Llu+Sm7t3k/+Wb7SGA3wnrJq7XpjuECfcby74J0NBgSn/PDLH+begHsmxN6r0OXm1jbXmP1wb22lHyjnaNe9m/W99nh9Xxvx8tvykb7fWHHTDtw8zyLde2x5nOYvgYoVtdvTyjUbveqq6uo349fV3hYnf+C94uSx3quqf+q9pvp473U1v/S2rDnRe0Pt772ta0/2fjxyuRqRDpT5U3d5x7+02dvlzH+8d5y1wtvt7NXeHmev8/ZqsMnb+5yt3jsb7vTe3XC3957zM7x3Nsrw9mqc4X2mzz7vghl6eQTI37OyvQP67fNeeXWGt/m1Gd6m12V4L7p+n7dRqwzvuTdmeM9qm+E9/eZ9ro7JzbHv25fp3b17r3fLlm3e6X8vCahN/iye1+wm78BHn8uVuUbN8158zW3em7rcZ9av37jZW7fJdd6e9w/zqouvP61+VTXrVcHzr9Ov5t5Wt99p9rcrr765h0mnFhW7yqv9QMw6fSE16zZu3mqWn33pbX8azAx57AWzXm88Zj3yQp31BSpXOiyoa6pXb7i51msfYbP/JxO+9a9/5a2xZp0q0/51gTMvv/WRSeNcr32NvW9/+JlXLZH+1arAm3TI08qMOfPNOqTVKIRmXr8K283elrf29rbv8YAXrKzoi5VJ9+e02WbVgGEjzHJmZqZN4tWASV4nQ/+GnJnhz44+gHsgqyGPjzT5BuPnzA954ZxroCazWpVgk7ezPqromTRqoffvunL1OrPOnkccI+rQ76Fn/GlUGTRpvvruZ7NOralmedfuPf404WYCj3PqDF9+4G7FTbk2rXM6TTvJ69fSXOdGPySY+tnzZdkEngs359VZFuY1eqbJe9Cjz+fa1P/hZ/3Xn02DNuGUYU+/bPbF9QoJ5IJrxV7bbq+vJ55/3eS5eOm//qL044b3shs6eXG+IcF4u83/ijZdzf3BskR+qlyZMlH/UGLbGu4bEHsOcL6sfD5xssnnp9/+sqsOmOIei3atQW1ybUO9tA+3WYc2jjaLY0Za/Yhn1uP+h3QQt+fEJHb8sffSz3Lumfa4wl1D2B33Y5RvZc+evYabfiwyq4Idl76UesFEP5bZ3cwU7QL3Sivh2o2tL65/Kxqsx3Bx5mHveR988qVJ5rY9BLufB96jgh0bConExNbXTu2x6IcBs0r7m5vjwHm2bG1Z+vHIpLH72POFlcGeDTZd5zsHe1W5MPviD56hqGcoUS8YUwdcY1bwfLHXGtaBEdqh834T6/MT9yjkpx5OtjgvzhkY4N5ty7P3DSwHO17bbu316Oa+YTJ3/MHzF8dl3wGwCW0W1yHWWwZu2pLbtu72/gNGloE9t7YN2GOPdM26eR7E8pwPdv+N5l0s8J3AcUr8s/a9xXkvxfMZXG7v2d+kc/M+ZO+T4Z5vlm+0147dD9eXju7grzveK9B+7PsF2iie6fZeiYSWF95FILgnYJ9//l1plvEH9ze0F7QtCI4dZdl3URw/9sHPrtu9Z49Z1i5SZh/8cdMO3D7Pgl2L/oIKeGaG6ijQVaCz4L7pRsdJ9DT6Mctbrlw5b1QW2lPql5cbutXQr6P7LavWQmunH41cKm1O/Vn+Nyq3tbZ6vXRp0am0NO9krbU5eQRYar3ZmVLttCTp8XSK9Hoqxcw79fpP382WR/pmyaJZGgVZLbN27FpER4aF1vx0fdcrE9/deIJ+pe439BnzQ3TDK9t2M66G/dWt2ClwE3b2kf1brXj4enuFWsaswM2ibcsW5suW3szsaqlxclUTSMKuwBdZuHLaQD5wN4JUVYsJ1tnfsZWOMetXaCAEK7AShXIXtWnsFAEs4Mb1xbc/2lUm0NHZ9U6TCuq6GI3A/QwWO/Qf0puksULCPQ2ydv0Gf1YIsNXq6svl6RffFFiQmuhXQxtkA5F8YSU4To9rnh6zPU7rzgr3ZEjd02qZKb4+Ig0s4/h6j2Ac0ciZp9fOxQpf5CGr164LmQ2+QMNyAYsuLIKQZhefb86pPkwP2O/c+mf411U6ppxxSVymVnAI2gPax1ff/ST6QDTrvlW3dUijc880U305N1PbP8ss5PGPm3KDFYH+5HCrgls8vqyiH/GiJf+apJu2bPXvgnbvPBduz6s/g5yZ+Yv/MXNwUXIKXNat67hNgy/ATrGeAxi+IZK4vb4Q0RPdBk484Th/lnDL+vKDl+RidXEOJW7yh4UX1nq43uP8WEHfvFgFniFW4A0AQRTWaAX3Irj/qqJtrIzoTnCXWughf89bbLwz4FqLdJB4nBOTUc6fcNcQksDND+UjajXuEanK7+YbrgjZhw77oF8rvD/gnaEvf/KXXrvoRgDLyoooh/o4Vz1drNhuIg3PrmtXqQXYd1/apucY4qY92J1juUdh32iZwJIFt8lfpkw3RU/5a7Z5fnW4qaVhi3MPzxQIPHxiEbh5wy3NyoXnn23um7AEBRN4B0Dg7QFvAARoxHEFXmvxeH7aexTaQ7Gc+zrKhtskrm/cu2OVWO4bC5csM8WhfCtos3DZdIqbtuSmrcf7/hPumrWsC+o5H827mJv3J3sdlFAPKvuOgvNV/aTjjWu86k7GHT/S+5C9T4Z7vtlzHe21Y/dDl5CSJY6wi9JUu2/h+Wy9RfCuiWd62dKlBMeA6wzdoyDr1m8yU9tVwga/NPdL9cKCd5gzPkBd7e5WTN2KIXgfxHWJ545dB88uvFuirUHctgOTWP/E63lm8+M0vgSS1WN169at0fWhRRXadD/FBH364Pm52g82WbzZKdqwtI+sDsdj+sXqFMsfvbBU1ForLbtWkWu6+PrAYP8WHcuY34RXtsjnL2/XvHL61KorhfZ8lUs7Fpemtx0YTOiLt7Lls7eyJEufSSn629/nVvveat9Zs6wXM6bq4SA3X5P4Ci14bd/puwArqbvj5aq84GZt+5NhO6SI4yUUy4uWLjf9jpwXPNZXrujrhwZXD9tXM9jDEun0a6dxs126zPdhYtCjzyGLA2Tdxk3+/raBAXgOSByw4prmF4laDAXBLbaqaxQiNnbSPhHRCm7i6O+DPnt44YWgD1Iwua3ttcb1Be5stt8s0sHdGQJXNPwCZfVan2J8mbpSwyUZ/UNtOvSxRUAk3EjdSsmS+2/02Ad9PCD60dFMg/2BWxaOD0oobsgQ9FmGQEkPDBQWWB8owfpZ06THH7QnuLXhhfzC8xsYZRkPCttnq6Z+dIDo11Htl3e8mY/Hn0jlBisD52eo9rVDgCorcE8NFPRnc4rb8+rcB/NLc9wfcd2FEpsmMABIxQpHm13ALZK4ub5O1pcVvDw2yHGxipSnc7ub/K0LfuBx4OOUdWt05hlpHufFqTykpxcxu+j39Ei7HrC9kSow6DqhlkbTPxrXNT5CYYr+T+jnDUE6SDzOicko50+ka6i79lnFfRYubvihXl3bt5bml16Qi4EzT8yrhUWe0msW9zwIOOPaDnXfMomC/CmSlru9I4nzA1TgM8BNe7CKcSz3KJQfCxMomOivChe/n/QDxiVNzvX3CcSLO9wJIWfqi2ssUkL78DnFfhDEsyOYwN0RLuToQ4chcSDoOgEl2/n8jcfz015/znyD1SnadbjeYrlv/Lvc1yaPKe+7j9lyAz80u21Lkdo6PkJD4nX/CXfNun0exOs5H827mJv3p8X/LDesEDMgmODDC0ZTiPQ+ZO+T4Z5vNv9orx27X2B7wXr0h7fPRXxIh9u/fY/C9sBnOj52IYo+Yo0gJsqkn6YgmVGOzUzOH3RvC5TAoKQejbNjxW07QPp4Ps9s+ZzGm0CS9OzZM3qFFtVo2x19HL0CpRbii1qMB4Pv54xqPHbkMvn4xRVy3R3HqWJb0aTHnxYdS5vf569slUXTMvSlwCO9Rpbxb7czS2d45evXs2XhLK+k6YsDoh2rPuubqvKKkXnQULHu1Noeub5VkpziM6LZLBJ2igfokPu6R13/YytXyPXibzPA1y3IMY4IfGvWbbSb/VP0n4X1FC9D9uUcgVmCDc0ReLPzZ+JiBsGUoNBO0n6BCCQAuUADb0Qrv+pXPbwMoV9p2+tbmJsmvsghcFSgfKDBnKy8+9EEf+RIe/NFXzRYXAPF3jCRb6d218tNaoWZq/0zoPhDud2r1hUE8MhPgXUWguFF7EeMImk+pQ7D58DaYF/UTMIIf07RACMIQPSVWjvxJRUv1M5IxjVyAoNNnf53UIUWYzu++Pr7MujerkG3hyo+UrnB9us/bITpc/Nw/95St04t80EG/ZxCfWixebg9rza9nVbMsYoguMYRDquo3Y6pfRmAx4OTu7rimWRgG0ncXF/wvsD1iP5F0Yqb/NEHCbJuQ+57AdqT/UAUbbnxSo+2AmUPyuufOv4lAuXgvoTpz1OmGasmtiMdJB7nJJq6IxAWFJ9eXW4xfZo/HPe1iWlQWpV6ZwA+Z57bd/wnvR94xFgRXnxikE7RZ/0IQUTxKdPU9SgfxU17yGvxsTABK9zD0U8WH60QeA3KIto9zv0veq7xIcPNS39e62/3R4Cxyy48T61H/2qAr+lGSVisH4vffekxm0RjTeS+ZrAh2ucngtyY/XI+mpqFOPyJ9b5xTM4HOXxoPqFKZX9N8PHaKW7akpu2bu/RBXH/sWUV1HM+mncxJ9tQ85VzninfffL6AUn0tmjuI/jwHel9yM3z7YAColxho3A7d4Mxpc5l1cyqVzUWBZRZnIsmGqcDz0t41F11U+533hZNLzBxABDTY8LEySb4aODHD2cZbubdtgM3eTHNwSeg7udy/vnnRxcUylnttt3ryGfzW6sLcvWc8WV1XNosjDPrG5/WjDmbhXnf2LNQbD95cZUzCzPfvGMp6f1iOVVmc1vUFk/PlJHdd+lvtyz9K9OMTWvHrQ02baWGvSFDCo8yewCoKFbUVvctvIjaAEDYFV9rcfPAy599EGE9opDaL2ZYxss5IiPXqe276VilBhEfEZ3O/v5dscp8Sbdfl7FvOEHE2UDBiw/cQPD1bcLEHwQujtZFJDCtXVZ7vJmFe54V3CQhXTRCKFxNoHRq/0XjUmbTYAqlD4EX4HaMwELgYRkhGiy+xOFlCpYpe5w4PihOeDBDMP4r3F1RzzPVxfn+Pp1MtObvVSnPT4FFebIGQ0DdMbzIY4Pv9v9GPj7QFI1gCdEIFANYZJHvexr8Ctah0zVgihU8YBCh9smRr/uDa9lt4IGPEfi6juiIwQQPWIh1XfYt+Vwuw5Vr09kprChop5c0Pse8YJY7qoxxsdc+gzZJyKnb8xqYgW33X373c65NCDiEIGG4nmwatA+n2GVr6XJuC5y3eUS6vs44tYZxybQfpZAP5nvpGME2WE4w3m7yh7cG2r726zRBR2wdv9cIpwUltu6IqOkUBDfCecc9Am3AuhNiimV0y8B2G23dHq89BzYvu+zmnNh9Ik1xDWg/R+MOW1YD5iF42qMD+5jdfpvqc50Ldly4N0Hg1YEAeFBmtQ+TwD00v8XyidTe3NQj2LG5YRIs75P0oxHuP/A0gdjAgHjR1T6S5t4d6WNnsGdDsLLcrINFGEGg4GlQs1pVuf2m68zoAbB4OoObxeP5ae9R6H6DIEJW8GzC9Y0AVbGKm/tGYN7VNdAhBB86nfKNRnJ3ipu25KatF+T9x7IuqOd8NO9iTrah5mvV8HlNofuGfUfBFK66s+f63PLdvA/Zcxfu+RaqDm7Xa39f88HRpseHKbyX2rKXahcNXPO33ni1CeQEzxJ4YwSK7QL1knbrwPV2VbMLA5NEvey2HbjNONS9x3rSuc2H6WIngPfZA317o8yvjVpr8Rvz/Bz58AWNKKsven4LrboC+5Z1qjL2xWXat3aFXBtgrQ0s8ovRO+WrV3eptq1hmD06pI+6MGN4n1QvRq31WWMRUxMeBCfWSZLew3PenAMzOkyX8WIFxe6eQU8YJQ+KCSyJuOkNuPsOY+FworlTxxK9TaPDof8XrJa46bS5trlJgn1bat8ZRIiDO1g97fu5Vq1Wj2uUTjyIEM04kuAG9q5GUkY0UESYRN8/K+jHiUidEDvkht0WbHrSCT7l6ZlRb8t52lcMX/atdWbEy++qgnaRieyJIXqcgheFB3UoG7y4d1GXwOLFipqXZA10Ih+/8axRUO/q3l4eeEj7LOsPdVEnesEwNniJsdYW9NuDm+627TtUkassU7U/BxTl1tc0cxYX9/nvJvuUC9unxFkA+rrhQ8X4r35wxdC5L/q14Gsu3I4RKdPZFxs3iKcf7ivtut1vQuOj7+5Zp59iPhS89/HnZvrssH65XBydedvhNjTQjxmaBNZfq3iEK9eZB+ZRD3z4QBRrtB98CEF9na5Kgfs4l92cV2d6zJt2r31KMewR3LQRURH9lzBECz4qgBO+EqPf6eh3xqpCkilnqOV4zvxFpj8l2g/aRyRxe30hWjCG5urZ92ETORhKEIapwgP+fh1qBhKMt9v879ChtBC9G20f5xkv0c+M8ikXkY4hHtvRLvBh5LOvvjcf3OBejfMMQR8unHtIXe1L7ZziQw+2W4nHObF5RZrClVoDwpl7W7fb25ihKaB4Q+BFAAl2XFDeIBi2B9dtih77WB0qDP2Y8YKXn+K2PbipQ7BjK6MfBiMxCZY3rnEMd4XnBIaIQfuGnK3t4M33PzXzti+2WQjyJ9izIUgyV6u2aLuy3WHgDYDYA4i2CosxPl44JR7Pz7u736bX3tMaafwp82EXXY0efWa0ecYiunqs4ua+EZg3ysM9AJH48f6GmAT4QBN4v3XTlty29YK8/7h5HsTrOR/tu1jguQhcRlvEu13Xe4aqZbOtiamAD2Gj1FMKw365fR8y5y7C8y2w7GiX0Z3i3kFPmqHuYK3FMJK4fuyoCXU0pgniI+Adq57GJkEMAowYESgwUOADOO4rEDCIh7hpB27LCXbvwfsC3p3w/gzDByX/COBjCAwfeVZobRXRt/bU+kfLnD82ygeq2HpVmfWNNZt73FmvjkELay2G+LnujmP1ZdUjNc7EwytJx6zdnON+rIos+ueavrk5fXRz8vOgz666Gp9UxyMXt9PpabYGh9/UqXw4jx7WwxGP9JOHdaxRjNkIwQ3sHh1XMtCdFg8uuK9i6B8IXiqhpDgtGff2vN24euGBjpd3CMavxZi3aampZjncn7YasGmWjjOIr+9wG4N10Yr96o4XOQT+iSSwzFzRtIl8NO4rY1H6ccJbJvAJQr5DMft2su8rMoIiYGzI5JxAIJ/oOLR4+R/Wv4+xwKIc1B9h43GjxVAhcC/bs3uveamCSyAE3GABPU6HioBgnEd8oX9Ox8e07piwLHfXh0sowcuaW3H283DuA+sZGNVxBNux2/FiifFR8cEAVrtw5SU5AqNgfygAGP8Ow92gLQQKgmK9+MRA86Fjklpy0X8XgpfO4YPv8r+4Y11gufh4gDb3uD6kMBxTDbV02PFyI5WL/JzywJ2dRCMU+tspzgvOMY7ZXgeB5dv93ZxXm9Y5vVfH0YOygbHt3sh5qcYYz73VvdSKSaM3U5sGCgoeYHfrvrY+dmr3CZy6ub6grD77yP3axseY4YuQBxiMfmaoP4haKN5u8sdxYYgXDOGFj1+Qfn06G75mIcSfwGMLXHbuZs+Tc51z/v4+HXUYtifNeKEYessGpbHWOnzUsEFzMMUyhuyx221ebs6JTWungXULdxz2GkIfLbgbayRZo4wgL5x/eH+gT6iVYMf1wmMDzAdHDGMBwbEgSN3feo+yEq4OgfXFPnadndp8Aqdu2kPgPs5l5z0q2LG5YeLMz86jKwUUWgQ5tGKDM+F+g/ZtJdgxBns2BEtn88A01HYEf2qv466O02BdGLoNgo9pGKrNKfF6fuIDH/o/4vjtswf3ZQShC9cOnHXBfGBaN/eNYHkMuLuLeXba5z3YD9dxze140XYfN23JTVuP5f4TeO4Cj93WEVN7zWLezfMglue8rY+doqxo3sWQPpLgvod3OwwVh+F0rOCZ07PzzWYRgeAivQ8hYaTnm/M4bDnOaaTtd7S/UQM9/Sl35dzj0J5hUEEfXwi6FSzQ4Isv65jxVmy9nTEYsO1y7U4GhRbvfvYZYPcJNg3cP1gaN+0gXJtyHn+we4+NZRBL7Ihg9eW60ASysrLNxiQM21Ph6NKhU8awxVproZR6VIFNypkGX4YF1qfABt9u90deyXLSGdo3sn2qVD3dvZIQwyHk2gWaP1zC9uzZI8tWb5TTa1XNtf1QXkAUXvTRgZtmoFxzS0/jWox+uoj+hjH30Ak/nKB/EMYGs4GDwqUN3IYHNoKYOCOpwsKCvq4IrIS+qW4FLsdoxM6+i3APXq3j+B2txxrJdTlSOVBaoQzDnSeYwOKLvpIYdxQKZaIK2rYOYWE+WLw24qGIh7FBXdJL6gMpmr5sYAXXmyNL7mcZbbm2YnCJx3mG9c75QLHbI00jnddg+6OuaPfljiob0hqNh9a69Rtjrpct1831hesIDJwv+HZ/TIPxttsj5Y9jXa9f08uWKR3yWG1e+TXF/Qp98/N6XcXrnLg5TrhKI0CbDbYXbJ/A40L91mi/aCjBNpp6sP3yc12k9uC27MBjw35umLjNP5p0wZ4N0ewfmBb3PLRHWIqckl/PT5SH51pen2HOumI+0n0jMD2WcZ/ZrM9CvD+Ee7lH2nBtyW1bL+j7T6TnQTyf8+HexcAvWkHd1mo04PL6odsqT8483L4PuXm+OfONNI/2e9n1HWXwvd0EkY5hnUVbtops4P6I1YAYKvjIHew4kB7xOjAO8qgnB5vRLALzyOtypHbgNv/Aew/OuRujj9v83aSbOXepVKl4lBQtWtTwjHTduskzEdJ88cXn8bPQOg8Y1lr8xjz/t0Y7XqA3Qo1grL9so7iq+7C1vpqptcCm6PZsSdYfFFyfdddnpYVCDMvupbcX0QjIac6iOB+BAC6mYMps4G7WxStwfeByYOTDwO3hlp03NFz4iKb4ukYwhVxxWWMzdfsn8OUC+8FiguiU8ZBAt7LAPPGyjQdJIgtcpTFUBlyq8fXdjUT64BEsD7ByKrOxlGvzDacw2DThppHOa7B98UDAwzacQLnOy7Vh83aTh/M6svs5p4G8ndsi5Y9jta6+zv0Kcj7UR6Ro6xCvc+KmXHzgi/SRL/C4UD9Y2Q+mRGoPbusWeGzYzw0Tt/lHky7YsyGa/QPTurnnxfP56aa8wDq6WY503wiWB56pbp9z4dqS27Ze0PefSM+DeD7n3b6LBTsPwdahbsGibNu0bt+H3DzfbJ6xTCO1H3y8cRomnGVA0VytXTEwfBbcleGanB8SqR24LTPw3lPQyqzbeha2dBi2BxI3l+NggNp0r62KbW1574W5qtguVKdi9KW1P8z5/nly1tm+t3bZt1Wket006fXC0cGK4LoEJfDrHzPU5e5xU3v0AQz3MEzQQzykq40voq07+JRYuM1dqK7gBSEHq9yCODaWQQIkQAIkQAIkEB8CCOIJl394sTz/WH8TpC0+OTOXwkQA3prwNMgXl+NgoOb8sV7m/LnJp9i6cjFOkZpnlpQrOh0t1eqmB8uywNYBVKK6HIeDhAGu8RXdGZo/XPp4bkNQJQTaQBh6RJyjFCyBDHUvR/8VuI/He/zDcEdysMoNVyduIwESIIFoCRzM52e0dWV6EigoAnCFRrTi4yodE7YLhpv6rNIuZFu3bZcTNIaEm76zbvIs7GkOR5djeBlMmDC+4BRa24jeV2vth2qtRd/a4H1mk6XmWaXlms6VpHo9X6RDu+/BmhZWhfZg8WS5JEACJEACJEACJEACJEAC8SNwOCq00NG++urL/HU5DnaKWnerJfi9/8I83ZykEY+XGMW2Zv0jte+sR1reUVUts/ujGQbLg+tIgARIgARIgARIgARIgARIgARIIF/70IbD27qbb4iW1t1qhEvGbSRAAiRAAiRAAiRAAiRAAiRAAiSQiwCGaZo5c6b4QkPl2sQFEiABEiABEiABEiABEiABEiABEjh0CXi92TJ8+HAqtIfuKWLNSIAESIAESIAESIAESIAESIAEghFAd9UUHWKMFtpgdLiOBEiABEiABEiABEiABEiABEjgkCXg8SRJxYoVCz4o1CFL5BCs2O9/Tpf3xo43QwZFU72UlGS5seUV0uCsM6LZjWlJgARIgARIgARIgARIgARIICEIZGd7ZcOGDVRoD+WzBWX2gbu7Sbmjy0ZVzfUbNsnDT7yQcArtnr175e/5S2Tnf7vkjFNrSokjisnGzVvl6LKlozr+vCTevuM/SUtLkaJFiuQlG+4bhMDGTVukjI457NExwygkUBgIsE0n5lnM2LdPdu/eI0eWLJGYB8BaH1YEeJ85rE43DzZKAhi2Z+vWrXQ5jpJbgSbPzMyKWplFBaEAY99Isksf6G073xv212/oMyabKX/NMuk2qFKSH7Jl63a5seM90qnPQLmz/6OyYtUaeX3MJ3LZ9R3lx9+m5keRB+T5367d0uSqdnJrt34HbDtYK8CgZ99h/uLvHvi4vPLWR/7lRJmZNmuuNNVz+eyot+Ne5cm/TjVtEx8j8ltWrVlnysLxFIQ8+cIbgnN+qMm8hUvlviFPySXX3i5Xtu0mjzz9suAaDpQFi/6Rx597zaTrctcQGfvZRIEyEUmQF+5NP/8+LVLSfNmO665Xv0fC5h3Ypu09cv3GzWH3i3WjmzrFmndh26/7fQ/J2x98FvKwut/7kFx4dXvZpB9MDwWx7f2n3/4y1cnvtnQoHPPBrsPzo8eIfb852HUJV37gfSZUWjfPQdyD3x07IVQWXE8CCUkgSY0kPXr0oEKbiGdvztosOf3prXLhqG15qj78zk+rXd3/K14sXeYvWipVKlf0rzv5xCqmjB07/zPb9uzZm6cyQ+380+9/yfKVq6Vfn84yfsxIqVX9RDm1VjVpWL+uqU+o/dyu79RnkOAlJ5ykpxeVK5o2kYsaNQiXLKZtbsoPlvEGfTmet3CJf9OSZStkpSpVh5K4ObZKx5SX8xrUkzPq+Ibrimf9t2/fYdrm3oyMeGYbNK+9GftMWQWhPKMCK1evFZzzQ0mmTp8jN3W517TLG66+TJqcd7aMHT9RP0YNEnhZWIFVoUPvgfL9z1Pk2haXCELrP/LM/9k7D7idqy+A37Ro77LaQ4OSVFJCikgqZGRky3hl78ieZZSQEC2lvXcaKg2pUP+kpIQoKRkp//O973uefs/P73me3zPwvtzzft7nt+48d51z7jnnTjZTH3xCg9jrvTNnm1IVa0W92/rPPxbPv61Lb46LSjSJB8bdoq+WxI3h79M6R27enF4/RBgJPqY//FRU/mHKFBVhD35AkPLzql9iYqB82QvNleUvES2gA2OGSeXDJwsW2bZbsPDrpKJrf1/3e7ZQKFN9KalCJAicat0SJJvxz0HzSVAmK35ebb5ZuizoU656559nYhUuzDq4UOa0VavXxErCvXcYyKMY2GbKly/vVI7zWutN/WiTaTV7gznxiHxmw5ZtaRUftdpuWc0iaTz70pvmkwULTfNGtczJJxSJvA+6+Ve2+BOpjoYJo2mvEjVpoMbVFcVb2d72vnTJcwz/sQDCcf/994v6nEyeURHlgfr0797W/zryjFoDkqB4kGr+qcbzliUojUyWOSh9b/7x7o8VrYGxQ3oGBkk13VTjBRUi1bTC4Dcov535LkzdwoTRMj/y5IvmiMMONY9MGW0OECEQcF7xYrKTPMJ89sVX5uILzrXvho2dYq/T7xpiaH9gxLj7rIZB+bKlTbHTTrbvwvyAZyDR+AuTViphgvATr0/789gR5Q8qkz/fMGFSiRMm3UyFoXyh0vr3Xys08dcn6Ll+rWqmvqkW9Mm+S5Rfou8xE5YP6cTVdIPSSDQXhe2DQWlrvqlcg9JLVNYw+QSlGyZerDBh0gsTJij9sPUNSj/RPBMUJ6gMQe/ClisornvnMJBbMIANLX15n9xSIFeOcBjYIML/eVmHmne/32rGvbsxXKQMhlq2fIVVIXxv3qcGyeH11SqZJvWvj8oBdanHZcfm9bc/sITvVRXLmlaN65hDDg6Whtdu0tEsXZa9C3X1jS0NO6XPPHi3VTUeOPIe88DE4ebYY44yqAh9LpLvqpXKmUkzHjV//vmXeef5mTbvJ5571Tz61EtW4nruOcVM5QplTZ3rrzbspNVsnGV+zdnpQUWyRtUrTLvm9aPKrA9Ns/qY4meeZjre0tiqo9Vt3tl0bd/Uqj6++e48sa3dz0r2O7e92ey9dzbjDWM9YerD5pW35hrsl8uVucDmDWGfKP8XXn3bzJj1dERSzK5B96zm5vDDDtEixbyiLkf5OrW52eL6TdkJO/mEoqat1O102VkfLszDu7LzjT0yO2lXCU68gPrnK2++Z4UYtGWD2tVNzepXRuoFLkqXLG4FDAg7ULelbr07tTJHiV1zorp589Ky9ri1RWQHHObnrikPmvlfLDbHi1YATE7LxjeaAvlj2y+v+/0PM/n+R82b782zuK525eXmrGKnerOy/YQ+OPOeYZH3mn+Xdk1NZemPColwoOH8V3ZSULl9bc5cOw4oe+ub65gDRMvh+VfnmDH3zDBjh/aymgYa9715803/YXeZgb2yIkyffgt7ZQwkqhsq+oybYf06i9r+E+b9jz6z+NX29eaVSv0b160h9awbYWZJ76TjC9tksXkH/t661dAfG9e9LsLM8r5Fo9pm1lMvmvc+nG8ZWlTgPpr/BZ+sWnLRIgXN1HH/aVJsFI2QASMnmFffet+GQXuix63NQ9u4s7vdulN/O0aurnSZTWP5TytN0/a9TflLL7R9mZcshjc27WTOFw2Cnh1b2nD8oPI8Sfrboq+X2PLe0qSuaBqcb79rn/L26UjEnBvyYny/JXPHJpknSp9f3HRo2cCcULSQP6h9njvvM+lXo+39+HsfMA8+9qzp2/UWO+40QrwyEYZd8ikzHzdz3vvIzqtnnXGqadusXsI+F2Y8hukv3vkf85cKshvaXursHdfeMDr2mzWoaQ468ABbzWT68Gtz3jdPPPeajIsFdix2a99MURXz6h9HurbUq1nNahDQ3sXPPF3WgUaG9UQhHo4m3/+Y9JVZNij9S4U+R4rfAHbF6Ef04782brTjsUXDWqbqleU06bhXLd8NMj9Pmv6o1WaqcsVlpm+X1uaJZ18zjz3zskEj4vpqV5gGN15rjjnqiEh6ifpgGFzHq1sko5ybVMvqbxOS0zHmnbfjtUGi+cRfVp5ZA++ZNsviFC2i2tdWjoxxDe/tr7RrIppGyw3twLz/xtsfmoPEJwhjgTXusEP/s93+YtH/bP70X4D1Gvrj7Jx1TdPyzjNh1kEtu//6zz//mnumPiJj5lU7J1WQeRAa7iTZxPhXhEJ1mnU2p518ghnS99aoqOAWLZsJI/tGvXcPDgO7GgP0S4Td7tieXd0SSebfvmx+U7LwrpNDdOg1xBQqeIy5tVUjs/9++1mGBAJegcm5TdcBwmz8aidlFuxHnnjB9BhwhyUaNZz32lwW9gMKFLCvsoTwgTEAtoh6J4zolr+32ue/xMaVHeTRE6abq2UxJywAUzj4jklCJBY2t/dob4qdepIZMf4+u1Dlz79fJBxhiXNZmVLcBgK2TOtEhRVA8kn+PQfeaVABa9O0riVEIcgnClGhMFzyekAIz6pSpgE921tivm23gWIHvNLEy59y9x06zhLnMKUwHK8KU9x78FhNOu5Vy9dnyFi7U92+RQOD2m3nvsNNsw59LWOa1bKh+X39n7YOi77+T3X5odnPW/XPIw4/1DLQZ55+ijDAU8z9jzwdyRNcTJn5mHldCEaEAxBQED8d+wy3YeLVLZJIzo2WlTYEwE2zDn2kvH9bNfPrRMgA4T9m4oycGNtfsL1kFxD8VxQ11w6tGpr/ffu9CFjuiwpMHit96oaa/xaPWnIYHEQl7HkYOOoes2LlanNr68amjAgusEui3SAILi51ru03L7/xnieGMS+99o59z25mqhCmbjpusEeHcWrX/Cbzj6jwDrlzkvng42yiifxTrT+mAKecWDRSBdKm7YCLSpWw159X/mKvpc472171B0ENwhMEYwAMhHfsMwa8QJ9cs3adFdJA6D378pt2l9cbJt49RBrwljB3ChCnjOuXXn/X4oX333633DJ/Z4qpgwJhbh9xtzCTpUzzBrWsAIX5T8uufUr7tMbTK+OHeeDdDz+1AiWY+y9EINegdXcZk9lzjIbV6yknFrFMFM8QzsxXXlwnLJP0vz6Dx1lBxoWlipvObZrYpCnH/M8XazbbXcOMxzD9BVVb5v+fRJ2TNaKcMAiM1w49//MDsODLryJhmJ8uFCaf/tOt/2g7d1K4sH0YZgEBAG0AE8BYpI3AUzzwjyOeWVuGyDpy+SWlTaM6NayqP0K9tb9lp5UIR2UvKimC1EttttdULm/b7sADC1gBQ7vug83TL75hrq1SISKwZO4HF2FAyzd20kzLtGIa89Lr71i/EwitWA9Za5mHsGdXCNMHw+A6Vt00H+811bL624Q0dYzpvJ2oDRLNJ95yco8gnfXd9htZTxAK0H+87ZIKTaPlHjhqokH9vYVovbFmMRZYw9SPwPc//GRubtfLfPfDj1boz1z9k6wrMI/49AA0LfADhF0HbeCAn0eefMEys7VrVDH1Zf5F4NlG5gfGDIxBmdLnmpfffDfKJwJzHoJHxqoDh4HchgHoLrdDm9taJQ+UB2aTXRbgOpEGl7+2sfnw488NO2XAANkZQqI9cVQ/8Ra8r3132iknmn7DxptPPltoLghQIWbH7AdxAjVx2iOmuiz4iQAJIUS1ghLpQ/p0sEzcNVddbk4/9URT8NijzX777mvTfPblt2x5wqSv6er1ImFQRg/qblWS695Q1VSt29rMFUKKXQ/gHXFKhGSXXQigUrky5tGnX5ay5IubP+VrelNNg6RecYUtFQIAiAx9ZxON83O5SH0H9+5gQ7C73LJTP1O00HHmjoHd7DsYKHYMvlz8jd0xhEAbPWGa3T1ToQA7uANG5jd33/eQoY6qSgqzMfnOAZHddVS8n37hdbs7y447+EwFt+pUqUeH5hFJ9BnSZni4jgVvvPOh3c0d0qdjZJcVRrhm4w4JCVh/msngwB+XZ3aVJt95e2TXiT6Ofej7wjCWvbCk3VF7QQQ9HVo1sEQCO40vvPa2qVX9qtC7i0H5JvOuTdN6hl0vgN35a29qY+Z9+oXdqUu3/qQJ0Td28gPmm2+X8WgG9syKeCRfLra/wJEiMPHD8bIL+50QcsDll1xgGsmOb6yxj4bAmCE9LA7rilCl4S09jDrO8acb9IwZwRWXlzGPPf2SOMrrYLUN5goBx84h2hRfCbHJTsgHObsjZS/K3n3VtIbd1skoU479N4whTFusHVaNxxVbYRiKWfeNNoWOO8Z+urJ8GXODaIygTaLzqDcOmijXVqloBXQ3CXMfNF/FKxOOYdgZHzukV2SX6fprKpn6LbvasT1l7EBvdpH7ROMxbH8ZJAQ8Y+NeGRtoKwCnnHS8mfbwk5bJLSzC0P4jJtgwlEV3bUude5ZlLNgt07WEuPH6MN+Hi1o7u0mMRZ0vixQuKIKx+/mcNIzo3yVi50+6MJ2LRRDIrnwiHNGPal57lWUGsBnHPwXAnFajakVzquBB1fErXnaRdZL30fyFUTvAiQp8x8Du5szTT7bBsK9Hu4X5GfwBMHwIHRWS6YPxcB2rbppP0DXZsgal4X+XqA0SzSf+9Hju162tFTRwX1Pm53otuphRd0+PaPikQtOQFoBGF33zkIMPss8lpE/0GnSnefOdeXYNQ8sLGoCddZ0jmFu69htpvl7ynWiMZLerjZzzk4l1cOLofnZckiR9sX6rrqIN8pxp3+ImK7hGMIKGBzQeoBoyVa7IFtjYl+7HYSCXYABBDExtvlxSHleMPIIBGDcFHGrA7ClxysKNxPN4ISgWi3MpCD/+VX02E85tYLC8zCxlOT9nMUcaSn5IMGF0/OG03MleLxUiV+2FUWu4UghknGcpQKSg2ov3Yeq4rzDyDW+sHlmgNJz/aglkYYpRRUQKzI6eMgdrf8tW3fTHCXq+RCSqCmecdpK99RLmJXKY/9//+NN+07KfLLts2kZci0q7Act//Nle+blAdti8quLsuAArVq6y11R/zstR42O3HSKcHXDwWElwGwsWf73U7uZ5VYYhFIKI/lhp6PtkcKBxvFd2WpQY5z0EK4A0HqgmQhUk3vNFrRp4T3bpgLAqhjZwmj+XCGOtACOBOvr3OTuj6dafdLHBLyyMGmmjRglxjSocoF7Wc0xf7Tv9Id7fITwdEx4VdxYrBYgv8Kq7F/o+3lU1MhZ+9Y2dG+aIujo7rswl7NYCqPGimus/IszrxEwZW92hjZcn39jRgKDFM7yOM7Q/2KH+esn3iaLH/B6vTAitgINF2KR5osWAsIj2QYodBInGY5j+ovM/2hzKzJIXwrIXZ02y/YRxjvO/eiI0844fBC7sSC9cvCSqePH68HqZzzCDqCUqosrMEhk/DKnCuedkM6HEL1P6PJsMHveBRDiygQJ+UKNG8wB/ED/I3IoA9kXR1gBWrs7WZAiItt0r+qsys3xUhrmkR+NDfU7o+EumD8bD9XaFSfAilbImSNJ+TrUN4qWNCZMCjjGhHVA5h47QPp0qTcPapMwsebB2gRvVlipa+DgrGD/y8MOsthFrITumwKrVa+3V/5PuOgjNhpBJAZoBwSEOowAcciKUQgCrgBYe8Y4TgZsDh4HciAHohF2nu5obMeLKlBADauOkAQ8SlSpVn1NCD7VA/v2wIkcN0f8+mWcIRD8gNUTFGfslzRebXRx/+MvrjxvmmfNwvVBAFiQvYI8Loztx+iz7z+5PG7G1g6nxEuPeONyDL1RXITQVIOqSBVS//aCOtXjvd6Sz9PsfbXB2zYNg1Zq1RhnjQw7JlixrOOybAYzw0wGk0KhnYzfFMU0AanowGizyQfDdsh/NiTm2mt7vhY472vsY6j4ZHAQl6F/Y991nH8uoUEbgMmH8IVzYcWL3BPVWGBkk9DsL/H0fYm2bSDGBdOtPGvQR7IGBj8TzcevO/e3OJxoHRYTJBbAd9BLhvIMhDWpHvvnBP/aoAxCLMfPH51l3r9g9V0If4cmVFS6x6sAwYBD+qPt5gbHoHb+0sYUYTKE3LmqC6kEV7Qg/qAaE/32i50RlWvLdDzaJoDz5AEPpJbA1v0TjMUx/wW4aiDV++aZrROFCx/IYBRDZMN9eiNeHYQ4B3dnSeAjgGHvJgh+3BQrsb5OgLYFEOLKBAn7oq3isZrcUwQ/AGpEsBK19pOHto965Ptk+GA/XO7qsYdNPtQ1ipU87eNdKwjFPA5hNwNACqdI0/nWCtJj7dJ3g6EQc5SndwvdENEC662DQenmCaM28kCNkoQzsGKPejrPOdaJlghCqZY5mHt8dOAzkJgwwx/LvGNrc1Cp5vCw6eWPLiZTTD9hc7ghgx6dl49riDKO6PWoDO1SY283iHEXVgHdEvpomaoIwZx1aN7I2cqgb9xfbu8OFIFYHMhrWe+0zZJzBhmZwn1utahGOlrCrjcVoeuOmc68L2tTxgwOPRPIzEenkFS8uqoVVKl4qROwyq8IN0bdk6Q/mwUkjAqMVESLYy/xroJ9XrdHbyJVdbyY4JfD0OAwNkC4Ofln7qyZlr9iRsluk6pKoZrMbS3tCCKAGekuTepHyREWO86BMgjdIorp5w8a6T7X+qPVgkw2xz7hTYGcIG1fsrWFolWFZKgw+zpcUUL1GVTlI3VbDZPpKOXEmhaoyDlHYfWBX+RLZgUN9HmdvQLyxmmyZ0OjQfAb1yjYH8KbhJ6K939K5L5JDjL/+5LTtkpEiBTKzGjDeeAzTX3R3Xu2nNV3vtWCO6jVHEPkBm/QgkxR/OH3W9WbVL9Hjn917ZRw1bKau8XAUKw9U3HF+x07gTbWvsQwNfRIHhTsSdlUfTKdOYea2VNogVpkwO2DuVgePhFspQjjg2GOONAdtyBZmp0rT6OkNNsGcH9b8ElWyTabue+Bxy8ySPs6ZYKbZta/RoJ03StR9MutgVMScB4T/fsBuV49o5BtONWFomRtxSgVcLo4PHTgM5EYMQOfx/58uV24spStTnsIA3hyRLsJ0ICXHkx//EOUQ9jvq7E7UYVDXZdcDgggvpdg/vZFDqCoS8YqcaaBOs+QYE1T9sBeEeB92W0ebzfsfZ6sOaZ7e/GG2UGvCpg6mDq+UECCc8bmjoViOWjLeIrWNuC5b/pMQ/R9HHLMkUw5v3cLE40xDHMGwu8AOHrae2J2h2oi9XhAQDkJV1UQJg0dXbIq8gNMywqn6Jd/eFlUuL6SLA/qb7vaRrjJFqHYqwNBSjsE5TlqurhTf/qi5OPLq1n+URreEFirM3jTD1C2SQJybVOuPE69KNzQVocvdUanj6ZvdtyJiuw1AsKPCO+2hJ6PGPfMAUOKs/3aqZSmy77xn2NoXGfyBGKNvPfX8a5ZwJGl1cDJ24gy7Y4aNYyYBVVDaD0ZSxxnz4nOvvGV+WrEqZlaEB2D+k4Wzip1io6Amq3lyRY3xi0XZ6shBaSYaj2H6i87/qCrCJCigYtuh11Br38kcya7YMy+9GRUGIQcCobOlz4QFBICsN8+/MsfaT2m8N8S7/o6ARDgiT20773ntMDBA6yZ1rKdsxgb2r2gq7GhItQ8GlSuobkHhUn0XZm4L1QZJzifviLmBAmrGL0r/xTyDdtI+nSpNw9rknddYu1gTdDwtFRMlxsPN9a6zGgAIujAViAe7Zka6AABAAElEQVRh18FYaXBChTLthKEvMj+c4zktACE9KsacbsB8hRp/qlolscrh3jsMZBIDCNvdDm0mMboT08LbMf+5DTq3a2J6Dxojjg/G2N0qUQQwHDMAMZnJHRBvvbG7wnvg7+v/sOfnfizeKlH3q3t91UgwFhAcHeCNmJ0kdYkfCZDiDTtVTwqRTNptm9W3rvlZBACvQ4eg/Fkw8HxJeVhAsMP1qh6lWKSE0ZAC45xo3OSZ1jsotoEscCPHT7XH8VRO0vFDUN0SFeI3IeZUpYmjDLDt5BgBdrWCHAmRHsKC44VB6iPehPGMfbQIAZ56/nWrDuXNT23LOok35htFnRTPlcpIabh0cUB/xrkHatKoPtLHOVf1Yo89M7bL5IPNJm3MfTzA5hsm/w6xK8ax2itvzrVEr9duPUzd4uWh31KtP3aP9J3ZcixX78F7W+aQHTGcHEGgezUz+nVtY+o072Ru6XK7PQ4KQQXOn/CWfcmF2faJlOfUk7I9Jo+ZONNgr57MPMGY79pvlKku7RDPllrtISmjOuZB9RY8w0zdVOuapHfPFZexrjh1wplKm64DrQ0lDNhTsiOMd1ocaKlavz8+u0UQ1M+89Iao0x4tXrNL2PnBHy7ombFEPyRPHLygxosjHfDOcWWxcJt4PB4aas7geBXGBUdaQQSv//NPM2zMFDuvsLME4P2YML0GjZW+gLnIWvGmPtvW+SpRA08GbhHP83i4Z72hX+EUKVWHUInyTYyjbHVS0kGQQ70Qap0jjvqAcZMftKqcaDjgfG9nQKp9MKhsaibgrZt3ZzMoTjLvwsxtYdog2fmkr2hKYTbEGozGBrTDcDnyTCEdmgZV3W79RouwtpJV36Wfs8ap1gomKDjxYv3ANAIfHJzQEA/CroPx0rhVBEx4Xf9HmID7RTMKFX0cYnmBOZUTFADVPPJ+d/cOA7kFA9YhlLOhzS3NkfvLoaqbQSX12vCw27hp42bL4N3ae6gNDvE8YeRtMpFnOx0KSiPonT9P/7PG4dxViOXx9z5opZ+8h5hqJwSdAgv75wv/Z+68536rfog3y0SgjqDihcOuDnXjUXdNs0QaYVkcOIYHBzYKQfn37tRSjtgZYdWTCQeecB4C0615x6oz4TUM9wr6Tq/63n/tltXMHvUDEznlgdn2M44hOGMWz9CJIF++nG0kCRhUN398f3lw/tSk/g2WgMCrMwDTx7FLsQAnZOPkbFfsjnXR56xIjibBa7MCjCFn+dIfIOQJA4HSvscgs5fHwVA6OOjTubU99qZj72z7Xxim24SBQ6qvQNvBZFlmIoSjGs44xWYL4Qj/9CM8j+K1WyFM3eL1mUzUH7wdecTh1nMwzBmARsT4YX2iGdWTjzeMM+oC00F9YIYZr17AGQ3HkOCJmN22t5+bEdi3vXG0P2GXz3ErfmLMG5Z7dvKUeVXCmffYOsPQeoUGvA+DQy0D4QF/HI7buWtEHzNePEErYQgOurRtYqpUuiw7Uozfnh1bmO5yjA1n8NKXcazkT98bVdsVZ0yMkaFj7rXHcGkY8J4lx5LEgjDjMcx4wekNdrq0uc7/pc4929paa/kJwy7VjFnP2HOcKRP47yVnVDPGAQ1rH3w/Wldeo9UBg/iQ5IepCdCrYys7h9qHGD/+9P3P3mjazmFwRD/rKufgcpQYdtnFRKsEwRb22agdc241wDzPueV758xHmofm6y+P/5lwXjxoPP81TB8MSlvT8eYRVDfGvR+C0vOm4w+vz2HmtjBtEDSfBJWJfJkTcDyn6wm7pYw38lFIh6bBzGTO3I9MZzmqB2As9O1yS6Sfc6IA3ownz3hUs4v0FaWr/H0j7DoYSdB3w5FUzJs6JyEAGzO4x3ae21XFGJx4HdH5knOPDgO7HAOMlQULFpi9fvx5zbbjjj58lxcoNxcA9VDUCzdt2mS+X7HGnHfWyTuluB26DzC9u7RN2oEEkuHBo+42Y4fftlPKGSsTmEwWbFTedgag5rZG7D2OEtXnWJJjiC2cKHm9YmaqbKgIbhCGhJ2YWBCUPzuIqGUjIfYvXrHSyeT7n+XM1sMOPSTK62gq6QfVLUw6eIHFbtfLDCaKB+P3t5xPrB60g8LjFGWTON3welwNCse7VHGwWmwBcaYSSx1rnDAz9z/ylJnz7IzQDsrox9gjckZwLEIsmbrFqrP3far1p5yMpVj11zxQzT/wgPwxxyXhUM3DxlUdP2nceNfX5rxvzyF9+oG7IurO8cLvqm84f/lDvPJCHMZq06CygV/GRqz5LCiOvqMfrRRPqcdKnsnY7IYZj2H6C+nQlvH6BmEOlZ3ydOdj1mjWPQQtydRVcZXsNRGOwD1z1KGH/Lf2McevkPN50SyJh5NkyxI2fKp90J9+UN38YdJ5Dju3JWqDZOYT1m68ZjNW4kFYmoayVandwvSXI4EQamJLS5urwMafB1ou2Kri4CyZ/htmHfTnpc8cKcbRgkFO4giDNgt23jjYxEeJg7yBgQWLlpoTCh1l8ufPb/tSMutN3qjh9qWkjoeJMNGpHG+Pm1zzpl6t6pYx9drqhSkcEyJxdzXEUh3dUeWC6Eu0IMVaUDJRJtQxvUdRBKUZlH88BjgojUy/4zzcTEBQ3cKk6z8qJUwcv0fOoDgIB8Iws8RNFQfYPgcBqo/YlMLMcoB9mPJqOvRjbLfiQTJ1i5eOfku1/mGFVd6jnzRP/zUZgYbG/UaciKHZoLa7+j63XSFmU2FiwuI3qL70I5xfJQthxmOY/hImnTBhwpQfggaB4M6CROUG915mlnKhzYOX3l0FqfZBf3mD6uYPk85z2LktURskM5+EWbupU6o0TSK6BMFPMoI8xW8y64rG0WssYTCCgGU/rLBnRxO2epXyGsVdHQZyJQYQsu0j86tjaHNl82QX6uLSJcUmr2QuLqErmsOAw0AQBrJ6DrG2vajk7UyPvkFl2Z3f/SkaF6jjOnAYcBhwGHAYSB8Dc+d9Jn4JRtqEeooZQBjhVfq5uhQcBlLHAJoGBQsWdCrHYVC4q1SOw5TNhXEYcBjIfRjAu20+mWRPOr5IUipkua8mrkQOAw4DDgMOA8lggB0jvBUfX7hgXBOkZNLcWWFxtIeTRo4AS6QptLPK5PIJj4E9VeW4UKGCboc2fDdxIR0GHAYcBsJhIJYH23CxXSiHAYcBhwGHgbyKAdSyvacc5KV6oCrvdZyXl8ruyrpnYgAvx7/99ps7h3bPbH5Xa4cBhwGHAYcBhwGHAYcBhwGHAYcBh4G8jYH27ds7hjZvN6ErvcOAw4DDgMOAw4DDgMOAw4DDgMOAw8CehwEc4ZYrV84xtHte07saOww4DDgMOAw4DDgMOAw4DDgMOAw4DORtDHDcH5Avb1fDld5hwGHAYcBhwGHAYcBhwGHAYcBhwGHAYWBPxABHtzmGdk9seVdnhwGHAYcBhwGHAYcBhwGHAYcBhwGHgTyMAY7tAdw5tHm4EV3Rd18MfPDRfPPw7GfN1q3/JFVJbAnq1aruzi9OCmsusMOAw4DDgMOAw4DDgMOAw0BewwAqxxyv6hjavNZyrrx7BAZgZnt3aWuOOfrIpOq7+pe1ZvCou9NiaDdt3mwWfvWt+XPDX6Zk8TPNIQcfmFQZdqfADhe7U2u6ujgMJI+BLX//bTZu3GQ4ziRd2F3mk/V/bDD77bePyb///umixMV3GMgoBlzfzCg680RiqBsDTuU4lzZX6863m059RwTu0P3x5wZzU6tu5oVX386lpQ8uFnV6cPZzwR938NuX33jPtOs+yFxWraFpeEsPc+/M2YbDz/3w9TffmZHjp5orb2hmKO/sZ14xEDSJ4Ld1622bvPvBp4mChvrOzmyyzCwJEyfsru6Klattmd95/5NImahHvRZdTcuOt5lOfYaZ5T/9HPm2p904XOxpLZ676vvhJ5/b8bl6za+5q2B7WGnadRtkKl7XxKz9dV1aNU9nPuly20hz74zHbP661njn7VQLNmfux7aPwQSEhQ1/bTQVajQ2N7ftFTZKrg23M2kS6DXotmRwvTMQ9+u6383QOyeb6xtlWbqnx4A7zKKvv90ua+gg6CFwBn0EnQS9FAamPfSk6dBraJigaYUJ6ps7auykVVAXOaMY4BzafPnyOYY2o1jNYGILv1pi5rw3z0x76IntUmV7/atvlprffl+/3bfc/II6rVq9ZqcXkcm016A7LaPX9KYbzEnHFzYTpz1iBt8xKaosa9b+Zprfept5490PzQ3XXGkHyNAxk83UB6PbAGa4VMVaUXG3CnNs20QWhx0JOHPr98pf5qh+v5rXv0nMaMcry6bNW2yZ13n60TsffGJ++HGF6dWxlXn2oQnmrDNOiZfEbv1tZ+AiqC/t1kh1lQuNAQSXzCmbZZzGAtd/YmEm8fuwuCtf9kJzZflLzMEHpaepks588u33y82PP6+yldK1xjtvJ65tcIj16//I7mNbYvcxf8wCBfKb6pUrmCvKXez/lOeedyZNAr1mx3MSuN7RCEVIU6dpJ/PCa++Y8mVLmxuvq2KZ2Ya3dDdLlv4QlT10EPTQEYcdaqpeebl55qU3Lb3kFfQgTIc2mv7wU1FxfxGh3CKh/3Y0BPXNHTV2dnRdXPrJY8CpHCePs50aY+L0WaZM6fPMOWeeFjrff0WXPF/OFnzoSAEBw6QTFAZddlUBCEg28ipMuKD0Iwnk3CCd+Uf+991n++7MBMtEzOI7vF/nSLlQH3vo8edMpzY3m4MOPMCmNGzsFHudftcQc2yOqu+IcfdZyTiTfbHTTvZnHfOZugFh8BAzEd+HDVu2mfPuXGe2bDVm7V//mj/lOdOwSlSWgRpXVzTY42YKwrRjOnmFSZ++wLDYe+//6hWvnRLhIkye1GnLlr/Nvvvuk3JfCJuPH39hxhdxUk3fn1+yz5nMN94c4C9XmHzDhAmLX3/+Qc9h8guKF+bdjko7TLpBYcLgLShemLoGhUk3rfq1qpn6plpQ0vZd2PQTzScxM9gBH8KWOSgctEX/7m1jlipU++bsqMRMJMaHoPL4g4YJ44+jz2HKrmF3xTVM+QgDhKE9Xn/7A8MO7UOTRpozTjvJxru+WiVTuXYL8/Kb75lTTz7evoMRR0OgSf0bTLvm9e27ujdcba6pd4swufeaUQO62ndhf9Jpo3h5JOqb8eK6b3kXA+zO0u+dynEubsNLLy5lVUh7DRpjNm7anLCks595WVRF+5nSV9Q2TbP6mIcff942MhGff3WOVRPxq5K8N2++fT933mc2fWx87prykKndpKNNB/XcDz5eEMkbaRzqJi+KRA9VDvIi7FvvfWRQYUWt5AJ517xDX/OKTIh+YHf5nqmP2DTKXdPI3DZ0vPlu2Y/+YFa1Rety7U1tzaNPvRSlIkz97r7vYQPDeXn1xqbf0Lu2S4MXW//ZasYO7Wm6tm8WNcGfcmJRG16l3H9v3WrelJ3Z2jUqR5hZArRoVNuGe+/D+faKug27uwB4oBxeoJ0GjJxgqBv//YffbcBpJuBv0ZCuWXw/s6TH4Sb/Ptk2A5lIV9OgHbVuV9/Y0oD3IEjUl7S/gIvx9z4Y6Uuo0PtVsulr9DEvaB9DTTwWgPd7ps0SDYYnbTtcLrjuNXBMlAqUpvOsSJKzegwxF11Vxzz94hs2yeU/rbQ79FfVbG7bibItW74ikl08XKAK2q3/KNv3rerVXVOj1Mjefv9jWyZV5ytTpZ757oefImnrTby+FAZ3mo5etb6Mu37D77L1urpOKztG1v3+hwaz1y8W/c+06TrQStMZw4xXdiuAsO1rA+f8wFCCM9rAD9STvBS8+EPNbeykmdZeW79rPSC2vEBfqdu8c+RV2DmACPHqy3dts08WLLKmCeCEsj3+7Kt8tqDlAr/MW4xv2p85yGu+ELZPJyqT5hvrGq//JEqbeYm+QZ0UGCfUR9cCfe+9omHD/IbphuLIa/qiOEp1fYi3hlGOMLgN05bxcOetb1CeOveww8scCR469h5m0PCJBbHmEy2rX3OJPEbKvJJJYA6gr9LulJk+vEFsg/0QZu6hfHfec7+Nqm2eaFwQ+LU579u5oHSlGy3uUJsmLQT38eCJ5161Y59yE37Wky9uFzxR39kuQs6LeDRJMvNarPRjvQ/T9sngNtGaFlSOC88vbqaOHxxhZglz1JGHmwMKFDDsqioo/dOgdnV9ZQoee7RpXPc6SzdBPzFvVKhxs/0+/t4H7FxCHb3A+s96Tzuifu2nB7xhWauZj6iXAvMK75irFPjOO9YtwNs3NYy77t4Y2LbtX0vfO4Y2F7fzYYcebAb1zDI/iaoRRF88mPnos1ZSduABBUznNk3MUUccZkbdPc1MkUUXuPiC86wkzs8kvCQTBBK688890zB59xk8zqo5X1iquE2HuG27DTTzP1/Mrd3NIXyfIWPN/vvvZ9q3aGA2iwpN577DTTMhitn9ymrZ0Py+/k/Tc+Cd29liPPLkC4bFqXaNKqZ+zWrm/Y8+M20kfdJUeGj289mqLYcfarpnNTdnnn6KGT5uirn/kac1iMGOaOqDj5v3hdlmUq18xaWRb94bnFacX+Isc7RM0grEfUyY/+OLFDJFCh1nX/+88hd7LXXe2RrMXg8/7BBTuOCxEWannpSZyR7IatnAeCd43lHONWvXmbYixcSh0rMvv2mJCL6lC4cV2MsMq3qg2fe/DcZ0k4yK37xhrai6tb65TtR3fbi41Llx+9J5xYtZAr/34LGievSkOfecM8ytrRrZBbJDryEGhkbhL7HHWrkqG/f6Dukt/WFLHNUs2vAhscfm/zqRKDeqc62Z/+ViqwL1c056mk7/EXdbO+hbWze2KtTEpU+/++GnVsWK/vPFwq9Ng9bdpd9mM36xcJHNKAwwq3/51XS8pbGoXpUzjzzxgsHuSCXj7MhSfmyQTzv5BKsFcPihh2j1ItdYfQnmKAzuIgnl3Gh9B46aaBn7Fo1qmYqXXmRmPfWiCJ9GRGzBvxfm+uZ2vYTJ/tG0alxHJO43mZ9EGAWRjw1SmPb1542EtEzpc0Wq/64dm/odIcFH878wEE7Agi+/EoJ2gMxpq+08wfsZs54WAcFoA1EEaD3oG17g2cuAhZ0DEtWXPLTNsB0/oWghixPaYcidkyICPS0X8xrqwG2a1rVhwe/E6Y9GihqmT4cpUyTBGDex+k+YtJs1qCl9eK25e+rDNnXs+kaITRy7NLRjECCYa9d9sBUKXVulgp2bmR/7Dh1n25U4iqNU1odEaxjph8FtmLaMhTvy8IM/T/rdlJmPmdeFOatz/dWmyhWXWYFIxz7D/VEjz7HmEy3rlr+z+75GIA+c8mUKsH9kDqCvMid0aNXQ/O/b78UO8r6oLMLOPZRvXc5cqW2eaFzAvHS/fbRtQ+bOMheca27tPdT2nfVCL8QCBCaYB51QtLC5vUd7U+zUk6Sv3hclMA/Td2KlH48mCTuvxUo73vswbR8Wt7RHojUtqCwnivnVuWefEfUJRvKvjRvNpRefH3nPPH7WGacaaFIvqEkS9NMpJxaRNbGR/YxaMvSRbhzwkjXxdlmLy5UpZZo3qGXnH+gBryDZm/Z55xSzcT785L8NlTlzP7LvEBYr8J20zymWrcXo7Zsaxl13bwzstVc+M3/+fOflOLc3MwxWozo1LNF3mUwEZS8suV2RIfLGTLzfVBO7hgE929vvqEmhCoLkE6IbpqxcmQvEkdQcWcwaWPtQJLEvvPa2qVX9Kuut8M1351lp29ghvSKT2fXXVDL1W3aV3dCHzJSx/+2yXC52RYN7d7B5FRd16Jad+pmiwhzeMbCbfQdT07R9b/Pl4m+2s8OcOLqfOeWkbFWWipddZOq36moefOw5YY5vMmt/+92MnjDNMqlMiAB2HQNG5rdlqHtDVWG68tv3MJb33z00tBfex55+2Tz1wuvWjgVmdlCvLJsOP8tXZEsBjxQm2g/HFykY2WG7/JILTKO6NexOZnUh6vxQumRxM2ZID4vfukLsII3MhPMOfz474rlyxbLmB3ECxS5tUN00zyNFWJKoL73xzofWBrxft7YG4heA+GvUpocITcaaV5+IJqQ07WSuLLoTRvY1xc863UaDsLyuYTszXXZte3ZsGUkKTYc7B0ub5Kjhj757umW6Zt032hQ67hgb7sryZcwNjbOsJgC78rFwMWDkPcKgFzMTR/UTL5/72rinnXKi6TdsvPnks4XmgpLnRPJFsNNY+kosiNWXWKyxn08Vd/lF0DT5zttlXBxksy4hBAs25G++M8/WC6FT05tqmuurXRGpP0xc134jzddLvrMCoETtG1Qn8I/TtzmirXGdpA28+tb79lolR+DUf8QEK0hiLimQf3/7rdS5Z1nhFzs8zGHJQJg5IEx9Nc82TesZmD3gqgplZRepjZn36RciEPyPybtIBDqjB3W3/Yn5qGrd1rI7Md+0bVZPk0l4TaZMsRKL1X/CpF208HGWqUFQWlP8Bbz0+ruWiO0l4yaWqiIq+zWqVjSnytyt+GD+Rj3xo/kL7bjQsia7PoRdwzT9MNd4bRkLd2HSJQz9bvKdAyJrD8Ldp2VtQTAQ5BU+1nwSNr90wzEfz/9isRnSp6OdA0jvuqpXmJqNO1hmQNNPZ+5JNC4Gi3AIAR9zk86dMKms9/FANX6G9OlgBebXXHW5Of3UE+0OIfEy0Xfi0SRh5rV45c/Et0S4xawKRi7emhavHAgy0TJAWw7m8GYR8mI7roCG0dFHHaGPkauaZkE/QZteW6WiFT7cJDu5QTTEsNs6Gd00KFniTMuELxBhMuuPH3gH3crucK1rK1shOfc4vkSbDgEoZmbviKCEcEFp+NN0z7snBvLl28uMHDnSqRznheZlp+zkE4qa/sPuMn7VQcr/lRChQEPZpfKC7h4u/t9S+5oJhslq/hdf2ef3ZIcKuLpSOXuF+QQOlmNamGT4R4p7hiweLIa6A0WYSzxSfLW9KHvRfxK9EjlMxu9/REtemZiVmSUd4sIEqrojthrAyaISrGXgWrRwQft++Y8/2ys/ZS8qGUg8RAL4biDw2ZFl8kM97GNhQFRVEGINyDE/iYrJLu/fITwdEwlGAKmuAgQfOGfB2J2gmhAVQX0J4QmwUPoSRF/1yuXtMz8QMTfVusbGi6eeF4mQ4AabZmVmCQqRjvMW+osXLhOGVplZ3rNjCNP3i/QB7WPsNtAvvl7yvTdq1D07JkuXLTfHS19cLP1U47JLBeB8wguXSv9MBdLFHeNcmVnyh5imLdTcADzBfB15+GF2fEPEoikBrFq91l4Tta8N5PtBWo+gCCGZAmpgjPnjjjnK7mricKyeMIHKzBIOxhGJ/sLFSzRa6GuYOSBMfTXDS4QoUyhc8Bg7737vUUXn26Uyz2l/gvm78vIyVkim8cJckylTmPS8YcKmXb/mNZbBYGcNfwLdxCxDBTze9PQeXwOsKaVFaPODzMMwGqgAAitXR2tZJLs+hF3DtCxhrmHaMkw6QWEuEEGzl3EtJ3MMsGLlqqDgu/zd4q+X2jmAuUCBOcLPdKQz98QbF9AtaASgmaXMLOWoXqW8Fifm9XwReAFonjDnstsMM65zf7p9JxFNkmhei1nwDH6Ih1uySXVN0yIyjzH2lSlcKF6O0fRQgP7ZJhp8fkCQAyj95P/uf4aJVVDGNtYOLeFYz1FbxjEe6xdC7M5tbrZJsF6gNfKuOLIknIM9FwP//itn0IpwY3svOnsuTnJtzZk02E1kJ5Nd1x4dmkeVdel32YS0nxgpdNzRNpzaqCJBg7BlJ4RdEaTySLtKiEoosOS7H+yVndUgQM1OYf/9sicyfebqdSIUS8qvZfLGO0F2QPGyByz9Ptuelh2vIFi1Zm3E3kMn06BwQe9YzHVBv++Bx824yTOtsy1wUUSIV2CV2IidefrJUdFh3FDNCQMHH5TtYErDogIOeIUB+i0vX2ES/X0JhpDdQOAb8ZAIzvz9QFW8WSyx1UkHYDj8QPqvvjU3Ct/75+ykEhYVrm+WLrPRgvq57v770+VZF17UyPn3w4octXV9v1/AGNFv8a7p4g7m0Q+0hc4Df4ndHLZ03jrAUHohUft6w3rv2fVl1w8HOOtkxwAGtmWOHbrir3ChY71R7D1CLoRnyUKYOSBMfTVfdRCnz4xfPyHnH+MFZE5NFpIp045Km/kaVVjUQBnLta69Km5WzGF4L2U3CMISYP0IgmTXh7BrWFBesd6FactYcRO9P+SQbO0HDYd3VQDCKjcCYz9oDfOvx+nMPfHGxY85GlDHHRs9N+E5mr4XD9DuwMRj0v2zInMWphJoodHG6fYdPw4oi5cm4TnevMb3HQ3xcJvOmqblZt1TR1/4QsH8BLVudtMB+s63OXSmxuGqGyxKP3m/+e9ZY7zC/ogTz6BdhJzIqCdjtvSZmKp8LsIM5hscfHLFdAlzN4BwDvZcDLA2FSxY0DG0eaULsJOJCqNlwoqdGlVsJRDZ9VIGigBrchx+wGgAEH/smD378luWyERto3WTupHdhiI54V5/cpoN7/1BWxOJLrta6QALkx+w3zvtlBPsa11ccFRwguz2+ME/sfu/+5+R7EE8Ik1HFU+BnYYJYj/2tthkwNAqDpfKwl/+0v9UbVDLxu5PnUNp/D39Sl9iNxb7JhgW+tItTepFGNiiRY6zu/p+POmZmgVzVH35zvFBTEjK/KqjLn9c//PPq9b4XxnsZ9kl1LT8AdhZ4zvM8KBeHfyfo4Qy/o/KKGI3zg6BH/Ln317I4w8T5jkZ3AWlp95Uvd8QIJSocrp9hTAHZpZ6VJC+zvzADluNBu0iURK1bySg76ay7LbC0GK+oPaul4uHcEDb3OtsRKNDRKm6tkw1FpRY0TCYI6QCYeqbSrrx4iTq0zuyTGHTxmfCQ+I4EIBBZSz7d+y8dZwru/h3TXnQVBWNnptqX2OJXLRXcMiSLuj8m2gNI59EuE23LLsivvdoJhiUTGiweOtRRIRIaFn5wT+Hpjv3+NPXZ8x2gBViO++F9aLBpcIR73vvPX2sZePapsGN1e3RLwgsYW43y+5cezFLSqbveNPV+0Q0CeHizWuaTqLr3zl20l6mjjjptn06a9rv6/+wdJFX+MPGCHQi5mowrNjNwtCCd3ZEaQ8F1erTNtD3mbpyugcCD5jXj+Z/aSqIGjRrO1d8YFAevidzCkimyubSyT0YoE+sWbPGqRznniZJXJIGQkRgvzdm0oyowMWE2QW83ia9z6oSzLurK11mF5DBcpC2ffY4Uzqr2Cn23XKxo2QS03/UEb9Y9I39lu7Pe/M+FeL5P0YEyS3pn5PDpGtdPhO1aM2f67LlP4kt6scRxzFhy4GaSqUbmoojqteiomArCuiuNpM0Tg/wmus9+FxxWuKs7J1H4uwlfwCTabIAsZIp9WMxG9ilAEMLMRLpS5UujZTnbMEl39T+iQ/UHUaKBUgFF4WEsSScLoyEe9vj8IHnWLDo6yWRXUfCQAQSt8TZ2YxbrHglxb6bA+ER0mgfQ+Dx3CtvmZ9WrIoVzWA7jJQZwpDwGhdbHvqJt9/ETMT3IagvhcWdL6nII/Zy3r4JMQCOdWwtFdVoJNw317vOqpixU+dX0yaxeO0bycx3c6zsDqPChxdK8MnxT7rrjX06+XJ+oar6Ex2BEY7vqDegKtx4TlcAt9ippgJh65tK2kFxwvTpTJUpqP+ETfvJ51+3uOc4M0wlcAqlQoigeqkKYusmdewRZsyZzN9osKQL2jd1vtX09FnXsDC41biJrkG4SxQn09/xFAtw2oDCAln7GK+ZBLSOSNPrkI85grnCC+nOPd60vPcIwxGczXz0mShnVypQ8Yb132O2gDNL5hGEXvhHwBb3DRGaAWH7jj9dfU5EkxAu3rym6XivnOSAN2kvs4o5FWvfETkmKpls+1TXtO6332Gub9g+4jBQ67BEdmMpq24gKP2Dw04FnKXhkwS6SZlc1lSAjYBMAJsQ+LdgPWG9VzMCrjw/J5szfPduVmQiX5dGXsPANtEIW+d2aPNSszFoB/RoF7WTQvlhyjCan/LAbLFl2GpKljjLfPnVN/bcMJysnHxCkUg1kWSxsOB0Bi+8qgJKAKRe2CVyxAYOmlAD/PTzRdZJUA3ZkfJ6vYskmMLNrXK0D55lOTv2flFhY+KsKY6pAMqGkyp2opkwsbOAAR4pxBYqqrG8GccqBh522ZEbNvZew+7g2WLnh2roPeL4iHx194j4/bq2MXWadzK3dLldynOldVCFgyScQlxy4XmRLE49qai9HzNxprWnSwYvncUTJjYhT828y9p8RhJN8mbj0GBVvySTSSs4dtLevsS9Arvc9KWu/UaJFkAdGw4JL8KLvl1uieygqofFToKXG8VpFEypErGaVrwrx+00rX+92VfUinEsBtFW/4Zq8aLI7lJ166yIfs5OPf2Khfml198xA8WruBLPQYl0btfE9JZjtDhKi7G1Tf4miYdbiJVk+oGmHdSXwuJO0/BfUfPt1m+0uUEcurFbi6dzxoBqHqAWTh+k3GgnYPuLepkf4rWvP6z3Gek+Xm4Bv5MnvF3joKrXoLEyrlAlzC4fPgKuqnCJjcM8V/bC84XI/9QeDYaDOe/xOTZQEj9h65tEknGDhunTmSpTUP8JkzZzIR6cwXOly8tYx33V67exTO3wfp0C66e7IOMmP2hVMPFkj7PATEDYNSwMbsOWJwh3YeNmKtwpspawDrHeMRYOE2Znhsebf9h8OIIH3xdd2zUNjMLYP16EtTjkQ80cBz9PiUCDucIL6c493rT89zi5w4t47aYdxZP2eXa3Vn1n+MN6n7GVxDszu4nQMh8vWGjNRupeX9UGC9t3vGn67+PRJBo23rymYfTKWIEeY/279uoK5ptvl9kdzuqVK0TWvky1PXmmuqZx5izzcbOsvtZp435yXjpCjtfmzLWOoZRRhP6BDmK843yKNZLTKhBE3jGwu1bbMpbM5c+89IYVWl9cqoQVBkQCpHCDsE2P2zs/xwZXrwjT+O5gz8YAph7t27d3DG1e6wYwoLcJ48VZgOqYhDp0a9/Uqkuy+zH9kWwmEcawi7z3ql9yzySG6ti1snvihQPEXmzc0F7WTpfjZxRIJ6tVQ/vozVO/6zu96vugKx6bYSiV4IXpGSMeaNUZAXG6ZTWz6tFMmCwKAI6jendqZfbbd1/7HPYH9R48IVMfjldRyTe7SL06trDOajQtDhEf0b+L9dTKMQEQGtSdI3i8gHSQhemxp18yz78yx7z93IyotvCG1XvFTYH82bZWu4NNLX0JFUWYfnbivIA0nb7E7u0dE6bbTzC8nAfsVdfFsQdHM3FeLekUP/N0w45R+x6DzF4e51retPWeBRb7WI7lAVhI8dCtDKniXMPrlaME7hrRx4yf/ECkH9LWXdo2MVVEgyEeVKl4qdm0cbPtIxw5AVCvCSNvE6YxW63OO97ipcW3oL4UFnex0kb1m+MNOssxHUCpc8+2QgTs1QA88+LNePKMR+0zPxzdw5zgVYeL176RiAE3KiRiN9brBISg2LAzBmfMesYSTbzDC3WvW1vIbkB2+XjXr1sb01XO+kWVnV0lyowNP0elJAth6huvzbQfxupP/vKE6dPplknzDOo/YdLWMdktK5sBgingKBfUxd/9oHygcAYBh/YTCF4AgdArIqjaO2esBuFI3+lVy+6/hlnDwuA2TFuSdxDuguIGvfOXXZ/xtpkMsLM1flhvc5v4jOD4GOYS+j5nrOsOsj89Px5ZS9jFZK2KBYwt5uOBo+6JCK+Yazniz+tlOJW5x1+eWGVAeDZ13CDzovju4PgzTIqmjh9k2nQZECuKfc/6i7kBa4Su36w37UTorhCm72hY/zUMTUKcePOaP01OpNB1DcEcgOOiHrf+5/8kTNuHxW2qaxrz8b7CxIJb9VvCvM1c0PDGa6Oq1V3osoOERkT4SzugLQi9BN3khZ5CV3WXY9igUcEBp1TEG0M6v3rT8N7rkW/QbNCoAFeeObJHv3vjxLoPi89Y8d373IkB6Jby5cubvX78ec22445OzzlL7qxi5krFgoEXt02bNpnvV6wx5511cuYSz3BKqHXi2AgVmXQGLyqBK8XjKW7Zvc6eMlVcpHx7753P2uXGSxObyMPkDE+vV9R44eN9Azeo1HEmaKI6oeJ44AH546qyoLLFoexeu+V4+es3vDQmYsw7dB9gendpa1U0NV6YK1L+waPuNmOH3xYmeNphxglTeL8IUOY8O8M66AhKkPpii3NMgNt/DU/bbBJbZ12w9H2s6/WNsqxq8e3d24mq75/iHOLvqLOGY8Xzv8e++g+JzyIeb9H1x+MZIgtCHtXjdCFWXwqDO80b+/YqcoRKf9kJQdDA7iwEqpdR1LBcUX1nPMDMxBoPYdrXmyb3SM2xq8RxC7ZvsYDyHiqqiF6vp/6wtA8eqb2Mtj9M2Ocw9Q2bVphwYfp0psoU1H8ylba/rqjYYwvJLh/9K9MQZg0Lg9uw5QrCXdi4mQyHF3WvLWPYtHXcc0YrR9okAvLBnlNV+2OFT2buiZWG9z1txnmz3vkS23k0AxLNFaQDTYJfkKPE9EN3Dr3pcx+m7/jj6HMimiTsvKbp6ZV4zMERJ0j6wXNNte09SURuU13T0IhjbB96SPz1jHbY8Fe2X5JIpgE3rPmoLMdqq4Ao7lUGMLBg0VJzQqGjTH7ZPGFdT5auyUARdnoS8GgvvviC26Hd6ZjfwRnCxKptRjpZMQkFeZFNJ01v3ESLqYbNRF00LXBzdEjPut4jGTS+/6p2I/73iZ4TMbPEr1erumVMw7rD1zyZwIi7o2H5Tyut11+YWY5iiEeIUd94zCxlpW3CMrP+umGflSpAkKdKlAedWZxqOWL1pTC4i5WnnhEY6zuCmFjCmGTaV9OHMVj2wwozTbxSAtWrlLfXWD9hxmKqbROUZ7z6BoVP912YPp2pMgX1n0yl7ccDhLlXo8b/Pd3nMGtYGNyGLUcQ7sLGzWS4eHNovHywmQYuEvXOMBA2n3TmnqBy9B0yzu7MDulzq1Vx/0mEIpPvz9YS4SioRABNkmhOC9N3YuUTiyZJdl7zp+/3IO//znPYNgmK63+X6poWdv2lHcLQR17Bhb+M7tlhIJMYQOCNk8N9MpmoS8thwGEgMxi4uHRJw39uhayeQ6z9Fc45nAfo3NpKqZcrlfadO+8zsRkbaTPtKSrEmRRGpV4TF9NhYPfGAFoWqLOGERDtSkxw/jQ+ORq37RlVjCb1b0joyC8qwk5+cPPaTka4y85hIAUMwNQ6leMQiMtLKschquOCOAykjQG8BOcTlfGTji8SU1017UziJID3atTQT/I4PIsTfI/4hCoY3oqPL1ww7TN+U2lfnLZ8v3yFnOl8rPUIvUcg3VXSYcBhIDQG8PrLHIWq8eHiMR7HXF5ngqET2okB3by2E5HtskobA3uiyjFIe/755xxDG6b3OIY2DJZcGIcBhwGHAYcBhwGHAYcBhwGHAYeBXYGBPZGhxU4YhjbfrkC4y9NhwGHAYcBhwGHAYcBhwGHAYcBhwGHAYcBhIB0MYEPrGNp0MOjiOgw4DDgMOAw4DDgMOAw4DDgMOAw4DDgM7HQMWGZWbGgdQ7vTUe8ydBhwGHAYcBhwGHAYcBhwGHAYcBhwGHAYSAcDOITCNNQxtOlg0cV1GHAYcBhwGHAYcBhwGHAYcBhwGHAYcBjYJRiAqXUM7S5BvcvUYcBhwGHAYcBhwGHAYcBhwGHAYcBhwGEgVQzYEx4WLHDn0KaKQBfPYcBhYM/BwAcfzTcPz37WbN36T1KV3mefvU29WtVz9ZnCSVXIBXYYcBhwGHAYcBhwGHAYyCUY2FuOkBw+fLhjaHNJe+SqYqCLvkYOa/cf1L78p5Xm2+9+sGdcnnPmabmqzMkW5rd1682i/31r9hY1hdIlzzF77713sknsEeFj9YU9ovKeSsLM9u7S1hxz9JGet4lvV/+y1gwedfcOZWi3/P232bhxkzn0kIMTFyhkiDVrfzNHHHGYySfu8B3kfQys/2OD2W+/fUz+/ffPk5XZk+ehvN52mehwbj76D4tBuPDTM/+Ix9dMrwn/lcDdOQzkNgzsZfbZZx+ncpxss+yO5B2T4U2tupl33v/EomPaQ0+aKrVbmLff/ziCnseeftlc17Cd6XzbCHPvzNmR93nx5otF/zPX3tTWZPUYbLr2G2X++effXFON9X/8aYaNnWKub5Rlrryhmblt6HiDIMELGzdtNr0HjzWXVWtoWnbst933+x952rTufLuB0UkW5sz92PYFiCggqC8km+buEJ6d2WSZWepNnLC7undNecjift6nX8RE2VoRNDFW23UfFAnTrtsgU/G6JoZvmYBPP19kKsv4HztxZiaSSzkN+l6HXkNTjr8rI9I+M2c9s9OKEDRus3oMsflv+GujqVCjsbm5ba+dVp5MZ+Sfh3jW+pFXl9tGmntnPJbpbDOaXipl3B3aLh4S/e0YFDa3zEdBZdvZ74JwEUTPZHpN0Hp6+7CfbtQwO+v6xHOv2rWQ9dD7D/3kBeYFaKnaTTqadz/41PvJsNYS97tlP0a9z8sP2/Jy4VMsO16OCxYs6BjaFPG3W0Xb+s8/5qtvlpp1v6+39Sp+1umm7IXnmxOKFLLPSMcn3/+oKXbayebx6WNN/25t83T9Yc7/2rjRTL9riHlixjjZudg3V9QH4qVZVl/z/CtzTLkyF5gbrrnSvP/RZ6Zp+97m51W/RMp4/yNPmXmffG76dWtjaLuhY+6NfPty8Tdm3OSZ5vpqlcx++yZfr/Xr/7B9YfOWLTZNf1+IZJTHbhDClKpYK+Ol/nLlP+a8O9eZihN/TzvtFT+vtrh/+PHnY6b1nPQNxurX33wXCVO+7IXmyvKXmIMPOjDyLp2bwgWPNZdeXMqULHFmOsmEjgvDT9tMf/ipqDi/rPnVLPpqSdS7vPJA+3jH7I4ut3/cgrvFooECFCiQ31SvXMFcUe7iHV2MHZa+fx7y1o9Mv/1+ufnx51U7LP9MJOwvY5g5aXdou3i487fjJwsW2blgwcKvI9F29nwUyTgX3gThIoieyfSaoKjw9mE/3ahhdtb1S1kbfvjxZ3Pu2WdE/Z960vGRInwodNLE6bPMLU3rmvOKFxMB6RCzZUu2oB+hfe9BY8w5xU41J51QJBLH3eRNDKxZs8apHOeFptMzljJR1n9xbZ1AjRAVXP4V2MH8dd3v5sbrrzYnHl9YX++Ua5jyJluQlavXmFLnnm0gkoIgbJ5MjPvuu4/ZKwE+w6b30fwvzdJly83E0f0j+K9RtaKpXr+NeeOdD81Nta6xxV38v6Xm8rKlTaXLy5g///zLjJ4w3b7ftHmz6SUTNMxN5Yplg6oW812sMvr7gjeBWHF2RBhvmvHuw5QpXvxkvk39aJNpNXuDOfGIfGbDlszJRdGMgBkqeOzRUcXB8cEjT74Q9Y6H+rWqmfqm2nbveZEIH0Hfj5Vd5bFDegamFyZNG4ZDzkWdP5MQVFZ/+pkIgwAPSDSut8s7ZJ0zUUbNO0xazPf9u8cXQiZKJwxOEqWhZU7lGm8eSiW9zZu3mP333y8qapjyhwkTlWiaD5lou6Ai0J5h+neY+oZJK0w6QeXkXUbmoxB0T6z89X2YOoTBBemFSSsoTBAuguiZdNaEsOVTvGTyGlTnWOkjAD7j1BNNt6xmsYKY/327zGpJsTnw/Q8/GXZ1l//0szlFmN5Rd021wr4OrRrGjO8+5A0M4Ktk3bp1boc2tzYXTOzUB5+w6hClK91ommb1MfM/X2xVJ96bN98WG8IXVYpVwqB5gbAjZbAq8H3AyAlWRbX0FbWtOusLr76tn7e7etMlXIUaN9swE6c9YvN75qU3zfOvzrH3i77O3gXQRCgbZfrg4wX6KnKlTqh99Bo4JvJOb1CRbdN1oD4aJGvd+o8yWt6xk2aaPzf8FfmOeiX5vP72B5F33KC2Wbd556h3+oA0jzifLFho/7kfMOoe/WxmP/OyVeElT3DITpkScgRSvKh6X5kq9cx3MkkGQbI4J418+fYytapfJcz2WZEkCx13jDnisEPtDoS+PPTgg8zqX361j7+s/dUcftgh9n78vQ9au5met7bQoHGv637/w4wYd5+5uk4ri2fUmzeILaYXtM7ePsaiAI4VT7OefNEbxd7PfuaVCC5pcz8uUZumvHwjnU59R2ynDkQb3HnP/VFpa3l+ksUM0Gck+6h5an95/NlXI/HoW/RdgDYn3UzABtnEnpd1qMm6tEAmkrNpHFAgO62nX3xjuzQ/kDGBTa6G0QD0+Ya39NBHA7EO3rRdO/Yett14/OyLr0zzDn0j+GJ80SaAf2yFwbFm/tqc9+04Zs5CrR8zBvCNlDwI5s77LDK/jL/3Ads+5OcF1MSoH22LephfbQxBDjjQvkRY//wTBieo9g++Y5K5qmZzU+6aRrZPLlu+wluUwHt/nf3l00jeOY1+yBytqv0ahvlWxxa71j0G3GFQ7fNCmHHrDc+9fyzxfM+0WdZ8hHYCt/QT7PO8EAYn8fqSNy3uWQMwp/CqBTLHUmfeQ9AqqOkF37UPeuchDRfmSv/APOOp51+346KS4F8hTLvEm/P840XTjbcWJTMnpdp2Wg6uWsZX3nzP9Bt+l+3fzA/M//QnLyQaT960WDMYK/Rn0kLo5oUw/VnDT77/MWmj2+wjWkmkSV6an3+t964x9OFHn3opKv8wY17zjncN0/aZwKuWwVsv/9rpxUU8esa/JpC2t59r2+ucz3faHfVcXTfAP+n425SwfkiGtvPHTTXfZT+uMIULHetPLur50EOgldaav7dujcxtB4kmExsE0LADe7Y3BxyQufU7KnP3sNMwwKZbu3btHEO70zCeZEYTpj5i7r7vIVO08HGmS9smVp0wq+cQu1OKsT/ADiE7p1v+3hqVOgSQMn9MFu26DzYQyNdWqWC6ZzW3DFDfoePMgi+/ioqnD9502cXseEsj+wnGKqtlA4NDqItLnWvzfvmN9zSavb702jv2PeodfmDHpkzpc83Lb74bRaRBNH40/wtz4fnFbRTK1abrAAPTktWyoX0/Y9bTwuCOthMTgSB8qPtfoqbrBZ6Z9IPgqCMPt+XXb9SlSsVL7ePMR5+1qrsHyuTWuU0Tc5Q4xBl19zQzxWMvrHjp1GeYOe3kE0ynNjebww/NZiY1Ta6p4Jx4qBn37NgyamdrydIfbD1PP+VEglioemU58968Ty0BD6OAejGL1SNPvGD692gXyjkQ9rVdxB561lMvmoqXXmSQUv7v2+/NyPH3aTb2qnXWPgaBAtF/QtHC5vYe7U2xU08yIyQOC7rCQ7OfF1xONiwc4LKILDoWlw88boOwQGIDPP3hJ82555xhbm3VyKB6hjoQ9VCgH68TFWgvaHlYQAF9hhA6oWgh0675TXYBHnLnpAhTU69mtQgTSJs3qF3dm2TK9+3L5jclC++TcvygiMcXKSg775eYBx97LtLXNdxsUZVnDFavXF5f2St9fqVHJX24tMcDjz1rql5xmRkgCzaLedtuAyO21jApzTr0MZtl/ujVsZW5ruoVhvE1ZuIMm55/bIXBMRFh5LrfPtqOyY63NDZlLjjX3Np7qJ1n1q//06bt/znlxCLbzS+nnFg0EowxfvuIu2VslDLNG9SyxAn9RBlN+kGfwePE1vsJc2Gp4ra/EZn6IgBUSIQT+hpx3v3wU3PjdVVM47rXmS9E7bFB6+7md18f1DS5IsDz15nyUW4vYOfGnIYgCtwwhhmvMKwqNGNsMS/juIm5hX766ltz7VjRtMKOWw2vV/9Y4nnKzMfM6yKAqCOaN1Wkr8A0duwzXKPYOToRThL1pUhiOTesAaj4YVahY3ipqAt/s3SZqA+uMEvkCvCNMIRlJ1H7oM5DOcmFvjBGEGSizXK11JV5AAjbLvHmPP940ULFW4uSmZNSaTstg161jANHTbTmCi0a1bLzPvM/64D6WwgznjStngPvNH/8ucG0EXVO5l7Smjj9Uc3ShOnPkcByU/aikqZyhez1+BqZ42ijAw8sELjW6xpzxOGHWprmzNNPMcPHTTH4j1BINOY1XLxrovVOcZEJvFIOrVestVPzo2/Fo2f8awIq3EpTsd6WE5MS2quD0JQKI8ZPtYLHEmedYXp0aCHzaQk7r84I4QsgLG2neXmvqeQLDQGj+ttv682g0ROtz5B7hGaGhvHCxbIGIQCu2biDndsuEroVR6D9ht1lbpY5/txztqdTvfHdfd7BQPny5Z3KcW5sLlRIINDYrYPBAereUNV0EmLDv3uRqPzYp6G2il0BgxuoeNlF1unLR/MXJhzQMNSoPrKg3yQEVnVhihVgwF4QKVeHVg0sE4a074XX3rbljuVNE8LpwdnPmTnvfWSuq3aFTerVt9631ypXZC9m/UdMMMeL/e6UsQNNgfzZXjnZtWQBhXGqduXlWoSkrgdgSyblf/blt6zdrNYFBnjMxPttujAAACo72KbCMEJ8YruiAJPduG4Nfdzumi7ONUEYY6TpMDHXepgY2vGhSSMNixQq4Ng212ycZfFe9sKSGj3uFQnl/C8WmyF9OkbUk2FsmPj9xLg3Id35GtKng/UMfc1Vl5vTTz0xoh4LLkdPmGZt9lTNEVz2HTLOvC0Op1o0rGXY4Z7z3jyxAW5rhSykD1HdqE0PYU7GmlefiGaqvfnHum/TtJ5p1qCm/XxVhbKyO9jGOnwAV5dfcoFpJO3FLq22eax0csP7WtdeZV6bM9eOEdTKgRUrV9uxTz3jMViEfUfwiw1s+xyivVK5MuZRYYZxbQ/gWATo0aG5OVsYBgDVLRWC2RcBP/FwTPDBIkRA0DP5ztsjdukIPugPseDYY46SPlAxcH7ROMNu62RKnXe2fcSuFyaLvg8RTV96890PRUW6l9T5fBvm+msqmfotu1qBIHMIkAgnaMPAOMy6b7RBKwK4snwZc4OMK3Z+WjSqbd/5f4aLAxJ/nYsULmjnE2/YASPvsXPtxFH9Irg5TYRU/YaNN598ttBcICYezLNNb6ppx4ja9WOnBuMLQ8e7VMettyx6D6E3+c4B5pCDs22vUcF9+oXX7a4x78LgJJW+hLkE68RXYmd81hmn2HGqWgcffvKFQXiHWQV+DgibSZgwsm+UqUmYdkk056VSvnTnpERtF6tM+aWNGZ+HiJYPUELsD3sNutO8+c48uw6EHU/EhTkYPai7NWGCPqlat7WZKwKets3q8TlUf7YBc36Yi2rK3IfAGxVRbCOBP8Ssxgtrf/vdzikInVQwgRBqwMj8dsxTFtb6RGPem2as+7Btnwm8hlk7veWMRc94w+j9IBFkQFPdK22vO5Ko3U4ToTIbB4WOO9pcIGZYZ8jYYy0GateobNDAw49Hk/rXa1Ixr2FoO39khHmp5PtLjiYJgn2YUujNKQ/Mtv9Txw2K0LXHHHWEmT19jK0DPibKlD7P2s0eJ+tOq5vr+IvjnvMoBpS2yaZw8mgldtdiq5SJSVoBKXVNYXCThYMOPMBK+rFBQkWFCfpF2UUFVq7+JdnkosJXE2YG5me+qC8C78nuBgADGAsgYJhYIWgUUP1gcWSSQeKLpL6eLErKzBIOJgXGbuHiJRotY9evlnxn02pY59qoNHUnD+LKC5eKJDkeZALnSCDZecIBEAS9LkKa7xmnnWR3ktjV9tqCoDKI+i14jAeLv15qJZdeW1uInEQM3/k56tBIpGEqkOzDCKs9suKS9vPCwF5ZZuY9w+yrheK4CoLMu9MIsY6NMP3Jr/boTSfW/SUeRr5wwWPMyScUNd+HUBeNld6ufA/zhgAFRkoBNX/g2qsr6quYV5j4dz/4xKqP4cRjX8FtwxurRxi183Kk0uxWQcDSV4ijzHOshOPhGLVFJOa1a1SJMGykU71K+VjJhX7vdU6ljK3u0OIEDThY0f0evAAAQABJREFUGDD6I//MnzDoCGx09zMRTtAQgSiFUNJ00A6gHb5e8r3Nw/+DR/KfxBFRrWsrR9W5hq+NEBRgG3+8MLqLZTxr+moqQBsBllkXZmCTqIyzc4j2yzdiAwas/S1b6yTVcWsT8f1cIP1MmVk+sWsDrFi5yl7D4CSVvnTh+SVs+qqNwS53ORE68a9riH7TsDZCmj/MOTpPkVTYdkk056VZrJSiJ2q7WIkyvyszSxjmf/CipkNhxxNxL73o/Ig/DuiTK0X4xnqlEKY/a9hkrprHyaLJoWOJa1EZX8ByoXOARGPeBkrwE7btM4HXMGtnguIGftZ+DqPqpSOgL1+cNUnmuGOsFgR0G2FWi7YUQranRLiFUH35ipWB6fpfJqLt/OF5pt+kki9HSj5x/zjzzIMTDAwsgiruoRF7yMaHF7A7hkbBKR7mIWwKDRaB/FbRXEIgt0rWLQd5GwOoHLPWZ1ZfLm/jJNeUftkP2XZbfqcwMHzJAo2M91Ck7Ui8gVSOHwnK9zIhgFgM2TVlB/Wl19+1BCBS33hwvezMYrPHRLJOdkVgYFvm7IAooRpkG4FEUZn9eOkn+23pd9kEpe7MaHykloDfpft+++2nQQKv6eKc+NgjsfOEWq8S8UGZqS0Ik/pckaSi/qjALi6MbxBQpyAHX1rnoDi8YxcdtclJ98+Sne5sJqtV4zp2RxtGXnEZ1H6a5jeiRk3eLGZeKFLoOPuI8wbUqZIB8vYCquPbctSSve/zwj2OYOoLc4/6N+1URLQkUEHG2Zf/bOig+rRrXt/iFu0C/hnvbZrUNQigUA1jZxNNBOyjUJ8HUPFDpReNjFgQD8c/5hA9xx0bPUchFWeOSBUgUCizwr5y1pwFGSPAEjkXG8DmLghg1iHg4+FEkGVVXmOlw05IECAgBPzzBkyit846pzFedMx401uxMluwSLiBYtMPI65A/b2Q6rj1pqH3h4h9mRfwqAv8++82q+aJGjAQhFvFSSp9CfwgwHxHhC71ala1uycDe2bZvFC5/ktMatDmIIyX4bYB0vhBYOGFsO2SaM7zprmz7uO1XbwyBNEQzMW6xoUZT5r+wQdFz7kFfOM8TH/WtJK5Lv3+Rxsc7YYgWLVmrV334o1575wSlIa+C9v2mcBrmLVTy5XMlfUUiDe38x1/B3eI7wXoMYA5DJoxGXoxHm1nEw34SSXfvffe265j3uRgzJvUv8Hu3q8SLUe0f7zATjTmK5glcQJE5dotIzRx3863RDQGvXHcfd7AgNKSjqHNhe1VMIeRguHzuhNnog4CnB8oYGPh3eGCyblryoOmaqVyojJ8jWUkUM/A4D9dQEUN6Rp2JjCkMGC3NKm3HaPiz6ey7LbC0L757ryIvauqlhXMUffDptIPqF2imgcoK6THy2hY1JGSBWW+wBuMkMKaHFtcr7qxfot3TRfnk+SIpNnPviLqVA0NKr2xABUlry0IjlVQ1cLmulWn/uYxcXLVp3PrwOjYtXoJZw3086o1eht4pe+0bFzbNJAdP45UwcYP5nazSHJRcS0kiwrAgnKQCCCCoGiR4wLzRjIMaB/gftOm//o2z6iF7glQtdJllqF98vnXrFoghAUmCGGAhRyGtUPrRtYOFHXj/rKQHy7MkarloraP/TheIFETROiFvfaDk0aEyWK7MNj+Anie9AK7mCpI877P1H2RHFOA15+ctl2SyEt0NyoRTtAagSAa1KvDdungQTEIlIhd9Uv0mOH4LW+dNVz7Fg3sToE/rfz5sxmtPqKWD/E5uM+t5vwSZ1mhDnOrl3BPddz680z0jFAlLE5S6UvlRZUYm0dUXYHSOf4TuEdI98Xi/1nbSJ53FIRtl0RzXibXoh1VV003aDeKPleiyuk2SJjxpOqemmasa5j+HCtuvPcqdJ06fnDkaEFveGW0E415b5xY94naXuNlAq9h1k7NL5mrboz8nCM4C4qLczr8HWC+dI+YRRQTQThzZ//hd5sPP/3Pr0VQXO+7eLSdN5zep5ovmmEbNmy0Ai+YW4UjxfcJgMaQl6HFNpx5tPiZp5tGook3bvIDViNw5sRhciTlY2bSjEcdQ6tIzINX2hch1X+i7zxYid21yGeIox3gJZ/DpVffnBtVZZ2o1OsxHxeI+q+XmFLpXOsmdexkxQTNbko8O8moTBI8wNCS3+A7J9uQV1fKtoONF42JBun7s6JG+dwrbxlU9FTif6Q4eUAiiIql17sejqJQ7zv7jFNt0qqu95bY4iowOUKcJwtM3gDEoxf0OdYupzes9z4dnKNmiqfBm+tdH9dOl11cnCFAlKktCDsqOOxC0ID6D7bYseDM00+27aaqfYRDvQhiMh6gHo4qJO2FcAEbb2wI3xDhBKC4fFF2672A0y0c4CBwoQ3pM2qfRDjes3uFVFgJFpgkbEkplw0jk9acuf+1t30Z8mevHBGIpqXREtmNaridfYWYqCFqUk+KV9YHBHcwF/F26rV8jAG8TqM6yFgqf+mForLe0X5+/+PP7BWVdJxAsQDQD7A9RhCCKl8qAiESpbwIfmY++kyULe5Dcc7UtYWRHxhPwOtxM/tN4t+zip1iA3EUw2GHHhz5x+7ri0XZ6shhcFJSnNhxdixl0XTYHWR++mlFtgquvzRoEbCD6nVwRJg3fJ7XIbIIhwCJNDV9nHUxx1A+xvOir5dYu10EDdh+wVR+LEd5eSHVcetNI+x9GJyk2pdwAATcIWrvENFoHvDP/diJM+w3DWMfdsBPmHYh20RzXqprUaw5aQdUNZIk87t3DmT+Zy7WeTvMeIokFucmbH/2J6FzwaYcj+v+7zxrWfGurWOJ67LlP8ku48fWCV6YMR+Utv9dorbX8JnAq9Yr3tqp+SVz1X6OmZeXpmL97dBrqHUWqBo2+LvAjIn5HF8gaiMfNr94tF1QGqnmi/C10g1NZR17JpIsfU7pl1NPjhamPyx+CJh/MX2CAeZYPOZS6GFoJcxlHOR9DLgd2lzYhkjhMbDHC6VQOtbuB2LUr652yklFLQMwbvJMOyAPk+NbZni8/FE1GBxg3OQHxRvuFeJQ5k/rOMG+zMBPCfGCDCGLk5+Sxc+092GSxX6yz5CxNqjfyRNe+HBU0WvQ2BwV17XW2zB2kVdVuMTGYVIqe+H51ttvl9tG2kOzvUe1hCmDhkFlEDs4nApgV1FSdke+/Ooby1hStpOTPHQ7VZxzLAG7FhC/lInjAhQK5M9vrpZdOwUcW2EL8vC9oyL2e0gfsYmkTd6XxQobp1gAo3P8Q09aJ0zNxVHT0UJAc6SFqhvFiocNM94Rfxf7QvDysXgOhZGue31VG4W+AC5xaobKL54SYa4mTH3Y1LnuakukkzeEa9d+owyCFuKw0wsT0rfLLZEdftTYsQVtcWs/a+vFArzgy69jFS3u+1NlrABjJs60eGGnknI1btszyvla3ERifMTbMf+ZhprCZOKkR3erVK0mXj4FCuwvTPBr1vFa22b1xdP0AVZwRBx2/YDfxE5ZVf4rlL3Q2hrT12CaYYLD7sDYxDw/OPnC23Ttph2t8w12axfKLn4iYCwztp956Q0rzLhY+oxXuh4vPuWnL3HkV/sWN9nzBSHCcACGQIB2DoMTHN7hnI50sJ2HWcWG7KXX35GjHbJiqu7fIh5ecZjH+c/M2Xj9xcGcHzq3a2KdkRCOOWWb/E0Sj7AIESgjbYuQD2/0zKPUn77vn/NTHbf+8oR5DoOTRH0pVj6Medoc22LmC4XLxJs1Aj2+EWZHQ6J2If9Ec16qa1HQnLSj68v83q3faBFgVbImP3jxZ9zTr4Aw4ylMGcP2Z39aagYzTdYmmAwE5n6wa4xoq0D34M0XQR/C25HipZdxW1nMYsKMedYw1iBokVi+IxK1vZYtE3i19Uqwdmp+yV67tGtqaarut99hNxDW//mnGTZmisUX9ObfOSdlzBQGEaHyPjInoyXGJkIyKseUKx5t5y83zkqBZPOFGWWOQPuQOegscSj2lgjVEYC3FmdPjEkFfBQgOOt5a8uI2vVJxxcxz4gAfamY9KApSFoO8i4GEM4j0HAMbS5sQxaDvl1aW/fiMFkATE5/IRhRHVRAujR+WG9zm6hSPPLkC5YA6NetjTCsD8t+VPa2B8wNNgMMfAY7AMH2ijAQuC8H2AnwQizCmXNS/UBYFgNLQPqcofjDep9VxZjJ0uv0hTA4qkBqjPRNy4zX1l5yvio2eQrUtaucVYuqM5JmvBtiM8dRFIkg317Rygnd2jc1qBayMzz9kafspI6KZxd5r/jQa6K0w+A8KI15OUfWsHvOsTNeYLFThhb1JrUFOf2UEyPBOF6JI5pqNbnVEikNRMU8FoDHcUN7WZs9jt0BYIg5ZsfrldZf57Zin8kuHmfI0kYAO+zthJlQsLiUBUVxyXt2AG8VFViA3V3yZlefhQagfl3bN4tSycRJFLvdEPnsXuHUoXObm83A0ffYnTTi+cvHO4W9cvo3zzg0ql65gnns6Zfsjtrbz82w7c03dodzA+wl48tr24XXT5g1mB6YJQV/nb3P2JiibjzqrmmWgCEOBArHwODdHMD5E7ZGMMt40AVgorDXBsLOB4T14hgBBLbc7DDg1OgEIZSnjh9k2nQZQNC40LNjC9NdjuXivGyOFsNhibde/siaL05O6Et4JEcYpMDYzWrV0D6GwQlHBd01oo8ZL6poKmgDb6jvV/EIkjR9vdKvERI+JJ7bEcoAHIXEsUleYNd108bNVtCAah9An58w8jYZq9nq2r07tTSd5TxmneP5zlxNWtomqY5bb1kS3es8HwYnifpSvLyIO3nGcnHek+0kirAc9QRD63dQ5u8L/ud4+fAtVvgw7RJmzktlLQqak2KVM1H99Lu2nT77r5gEoeXSWY7qAUqJZ1uEiLquhhlP2hf9afufw/Rnf32hc1gH8B+AU7Jiwrjwzg/dsppZTSQEcUojlS5Z3PTu1MraRxI+0TyI7TpHOcVzthmm7ckrE3glnURrZyzc++kZP16hqaCNOGFC5x/anh1LwuKU8e4RfS2DzzFOAAK2CnKk30JZe4MgVlni0Xb+dFLJlzQo85SxA4R+mWjrxDtoScw6bq53HY8WWNs5KxnvxjWrX6mvzY3i/IpxUFtoJeb5UQO6Rr65m7yHgW3b/s2e43/8ec02US1w/3FwINKrbRs3bt7222+/b/ts4bciCNh5ILYC28S2UDa7/t0mTki2nV+h5jYhnLYrgExW273zviAdYQ62iX2X93VG7mW3x5YrURm8mYnXThtHdim8r7e7p+5iI7zde+8L6iSqNN5XKd//I3gWW91tXNOFHYnzWGUDD79KP00GaLdk48hO9jaRisu8sTVmVvRZkfBuY/zEArGB3iYMeqzP9j1hEvWBuAl4Pm7ctGmbqBlH3pB2GMjqdvu2VVLfZIE4xN0VIM51toktetysGV/gJBPAmBEb56ikaH/mrETjXCMRP16f0nBBV+L9uCJ+fwuDE+YTOdfXzrlB+QS9o68TJ15f13him78dnvQbV9oszByUyrj15pPMfRicZLIvJVO2TIVN1C5h5rxU1iL/nJSp+njToW0Yh8+8+IZ9zdwt9u3eINvdhxlP20UKeBG2P3ujkve636PnEu937z1jhXEdC2KNeegocCLmCrGiRt7Havsdhdcwa2ekcEneUGb6aRAwh4sacNL0gDetsLSdN046+TLnMnZTgXTWm1Ty2xlx5guPAq8CzwJu9gT+Trwcb3vqqae2uR3aXC6MYHchjGdTvwdSf7VIB4+UmQTU6/BkeL/saHJcR6IykDf2O3hx5vwzoHqV8vYa6ydM3dX+NlYaybxH6qi2ycnECwq7I3AelI/3HTt8atPlfR/vPky7+eOj0oM7/HiAFNXvAdYfHm+D2AvGA8JkCtBq8ELYtOvVqm4Gj7rb2hV54ye6Z9efuLsCOPbKe/RVUBnCjK+geEHvOGuYndkh4tQIuyS8Sk4WB2cAx4aFAWzhUgX6JI6d4kEYnDCfJDun0NfDqkmj1h0Pwnr4TmXcxss33rcwOMlkX4pXlh31LVG7hJnzku031MU/J+2o+nnTTTR3EzbMePKmGes+bH/2xifvQw8JNxckWq9jjXm87aMFod71vfn778O0PXEyhdcwa6e/jGGf441T6B9wkgokS9t580gnX9bYRGPXm5f3Pp31xpuOu9+1GEAzBdrXMbS7th3ydO5ZPYdYm0ucArXIOXYnUYXmzvtM1FpG2mA9RYU40WKUKD333WFgZ2Dg4tIlDf8OYmOAs4exX8Uu2QuoN5c4O9uLqve9u3cYcBhwGNhVGPhTVHAxbXCQGQw42i4zeHSpJI8BUSwwn3/+udkLlePjjj48+RT2oBiiJmB3ZjZt2mSWrVhjzj3r5F1SeyRgHICO44Qgu5KdXSi8gubbO5/BwD7W0Rb+MuGI4XvZ1eV4AHWx7g/jnh0GHAbyJgY4QmzBwq+NqAHaY4JwfJOqxD9vYsCV2mEg92EA77aMy+MLF7SOgHJfCfNmiRxe/2s3R9v9h4tdeffZoqXmxEJHmfziSBS6nN3+PQEOP/wwx9CGaejcwtCGKasL4zDgMOAw4DDgMOAw4DDgMOAw4DCwZ2FgT2RoYdqPOupIdw7tntXVXW0dBhwGHAYcBhwGHAYcBhwGHAYcBhwGdgcMbDOFChVyDO3u0JSuDg4DDgMOAw4DDgMOAw4DDgMOAw4DDgN7Egawof3ll18cQ7snNbqrq8OAw4DDgMOAw4DDgMOAw4DDgMOAw8DugAE8HK9bt84xtLtDY7o6OAw4DDgMOAw4DDgMOAw4DDgMOAw4DOxJGJBzm027du0cQ7snNbqrq8OAw4DDgMOAw4DDgMOAw4DDgMOAw8DugAF2aMuVK+fOod0dGtPVwWHAYcBhwGHAYcBhIHUMfPDRfPPw7GftEX3JpMLRGPVqVXfnVCeDNBfWYcBhwGEggxiAqd0ng+m5pBwGHAbyEAa2/P232bhxkzn0kIPzUKldUR0G9lwMrFn7mzniiMNMvj3kbMGd2dIws727tDXHHH1kUtmu/mWtGTzqbsfQJoU1F9hhwGHAYSAzGOBoVf7zZSY5l0omMfDbuvXmplbdzDvvf5LJZPN8Wh9+8rnFy+o1v+6yukx76EmT1WPITskfu4BZT75o63zfA49H5bls+QrTvENfc1m1hua2oePNps2bI9+J12PAHeaOCdMj74Ju2nUbZCpe18Ss/XVd0Gf3bg/BAH26Q6+he0ht8241P/18kalcu4UZO3Fm3ErMmfuxnTPW/7EhZrjWnW83D85+Lub3sB92p7Vq69Z/kmZmwRMMMHEdOAw4DDgMOAzsfAxwDi3/jqHd+bhPmOPWf/4xX32z1Kz7fX3CsN4ALTv2M+26D/K+2q3u//hzg8XL5s1bbL0gIkpVrGWmP/zUTqvnL8JML/7ftzs8v+U/rTS054jx99k6/7zql6g8bx85wT7369bGvPnuPPPw4y9Evj/8xAvm1bfmmto1qkTeBd2UL3uhubL8Jebggw4M+hz4blfgPLAgAS/vnTnb9oeAT+6VYCBW29GnF321xOEol2OgcMFjzaUXlzIlS5wZt6Tr1/+RPU9uyZ4ngwIvlPZetXpN0Kek3qW6ViWVyS4O/M+/xvR75S9zVL9fzevf/L2LS+OydxhwGHAYcBjwY4CNHMfQ+rGSB57/la31VEC35VOJGybPMGHIO0y4MGFSqUfYODsq/7DpZvUcYn5audpMGt0/sMgLvvzK1Kx+lal0eRlT7pILzNdLvrPhvv1+ud2Z7dWxlSla+LjAuPqyfq1qZthtncx+++2rr6KuYcsaFUkewsZTwYQ3fpi4YcJ400x0Hya9UGFkQv1769ZE2dnvQekxPhNBULygOGHDZTJumPKHCZNqmVJNOyi/VN6FwXnYMgaldazsBI4d0tOUL1s6sHhBcQIDBrwMU65U0g8TJ1N5h8kroOpxX23Yss0UG/mbmf7RZrP2r3/Nn/LswGHAYcBhwGEg92DAMrPOhjb3NEiiknyx6H/mnmmzzIefLLBBSxY/03S8pbE5u9ipBtWymo2zzK/rfrffrryhmalR9QrTrnl9+8xu34xZT5u3ZCdvk+xulj6/uOnQsoE5oWihmNk2zepjSpcsbvLvv595SFTTiHeZ7A40rlvDnHHaSVHxZj/z//bOA7ytImvDxyWJnd4LqSQQ2kLovYbeayhLDX3p7MLSCZ2FwE/vLCxtl04g9B4g9BYgQICElgoOJKQX2/98I4+QFcmWZVu2pHeex5Z079wp79wr3e+eM2detBdfG2sfjRtvsiIcNGxXJ7a2taKiIp8vlKXgGaOff82mTJthm2+0rp3z92Osa5dO0bJq6mM0U9Wbt9//1M648Gr/6YY77rcHHhlt553+N5MV99pb7rXrLj/bVl1pUPSwse9/Yhf860a7+OyTbMN1h0S3hzdvvPOhXTzyFrvq4n/aTXf+1/dl5RUH2tabb2iH/XXPpHPW1LfVV1nRj0V8Wf+56XLHo7vf/PjTL9nDo563byf9aEP+srJtv9Umtt+eO4ZDlnk9YK+dbJftt7TWpSXL7NOG1qWlVlblKixLy6ABfb2YkvvxRuutaXvtsk3C42I33uj6KTfu+275l99c2zglY66xVFJZj41+0V55413r3LGDbTd0Ezvm0P2sfbuIBVj1fTZ+gu20zeZ2270P29y58+3NZyLuk7Udq/JrYigXyg8++VzZTOd/3z697K7rE3srhH421Lm9zpDVbN68+Tb6hdf9NXLZeaf4dsT+C+eXzr/b733E9EBCx+kamO7G77Z7HvbbZDE/eN/d/HUdjl+wcJHd6azPbzhX0kk//mxbOMv6Xjtv46x1a4csFvqU7BqrbexU0Fvvfuzb8eWE70zn/t+G71+tjmhlMW/03XLPg6NszNgP/NbNNlrHDnLtH9i/j/8sd/b9j/yHnX7i4b58eROIu/r5j+MPi35HxBQZfavzWlxeev0dm79ggfXrs5wddfA+ttO2m6dc9uXX3G7vfDjOHr372moPbm77z8P26FMv2GP3XB89P6MVuzfx14b2hb6cdsLhtr07t8OY/mvEP+zu/z5u73zwqW9j+P6LPUb913fQq2+8Z23btrat3Bgefei+1rHDn/PXa/v+C/WfecpR/ntJ5c+aPcdud4xeG/u+aS7nzttuYau634RUUrkzPd5y14P+utL3+1abrm/D3Xfd8lVjpzJqG4NE9aTaj1TOidjvBbn2ituJ7rertKRVtOrYPIm+d6IZ03izxHkS7716S7t4+zbW/tyZaZTAIRCAAAQg0JgEFBBKD0ax0DYm5QYq+4efpthhJ5xt3/802QuEE4480FvvdBM/b/4CKylpaSe5H/mQ9F43lkqa43T8Py+2t9772PbdYwcnSPewz52oOOjYM2y2c01LlnSchKz+9nA3z4fst5t98sVXduQp51us++t/H33GLr/2duvcqYOdcdKRtsrgQXbF9Xe6m9wno0WrrDvve8ReGfOOF3E7bL2Zvxk89dwronlq62M0Y9WbQQP6OBF5iP+kmxj1WaJuw3WGeGH/wqtjqx3y/Mtv+u1rrr5yte3hw+LFS/x+zSstdSLytOOHewvnTf/+r9387/+FbMu8qm+z4jiGsvTUSOnZl96wS//vNvcAobddeOaJtvIKy3tXYj0ESJY0VsnErI756z672LW33mPDhp9qn3z+lW2/9aZ21/2P20+Tp9n5px/n5xMkKztsn+/Onekxrsy1jVMy5ipPN7HHnX6Ru6n+zYt7iY4Hneuz5vIGC4zq00OPq93c3h3dORDO2VSOrY3hAXvv7EW+2qJyJSqSpYY+t+964DEvmnRtaRwSpXBOnD7iKi9kD3N5v/pmkh172oV22vkjbcWB/e2oQ4bZ2Pc+MV3XYU50uZt+cM6l1zm3+ifcg5CV7JRjDjG5CJ989mX+AUKoqz5jpzL0MOzCK29yD5rWsSMP2seLI9WhudrJ0szfZ9vRfx/hxaweoO2923aewzHOVX6GE1dKspqp7LMuvsY/bDru8P39g7SHRj1ntzpRmSyp/yeccak9+dyrttsOW/nvlk4d29t5l1/vhX+qZevhjh6gvVv1INAf565LiVk9mAsPW+LbEX9txNa3uMqVN4zp0aee7/uk72WN12XX3GbvOhEde8zFV91qE7793o3xPjZ00w1M/T/t/CtNgdmUUvn+CyzVNiUdqzJUlso8+ZiD7ZuJP9hIN00hlfTgE896MaupCX91148E+XHutyI8GE1lDOLrqUs/ajsnxrnfKX2nTJn2iz/vN3cPVNXXk533SkipfHeEvOm8diwtsH/t1MZaRJ7NplMEx0AAAhCAQCMTIMpxIwNuqOJl6Tz8wL1tz523tuV6Rix+sq6ePmKkdzVde41VbVd30ycLkdxH9T6kux543Ivah/59dfTYbbfcyPZyFl1ZDHUTnSzJKnLzyPNs9VUH+ywSonscfIL9xwWROevUo003tFfffLcXyUGcSIhdNLLEJAT3d1bGIMpkUbz9mouiN5CtnJXmyWdf8dZl3VSm0sfYdvbo3tXd6A71QvFAJ15i+yyL4bMvjXE3eAeZTnJZuJ59+Q3bx7nolrT688l+bHnh/bprrmb/d8kZXhBKJCkCsKwvw9zNuupMJ4Wb28vOPdn3c5fttrDBKwywXj26pVOcP+aYw/a1tZw4l4VM1nrdfN7urJ6XnXuqde/aOe1yaxqnmphf5KzbsjzfetWIqCVsxUEDbMS/brCPPh1v6671l2ibYs8pbUzl2NoYbuHcrg9x3gO33v1gtXMhWmncm4Y+t+9x1vhk4ii2alk95eqtVOKsTLf+5yE71m2T5VGpVcuWzjr4gH8wMdjxU4CfMc76NuKfx3thpzyy7B9y3Jl2rhO6Lz3+p3hJd+xUppLcz9dx57+S5mnqQZhERTJPDgl5WQUfvusa/zBJx8lCqO+I21y/9GAlpA3cg6ar3XWl6Lz6Xthp/2PtbWexPP6IA0KWaq+a77v7TkNtheX7RT0qhm62gQ+K9MEn4/25Fg6oqeyN11/LP+jQA67gSfCps45LtO26/Z/fk6GsdF6PO/wAO+Kgvf2h2znPi90OPM7e//jzaLu1Q1bp26+50J0jbX2+NVZbyc6+5Bp77c33vbW3rt9/KuTVN9/zD7N0zctirLSHHiwcenJUlPqNNfy79eoRNsgxVhLfvx5zuvN2edpOPOpAP+c61TEIVdSlHzWNm8q7xD0EkFX+DsetdetSX4Xaerd7uCORK++XVL47Qtt4hQAEIACB3COgB8nMoc2ScdVcSN34denU0T+B102unqYrzfilZjcouWHqZupXt9yDbk71J4uiXIMnfPeDLyPZP7kdBjGrPGqHXAVVhpICVykNdJbRULZe+/bu5bf/7KyFIUkoxt7w62m70tTpM/xrffroC4j5t7MTjLph/eTzr/3Wsc46rRRcFf2HJP80L1XR0kLad/ft/dsJzvKRblp7yKr+UFlpxEeWFd14xrKta9kSBnKdHuba16d3D2e5usGPzXZbbeytarJcBOtPXcqubZwSlTXXudvKFbafG/ev3DkRzgVZ1JQ0rzckia7Yfqd6bEMzbMhze5MN1qp2boe+Jnpd37n7hyRvBqUN11kjbLLQzznOHVtp/FffekG2q3M/D0kPrQ50Fnqd41rGJaR0xi4cq9fYYENB2NZkof3UXV9yyZdnREi6jiUUw7UXtm+6wdpRt31dX9u6ud/h+yPkiX1t26a1t7Kv5x6EyOtADzSec14WStN/+TU2q9VUtn/A59g9/8qbzm15oT/uZefCrKS55w2RJJpDksga2L+v/RBn2dYDtyBmlVcCVNfClxMm+kPT+f77asIkX0YQsypIdcQ+3POFJ/knQRnErLLIYq1pJgoYpVSXMfAHuH916UdN4xa+F/TwJohZ1aEHps89dJsXsyFPKt87oX28QgACEIBAbhEoKoo4GxfnVrdysze6Ebvy+n87C+xr0Q7Kzba2JBc1zdlUOvzEc5bJHqyny+yo2hDmf8bu77NcTx9BV26kk36Y7HfJCpcozSibGZ1v2759xDIR8smtV6miIhJkI90+hvJiXzXXVzeLculdx4nJ5195ywt4WUVqSz26d6mWJVhRf/zJuV5uVG1Xyh92cG6ocsW97Z6HomOouaWy1Ommsb7phjsecPNR59lZbm7dyBvu8m55KlPWjXtvvrxOUYxrG6dEbQ2iR+dn7Dka8k6d/qcA0cOV2JTqsQ3NsCHPbXkbpJpi8xYURh6cyKqVLH076Scb0K93tYcsyqvrUEkunmEeejpj5wtx//R9Im+GkFoUV/00uOs8UdL1L0GaaD66RI3OA7nkhtTOzRuNTaXu+qwpqXxFL5eHiazpSsnWB62t7B232cxfE2+9+5GzQm7o2va683bZpto8zJraUtu++Gu4jbMmVlZNNwjH9kzg3aFx/f7HyHdoOt9/OlZlxKfleqbm+ZEoX3839/zZqgcHdRmD0Ia69KOmcdN5raRzKVlK9bsj2fFshwAEIACBXCBQYOPHjzcEbRaMpdYg1Q3iiUcd5AN3yLoqK8XuB51QY+tlxZOo0c37JWefvExeBZCpKU2bUbbMbs2fVZmysoQbortuuNT6u23xKf6GJX5/7Od0+xhbRngv0SBrrOZdHu1cql976z0X4OaAZURByB/7qjVuNZ8xpDAXcLmq4E5he+zrwoWLYz96F+/YDXJzPvrQYS5Yzq5+eRQtqSNxu8i5CSvASX2SAqJorur1/zrHzVU1f+OusV7fWf222/sIH4hHN/SNmcLNus5PWZ7jk+Z4J0upHtvQDDN5bifreyrb+/bp6d1K4/OGtZh7VU1BiN/f2J91/et7QC7H8UnbJD6TRc+Oz5/o89vOA0Wu1wogduCwXbxw0zmggF91TX9xQdv0nfm8czuWBVMCORVvDQVKkqgLHht1XUYttp3heyR2m0TbGjsM9pvS+f7rs1yPhOdGonM7tt7wXg/Z4pMiq684KPL9l84YpNOP+Dboc3iQOC3mYVh8vlS/O+KP4zMEIAABCOQOAbkbX3755QSFyoYhneRcNnWDeNgBe/j5bBKicutMlBQ5NjZpnqWCkbj7Tx9RU1E15fr79Iuv25SpEXff2Pyx7xXtNFgQtF3ujYq0usZqkZuwlauiHcv1UOWGvx9/nmJvuqjBqS5horLr0kflV1KflDRHNj7phlU3rpe6KKdKO26TOFhP/HEvvfZ2tU26CVbSfMZEqZ+zaLw85u1oEB9dWGPe/qBa1mfcfF7N4ZNFXHNJNf9YovlVF/G1PknRrTWPUnODN3Fuj7/OjNygKrpzFxekywsOJ9AbMiVi3qVzR2/hU3AqnVvhPND466GC2pkspXpsKgzd0tq+mhBQKVmd2p7Jc7umdtS2b7WVVvDncZhDrPzyvNADLnkhhIdKtZWj/YnGLpXjkuWRi/LrLrqxpjOEpKi7mts5JAVviHBMotdgoTt2+H4+4rLE7OSp01OeGxpbpgSpLLKai6w1mvVduqabd15T0gMsfX984Vy+Q9J3X7pJTGLPSz2IUvnhOzSd779VBg/0ZaiskFSH6koljX3/Yx9hO+QVX01l+UtVlOR0xiCdfoT6Y1/D94JiH2h+VEi6Dk4++3IfOyDkSeV7R9HvGyJVOVU0RFGUAQEIQAACDUSg2HmVYaFtIJiNWYxcZbVEhJaakAut5iRemSCSpW6OHnBRie93S9goUJCW9FHAJC17cdzpF/s5aXJPHOWCMWlO2cVnnRR1CU7W/r+fd6Ud7pZyaOHm7SlYiG7C/rrXzj67rB4SU9fffp8p8qbm3WkJErm9qp5kEV8T1ZVqH2OPlaum5qs99fyr/sZecxFD4KY1XCArtU83sWKh96kkCYU2bUpN8+I++2KC3Xn/o6ZgWLKGJEoaD7kyHnXKCD8vTjdc49xxsWn8V995y+lsN3dZy5l86CL9yhV8/z13is1W5/dX3XiXFbco9tFNdXDvKmudbmg1n/KnyVOdqO1V53JrOiAZ83+cMNzOueRaF+jmWh8YqNIq/fkqt9TY5WUSlZ3KsakwXGH5yFzOa2+9z8+rrK3eTJ3bifqc6rYt3VIqmu+r6MgSdzqPZeGX8DjvtL9FrYeplJds7FI5NlGeg/Xd4h4AneIEhgKoySNEgeY0t3f4AXsmOiTlbbKqKl1/+wM+GN7sP+b6QHMpFxCXUfNMZfHVtXrsYftF5/PGZYt+DIL87y4S+75uHqce5unhTLpJ1+I/R1ztl9OStVbLMOmBk8ZXKZ3vPx3bzwXo00OtI11QsW4uGNyoZ17x132q7dTYKTp3uXsQd49z8dZDEsURUEpnDNLpR7K2ankkBc4648L/s913HGp/zJ1r/7r2Tv/bEr6PU/nuUCR+BS+89NxTbIehqT3YTNSmBZdXn46SKA/bIAABCEAgswRk5OvVqxeCNrPYU6tNN4axSVFBJ3z3vY9iG7ZriQjdoMXOe5N4/Wz8N3bNLff4YC1XXnCaD9hy45Xn2g2332/nXnadP1w3LVqWZodaXFEl5Fo5IXuBW85DSeLxusvOriaC/3nSESYXX60RKvGnpMAiWl+zZYsW/nNN/wqrHnmn0sfg+hdb3lmnHmVnXHC1i3Z5s1/aQ0FDlJRXwVEU9VY3Q6mmC1w02esdK7nxKilq69l/PzoqHOLboOA8smRoeRFZ/RQk5x/HHWYXX31L1CJ2vFsPWBGhNddVDwSU1KYTXCTRdJMecMhqqbVWQ9AUvWpcr7rpbl+s1iutSdTF96WmtoRxUp5EzHWjuHDBIv9A5ZRzLvdFSXzdPPL8qKhOVl8qx6bCUA8hFJDokSeft2deHGNvPH1vdNzi+5aJczu2zkR9DxblWLaxx+i9rPrXuzWV5Wnwfzf/x+8W19NPPCKhe7fPEPcvtvxEY5eobaGIgph5tWFbeNV6pTdecY5d566XMI9+VWdRvsVFug5rVcd/l4Vja3vVA6nwHScPCCUtxfSiE/NFVW2qS9mKDq91f7VslMa+tqTAZVqGTNesvkNWX2WwXeHWmz3xzEssMKkLN015kOfGP9wyO0pqix5ItGvbxn9O5fsvvr86VufGxVfdEn3AqXb+47jhXsD5gmv4d8h+u7ugfL9Gfxf04OTaS8+MRrVOZwzS6UeyJuohhCyrekgbvlPETWs5B/apfHeEeeuVVfEaktXHdghAAAIQyD4CWlO9rKzMCiZPK6vs2a1T9vUggy3WPCotI7Fw4UL7cWqZDVl1YAZr/7MqrTk787dZfvmdmua/6iZAy3/Ez2FTwI45c+Z6l7twQ/Bn6dXf7XnISd61+MIzTnAuo3NtkQvw0s1ZXWtKml/bsUP7egVbSbWP8e2Qq6Pm7MYG2JEwvefBUTZm9L21Bl96ecw7zhJwtY2670ZnBevubvR+8dbeaHCc+ArjPvuIwm4Oazzz2GxynStz49fVuejGtjM2T0O8X+Tm/qk94Wa5IcpMVEYi5son8S7RIdfjuqbajk2Fodwu9QWn4DyJUlOd24naUpdtGlMxr8+yTKG+ZGMX9tf1Vd85+p6MjeRb1zIS5Zfb+lS3RIusj7UFsUt0fNimtmntbYkbPQRKNcm9e6H73gwPjVI9LuSTO/YOw44yPSjTAzZZZ9WPZNdmut9/ivi7ZMlSC5HFQ/2pvGoNY0WJTDZ26YxBuv1I1l5x1PVc0zlQ03eHrp3aHrCefMZFds5px/vfx2TtSLRdc8Yvveomu+6K8xPtZhsEIACBjBH49MtJNmC5rm5ZwBKTTqjtXj9jDWvkivQbjctxI0NuyOL1g57sJj22nmQ3S7oZqOmGILaM2PfJbnRi8+h9COQRv70un1PtY3yZseJJa7MqAqbE7LDdd6hVzMaXJat3iCIbvy/Z59pulnScRGwPN3+vsZNu2oNVojHrimUeW4/m76abajs2FYaab5lqyuS5nWqbkuXTOdYQYlblJxu7ZHXXtj3Zd05tx9W2Xw+Ukq2DW9uxYb/c+8e+94mPyiwra12SrKLpitlE9dR2/af7/RcfaTlR3cm21SaC0xmDdPuRrI21PUzVcTV9d6Ty/XzAPrt6YaqH13VJumnUsSQIQAACEMg8AT2QPfHEExG0mUdPjY1N4KSzLvPzyBR46SgX5ZgEAQjkJwF5tOx/ZETEytV4qJsSQIJAIgIbrreW6Y8EAQhAAALZQ0AeeZtvvjkux6kMWXNxOU6lrQ2V58sJE73rsObJZVtSVOdC98Rm+X59vMtFKu2XC+akH382RQiui4UvlbLJ07wIZPO53bxINv/WaC1cxR/QVIia1jRtrJ7IRV4R6fv17hVdL7ix6qJcCEAAAhDIbwL56HIst+qnnx6NhTa/T/3kvZewy9YUAtLUpf1ywVx7jVXrcgh5s5RANp/bWYq8yZqtOe0K8NRUSS7yfK80FX3qhQAEIACBXCeg5TI1VbAw1ztK/yAAAQhAAAIQgAAEIAABCEAgNwkgaHNzXOkVBCAAAQhAAAIQgAAEIACBnCUg66ymhiJoc3aI6RgEIAABCEAAAhCAAAQgAIHcJFBZWeGXJ0LQ5ub40isIQAACEIAABCAAAQhAAAI5S6CgoNAUgBFBm7NDTMcgAAEIQAACEIAABCAAAQjkJoHCwgKCQuXm0NIrCEAAAhCAAAQgAAEIQAACuU2goqLSdxALbW6PM72DAAQgAAEIQAACEIAABCCQcwQUEMov3ZNzPaNDEIAABCAAAQhAAAIQgAAEIJDTBAoKCuzII49kDm1OjzKdgwAEIAABCEAAAhCAAAQgkJMEKq2srAxBm5NjS6cgAAEIQAACEIAABCAAAQjkMAHm0Obw4NI1CEAAAhCAAAQgAAEIQAACuUygsDASDoqgULk8yvQNAhCAAAQgAAEIQAACEIBADhJQQCglBG0ODi5dggAEIAABCEAAAhCAAAQgkMsEsNDm8ujSNwhAAAIQgAAEIAABCEAAAnlAAAttHgwyXYQABCAAAQhAAAIQgAAEIJBLBLQOrRKCNpdGlb5AAAIQgAAEIAABCEAAAhDIAwJah1YJQZsHg00XIQABCEAAAhCAAAQgAAEI5BqBu+66C0Gba4NKfyAAAQhAAAIQgAAEIAABCOQ6AUU57tq1K4I21wea/kEAAhCAAAQgAAEIQAACEMg1AopyrHm0uBzn2sjSHwhAAAIQgAAEIAABCEAAAnlAQKIWQZsHA00XIQABCEAAAhCAAAQgAAEI5BKB8vJyk9sxgjaXRpW+QAACEIAABCAAAQhAAAIQyAMCRUURKYugzYPBposQgAAEIAABCEAAAhCAAARyi0CBFRUVYaHNrUGlNxCAAAQgAAEIQAACEIAABHKfgNyN5XaMhTb3x5oeQgACEIAABCAAAQhAAAIQyDkCRxxxBII250aVDkEAAhCAAAQgAAEIQAACEMhxAsXFRTZixAgEbY6PM92DAAQgAAEIQAACEIAABCCQcwTKyyusX79+CNqcG1k6BAEIQAACEIAABCAAAQhAIA8IFBQUIGjzYJzpIgQgAAEIQAACEIAABCAAgZwioGV7pk6diqDNqVGlMxCAAAQgAAEIQAACEIAABPKAgFyOR44ciaDNg7GmixCAAAQgAAEIQAACEIAABHKKgNyNJ06ciKDNqVGlMxCAAAQgAAEIQAACEIAABPKAgNahHT16tBXnQV9zoouVlZU50Y9c74SeFJEgAAEIQAACEKgfgWy772ms3384RM4jONTvesr1oxG0zXiEdfH+NmuOlf3+hy1YuLgZt5SmBQKlJS2ta6f21rljO2usH7dQF68QgAAEIACBXCKQzfc9Dfn7D4fIWQ2HXLq6G6cvhYWFpvMEQds4fOtd6qJFi23y9Jmm6F29une2NqUl9S6TAhqfwLwFC/1DiFl/zLM+PbtYq1YtG79SaoAABCAAAQhkOYFsv+9pqN9/OEROZDhk+QWdoeZXVlZ4A1JhhuqjmjoQ0JMGidm2rUusb69uiNk6sGvqrHrwoDHT2GkMNZYkCEAAAhCAAASSE8iF+56G+P2HQ+QcgUPya4U91QkUFBRaeXk5QaGqY2n6T7qIZzoXY1lmu3bu0PQNogVpEdDYaQw1lhpTEgQgAAEIQAACyxLItfuedH//4RA5N+Cw7DXCluQECgsLTG7HWGiTM2qSPbqQNWdWczBJ2U1AY6ix1JiSIAABCEAAAhBYlkAu3vek8/sPh8i5AYdlrxG2JCdQURG5x0bQJmeU8T26iPW3cNES3IwzTr/hK5T7kcYyjGvD10CJEIAABCAAgewlEH4fc+2+p66//3CInMNwyN5rualarnNGS/cgaJtqBJLUq4Eh5RYBxjS3xpPeQAACEIBAwxHI5d/IuvStLnkbjn5mSqpL3+qSNzOtb7hacrlvDUepbiVpRZGioiIEbd2wkRsCEIAABCAAAQhAAAIQgAAEmp5AxBDIsj1NPxK0AAIQgAAEIAABCEAAAo1C4ONxX9Za7qzZc6xjh0j8lrWHrFpr/mzKkEr/c63P2TQ+9Wmr5tAOHz6cdWjrA5FjIQABCEAAAhCAAASyg8DfTrvIPnLi7qhD9rGjDt4nOxpdj1ZKyN1x36O+z3UpZh0naMUn20VeXfqfK32uyzjnQl5FOL7wwgsRtLkwmPQBAhCAAAQgAAEIQCA5gSDsJFzuuPdRk9i55arzkx+QA3uOdQJeSQK+pjT2vU/sywkTo/nEx+xRu2VIdvMJY15b/8UmV/pc0zjn4j4FhOrbty+CNhcHlz5BAAIQgAAEIAABCPxJICJYzItYCZ0garPdCvlnD6u/C262qVijp03/NSJoY6zW2c5H/a+LNX6dNdyDDndekLKLgCy0ErXMoc2ucWv2rZ38+xJ765t59sPMxbZm31LbdHAba9uKYNrNfuBoIAQgAAEIQCBHCQShEix1XrzkaF9Dtz76LDJvVn0l1U5ADzay3SJdey9zM8f06dMRtLk5tE3Tq9vH/GbH3TelWuVd2hTZq/8caKv1Lqm2nQ8QgAAEIAABCEAgEwSCdTbMmw1iLxN1N1UdwUKbqxbo+nCdP3+BTf91Zq1F9OzWxVq3Lq01HxmajoCWQho5ciSCtumGILdq/m1euRezfTq1sMeO72+9Ohbbwx/MttMemmbH3DvF3jprUG51mN5AAAIQgAAEINDsCcRbZ9XgfBB7wd222Q9Qhhv42NMv2RXX/TvlWs84+Qjbe5dtU85PxswS0Dq0EydORNBmFnvT1XbRU7/YRU/NsFdOH2hbrNQmYUPGTJhnW4+cZOfv1sP9dU+YJ9nGdyfO97uO2qKzrTMg8jTrlG27WouiAvvdid2QZs4tt4tHz7DnP59jhQVmOw9pbyN27+HdkiWKN7j4Oxu+WSc7e+dI/eN+XmD73PSTXbJXD9tv/Y6+D/e9Pcsu3rOHnffEDFt/YKk9cHQ/++znhTby+V/tlS/nWk8npg/bpJOdtE3XUG21/Z2d1fj4rbvYsVt2MXcd+PTS+Ll2oePz7fRFtrZr/+GbdrZh63WIHs8bCEAAAhCAAASaPwE/d7LK3faLr761dz4Y5xsdrLP6ILHng0PFzZmUe24uWDSDiG/+o5XZFsoyKzG76koDbZMN1q618rHvfezz7zh0Uyy1tdJqugyjRo1C0DYd/szWHESsBGsiURvErFoV8talhVuu3MaK3VTZy5/5xfp1bmF7rtPBi9Tjh3aJFjN/cYVtdeVE+3LqIlP+xUsr7ZoXy2zst/PsDWfBXerWkvq+bLF9/+vi6DESw9o244+lfpv26fNh//7Z1l2+ta3Rp9Qmum0bX/adLS2v9AL5ox8W2N8fnGZ/LKiwc3ftHt2vAvZy7frY7T/xgal+/xk7dbPxUxbajtd8b3KP/uuGHe2Vr+baAbf9ZAO7rRAV59EG8QYCEIAABCAAgWZJQEIuuBfHNvDWBNGMJWr1F5vucB9SCaIUe0xzfh8r4ptzOzPVtuBmLDGbKpsvJ0zy7skD+/fJVDOppw4EFBBKgaEIClUHaNmcVSJVQlaCNl7UxorZRGI3lX63bllo9x3Vz064f4oNv2uy/1uzX4mdul03O9CJRKXHPpztxaysv7ICK53yv6l24yszTRbSYNn1O2r5d9PBve2IzTr7XIfc+bMtXFJpr58x0DZdsY0tccJ2o0u/s1edMJWgvfDJGX7/l5cOtsE9Wlm5E85Dzv/WW4olaN/6NmJdvmCPHva3rbrYvEUVducbv1nbEoJZ1TIM7IYABCAAAQg0GwISsxKkIRCSlq3ZZbstlrG6vv/Sg1G349jGB0GcqtiJPbY5vRcHWaBJEMh1AhKzmkeLoM31kY7pXyJRq90SuErpill/sPsnF90912lvj7i5sxKvT4/7ww51YvPt7+bZTQf1dq8R4RiEqI7TewlaWWnrImh3XbN9qNZHVZZ1VWJWSW7OH56/YnT/C869WUnzeUOSe7NE8K9zltpua7W3450Ql9X2gXdn2Y6rt7NjtuxsXdtyeQRevEIAAhCAAASaM4EwL1ZtTMVtOGGe+5pzD+vetlgm4eiE/a7aGZ+/pryhPF4h0NQEsNA29Qg0Qf3xojY0ob5iNpRT7CbGHrBBR/8n0bj2Bd/aba//Zv+3/3I2a35kLm3rmGV8wnu5BydKS/6cflttt+oJSRbVUmchTpbmOVdnpZZO6Ia08Qqt/dulblevDsX23b9WsktG/2IvfDHHRoyaYRe7+bQvO4t2EMnhOF4hAAEIQAACEMhNArkSSElWallpPxp3UcKBkoU6JInYp18c4z/Koh1SWOIofOYVAs2RQHl5OevQNseByUSbYkWt6msIMSsReOnTv9hTJw2wndZo57uh4Evd2xeb1qaVG/AmzoL6iLPcvuhEowI8KQXr6UZOYIb1amWtDelNt6ZtbWm9ga19kCnVoyjLSnIz1pzdK4b1cvN129rL4+fYf47sG61D82xbFhdYT9e+n35bYp9NXmi3HtrbzQMu8O7PmlN7w8szEbS1wWc/BCAAAQhAIAcI5FIgJblMy+06fnkiidf4ecNBxG603hD7yyoR77ZcCI4l67IP/OWEvVK2u5HnwCXWKF0oKooYtPCpbBS8zb9Qidqld67eYA3dZ90OXtDudeMP9vftu1lPZ/Uc9fEf9vGPC2zDQRGxuufa7e3MR6fZEXdPth/KlvggULKEdigttO1Wa2eah6uAUt/MWGzbX/299evSwu5+6/da26jAU4qavPnlE+1MFx35CydOb35tpg/wpIOPde7D2r+xm1d75k7d7RfnZnzmI9NcG1vYpCtX9vu0fu4w14cD3Hzfh96f5etcpVerWusmAwQgAAEIQAACuUMgV4SPBF28y/D69+5fbW5tEPG5FAgr9kyMjOWjkfnSB8fu4X3uECiwoqIi5tDmzoA2bU9W71Niz526vJ8ze+Vzv/rGKOrxzs5ae79bVkept7OejjljkB14+092zuPT/baVe7ayR926tV3aFvnPj5/Q34tZRRru3q7Yrty3l/3z4T/nvhZVuRrHeBz7Oa+3HtLbznlsul8LVwVtu1pbu9kFjlLaxS0NdJuzvp796HRTACkl1fuIq1flHO2WGnrHzfOV9Vh/Snu7aMin79jNv+cfBCAAAQhAAAK5TSDXAymF+bGxIld9VsoVER9/hqqvtww5P34zn3OIgKIcy+0YC20ODWpTd0Uicuo1q9hcN6dVy+3I/Tes8xrapsBPX1+2kl8yR/vaxUUSXrNfqc24blWbs7Aiuu/v2/25nuydw/uY/uLTkZt3Nv1Nn73UOjlX51bOnTg2KfiU/mSdLW1RGC075Ln7iL521+F97WfntrycW8c2do5uyMMrBCAAAQhAAAK5RyCR2Mu9XkZ6FCJAx1pnc7Wv9Cs/CBQ4QRFxPM6P/tLLDBHQXNi+znU4XszGVqNVMPsAACoxSURBVN/euRnHi9nY/TXti80X/16uzvFiNjaPrL7JylZ75fKMmI0lxnsIQAACEIBAbhMIc02D2Mvl3oa+5rp1NpfHkL79SaC4uIhle/7EwTsIQAACEIAABCAAgWwlIPfS2CBAoR+TfpxswRoZtsW/BnEX644bnyfbP8fyCRbpfItk3LNbFz+MY9/7OKXhDPnCcSkdRKaMEigvr7AjjjgCl+OMUqcyCEAAAhCAAAQgAIFGIRCCAAWBqkq+nDDR/9VUoYRwrs4jje33LVed78W9+ORLn2P737p1qZ1x8hF2xXX/dufEpNhdSd8rv44jNV8CF1xwAYK2+Q4PLYMABCAAAQhAAAIQSJVACAIULJCzZs+xjh0iSwnWVEYuW2bj+y3hng/iPb7f4fPeu2xrOw7d1Kb/OjNsSvoqyyxiNimeZrFDy/b069cPQdssRoNGQAACEIAABCAAAQg0CIF8EqgNAizPCpFIHdh/2QCjeYYhJ7orl+PKykqCQuXEaNIJCEAAAhCAAAQgAAEIQAACeURAEY6nTZuGoM2jMaerEIAABCAAAQhAAAIQgEAOEqi+YGUOdjBBl7QO7ciRIxG0Cdg0+aaSVi1s3oKFTd4OGlA/AhpDjSUJAhCAAAQgAIHkBHLtvifd3384RM4ROCS/VtizLIGJEyciaJfF0rRbZDrv1L6N/TZrTtM2hNrrTUBjqLHUmJIgAAEIQAACEFiWQC7e96Tz+w+HyLkBh2WvEbYkJ1BYWGhPPfUUgjY5oszv0UXsL+QObW3p0qVW9tvszDeCGhuEgMZOY9jJjWUY1wYpmEIgAAEIQAACOUIg/D7qtzJX7nvS+f2HQ+SEhkOOXNgZ7EZlZYW/zy7OYJ1UlQIBXcxFRUXWo2tHF1J8li1YuNg6d2pnbUpLUjiaLE1NQG5Gv/0+x5Y4MduzW0c/lhpTEgQgAAEIQAACyxLIlfue+v7+wyFybsBh2WuELckJFBQUWnl5Ocv2JEfUNHt0Ict8XlrSyvot19V+nz3Xpk6faQsXL2maBlFrnQiUtGxhHdu3tl7dI2JWY6kxJUEAAhCAAAQgsCyBXLnvqe/vPxwi5wYclr1G2JKcQGFhRDdhoU3OqMn26GKWlVavXTq1926rWmNJKbw2WeOoOCEBjZVS+CKWkEXMJkTFRghAAAIQgEA1Atl839OQv/9wiJwWcKh2efChBgIVFRF9hKCtAVJT7tLFHASRXpUQs005IrXXHfujpvfhc+1HkgMCEIAABCCQ3wSy+b4n/N6H3/7wOZ0RhUOEGhzSOXvy7xhpIy3dg6BtxmMfvhjVRMRsMx6omKbV50csphjeQgACEIAABPKOQDbf9zTk7z8cIqc+HPLuK6DOHdY5Iq9WBG2d0TXNAQ35Rdk0PaBWCEAAAhCAAAQgkBoB7nsinOAAh9SumHzNFXE5jviy5isD+g0BCEAAAhCAAAQgAAEIQAACWUdAc2jlxYqgzbqho8EQgAAEIAABCEAAAhCAAATym0A03lB+Y6D3EIAABCAAAQhAAAIQgAAEIJBtBBQQavjw4Vhos23gaC8EIAABCEAAAhCAAAQgAIF8JyAL7fnnn4+gzfcTgf5DAAIQgAAEIAABCEAAAhDIRgIDBgxA0GbjwNFmCEAAAhCAAAQgAAEIQAAC+UxAAaEICpXPZwB9hwAEIAABCEAAAhCAAAQgkKUEtKzVtGnTsNBm6fjRbAhAAAIQgAAEIAABCEAAAnlNYOTIkQjavD4D6DwEIAABCEAAAhCAAAQgAIEsJKAoxxMnTkTQ1mXsZNaurMsB5IUABCAAAQhAAAIQgAAEINDIBKRRpFXyKSnK8ZNPPomgrcug60QpKiqwJUvL63IYeSEAAQhAAAIQgAAEIAABCDQKAWkTaZR8NLxJ1BY2CtUcLrS4qNgWLFyUwz2kaxCAAAQgAAEIQAACEIBAthCQNpFGybdUXl5ucjtG0KY48rLgy4zfsrjA5sydn+JRZIMABCAAAQhAAAIQgAAEINB4BKRNpFGkVfLJ67ioKCJlEbQpnlsyZxcXF1nr0lb2++y5KR5FNghAAAIQgAAEIAABCEAAAo1HQNpEGkVaRZolf1KBc7V2fc6fDqff0zDBuqiwyEpa6mQptBlls9IvkCMhAAEIQAACEIAABCAAAQjUk4A0SQsnZKVRpFWUgnapZ9HN/nC5G8vtGEGb4lAFE35xiyLr0LbUpv3yG3NpU2RHNghAAAIQgAAEIAABCECgYQlo7qw0Sfu2JSaNEqZINmwtzbs0aTQEbR3GyLsduwnXpa1aWfs2reyHyTOIeFwHfmSFAAQgAAEIQAACEIAABOpPQJGNpUWkSaRNFBQqv9yNzbtYV1ZWImhTPZ0iFlr5aRdai5YtrEO7Ns68X2jf/TAFS22qEMkHAQhAAAIQgAAEIAABCNSLgCyz0iDSIl6TOG0ijRL0Sr0Kz6KDy8srfGux0NZh0LxJW8Gh3BOQlu7E6ShR606eCZOmMKe2DhzJCgEIQAACEIAABCAAAQjUnYDmzEp7SINIi0iTBOustEq+JS/iJ08rq+zZrVO+9T3t/sqsrT89EViydIktXrzE5i9YYPMWLLGlblunDm2tXdvWVlrSyk/QTrsiDoQABCAAAQhAAAIQgAAE8pqAXItlkdXSPIpmrOC0bUpauKjGpV7MtijOT+usTgpZpbt162b5twJvPS+J8OQjYtZv6X3V5a9e0mqpLVy0yObNn2+z58y38opyJ3orLf+ek9QTMIdDAAIQgAAEIAABCEAAAlbpGBQVuSmPLnqxC2TsAtO2cppDK65EvEUjltmw/mz+qQ4ZGC+44AIEbTrXijdtK6KWc9jWek86sUgQgAAEIAABCEAAAhCAAAQgkBkC0mR9+/YlKFRmcFMLBCAAAQhAAAIQgAAEIAABCDQUAa1DK09ZgkI1FFHKgQAEIAABCEAAAhCAAAQgAIGMEZg6daoVEBQqY7ypCAIQgAAEIAABCEAAAhCAAAQagIBcjgcPXhELbQOwpAgIQAACEIAABCAAAQhAAAIQyCCBysoKmzhxIoI2g8ypCgIQgAAEIAABCEAAAhCAAAQagEBBQaGNGjUKQdsALCkCAhCAAAQgAAEIQAACEIAABDJIoLBQq84QFCqDyKkKAhCAAAQgAAEIQAACEIAABBqCQEWFVuo1LLQNAZMyIAABCEAAAhCAAAQgAAEIQCBzBCorK80v3ZO5KqkJAhCAAAQgAAEIQAACEIAABCBQfwKKclxUVISFtv4oKQECEIAABCAAAQhAAAIQgAAEMksAl+PM8qY2CEAAAhCAAAQgAAEIQAACEGgQAppDK7fjwgYpjUIgAAEIQAACEIAABCAAAQhAAAIZIqAIx3I7RtBmCDjVQAACEIAABCAAAQhAAAIQgEDDEFBAKCy0DcOSUiAAAQhAAAIQgAAEIAABCEAggwRkoZWoLZg8rayyZ7dOGayaqiAAAQhAAAIQgAAEIAABCEAAAukTkLtxjx7dcTlOHyFHQgACEIAABCAAAQhAAAIQgEBTEJC78YgRIxC0TQGfOiEAAQhAAAIQgAAEIAABCEAgfQKy0Pbv3x9Bmz5CjoQABCAAAQhAAAIQgAAEIACBpiKgObREOW4q+tQLAQhAAAIQgAAEIAABCEAAAmkRkJidMWMGQaHSosdBEIAABCAAAQhAAAIQgAAEINBkBORyPHjwilhom2wEqBgCEIAABCAAAQhAAAIQgAAE0iYwceJEBG3a9DgQAhCAAAQgAAEIQAACEIAABJqEQHl5uT355JMI2iahT6UQgAAEIAABCEAAAhCAAAQgkDaBoqJIOCiCQqWNkAMhAAEIQAACEIAABCAAAQhAoGkIFFhRUREW2qaBT60QgAAEIAABCEAAAhCAAAQgkC4BRTmW2zEW2nQJchwEIAABCEAAAhCAAAQgAAEINBkBRTpG0DYZfiqGAAQgAAEIQAACEIAABCAAgXQIFBcXWWVlJYI2HXgcAwEIQAACEIAABCAAAQhAAAJNR6C8vMJXjoW26caAmiEAAQhAAAIQgAAEIAABCEAgTQK4HKcJjsMgAAEIQAACEIAABCAAAQhAoOkIsGxP07GnZghAAAIQgAAEIAABCEAAAhCoBwG5HGsObcHkaWWVPbt1qkdRHAoBCEAAAhCAAAQgAAEIQAACEMgcAbkbt23bhqBQmUNOTRCAAAQgAAEIQAACEIAABCDQEAS0Du2ll16KoG0ImJQBAQhAAAIQgAAEIAABCEAAApklsOKKKyJoM4uc2iAAAQhAAAIQgAAEIAABCECgvgQKCwtZh7a+EDkeAhCAAAQgAAEIQAACEIAABDJPoLKywli2J/PcqRECEIAABCAAAQhAAAIQgAAE6kmgoKDQ5syZQ5TjenLkcAhAAAIQgAAEIAABCEAAAhDIMAGtQ4uFNsPQqQ4CEIAABCAAAQhAAAIQgAAE6k+goqLS/ve//xEUqv4oKQECEIAABCAAAQhAAAIQgAAEMkmgsrLSSktLEbSZhE5dEIAABCAAAQhAAAIQgAAEIFB/AnI3LioqsuL6F5XbJUj5kyAAAQhAAAIQgAAEIAABCDQFAQk3UiICEZ2GoE3AJojY8FpRUZEgF5sgAAEIQAACEIAABCAAAQg0HoGw1moQteG18WrMnpI1h1Z6DUEbM2ZRAevAfDNtgT3y0R/2wY8L7effl8Tk4i0EIAABCEAAAhCAAAQgAIHGJ9C3Uwtbr3+JDVunvQ3u9ed8UYStmcS+OCBoq85DiVn9lTtr7HWvzLRXv55n+63fyQ7dtKsN7Naq8c9WaoAABCAAAQhAAAIQgAAEIBBDYNKvi+z1CXPtH4/OsKErt7GTt+5iRU7IKeW7qJUXrfRbweRpZZU9u3WKwZZ/b6NitrzcznjiF+vUutgu2L1X/oGgxxCAAAQgAAEIQAACEIBAsyRwwZPT7Pf5S+2KPbv7YEgStPksatX30aOfIspxOFvLyyvsWmeZRcwGIrxCAAIQgAAEIAABCEAAAs2FgAxu0irSLNIupIjbccRencc0vJtxeaVNcHNmX5swH8tsHp8LdB0CEIAABCAAAQhAAALNmYBErTSLtEu50zDSMvmagpctgtadA5WV5fbox3/4ObP5ekLQbwhAAAIQgAAEIAABCECg+RNQnB9pF2mYPNaz3t1aojavBW3kiUalLV1abh/+tMi2XKlt8z+DaSEEIAABCEAAAhCAAAQgkLcEpFmkXaRhnGkur620Dz30UH4LWl0Fio6lyMaTZy0lmnHefi3QcQhAAAIQgAAEIAABCGQHAa3AIu0iDSMtk69JfX/33XdZtsd7nVfm74mQrxcA/YYABCAAAQhAAAIQyG8CmZp/2miRiJ2Gyd8ZtJGAUN9//z2CVmdBPp8I+f01Ru8hAAEIQAACEIAABPKJgETswkWLbd4CuewudV0vaOTuV1pxcbG1KW1lJa1aNugyOxHDXCM3v5kXP3r0aARtMx8jmgcBCEAAAhCAAAQgAAEINACBpeXl9sec+VZYWGDt2pRaCyc0M5GWOOG8YOEi97fY2rdrbcVFRZmoNufrKHfjeeWVVzKH1o80JtqcP+HpIAQgAAEIQAACEIBA/hKQZVZitmXLFta+bZuMiVkRl3BWnapbbWgwV+c81zBFRYW29957I2jz97Km5xCAAAQgAAEIQAACEMh9AhKQspDKMtu6pFWTdVh1qw1qS4OJ2ibrTXOouMBWWGEFBG1zGAraAAEIQAACEIAABCAAAQg0HoH5zt23tAnFbOiZ2qC2kOpPwK9W49yO83od2vpjpAQIQAACEIAABCAAAQhAoLkSkCVUfwoAlak5szWxUBvUltCumvKyr3YCiiCNoK2dEzkgAAEIQAACEIAABCAAgawm0NjRjOsCpzm1pS7tbl55i4uL/IMBBG0DjkuHXis3YGkUBQEIQAACEIAABCAAAQhAAAKJCJSXV/jNCNpEdNgGAQhAAAIQgAAEIAABCEAAAs2aAC7HzXp4aBwEIAABCEAAAhCAAAQgkGkCP85ckukqqS8NAlq2Rykzqwmn0UAOaVoCihr2/Y+TrWzmb9a/X2/r2b1b0zaI2lMi8Pus2daxQ3vT0yoSBCAAAQhAAAIQgEDdCFz81Ax/wOYrt/WvWwxuU7cCyJ0xAnI5VnAtBG2GkN9570P2w09T7ISjD05LHN50x33WurTEhh80rNFbPGfOXLvm5rvtl19n+roO3Hf3lNo84dtJdt9Do+yoQ/bzIjj+c6M3PM8reGXM2/bE6Bdtr922t6Gbb5TnNOg+BCAAAQhAAAIQqBuBWMvsG1/PrXYwwrYajmbxIRhwELQZGI6Px423Tz/7ytckkVhXa+fCRYvsqwkTbYtN189Aa82eePpFL2YPO3Bv69dnOevWtXNK9X42/mubNesP69Gjq88f/zmlQsiUEoFrbr7Lps/41a648Ixo/jatS21A/9425C8EJ4tC4Q0EIAABCEAAAhBIkUD/Li2sf9eW9mPZYjtvtx425pt5FoStXmW1RdimCDMD2eRRWlhYiIW2sVkvWrTYHnj4SWvXro3NmTPPZv42q8Yqw8DEZvp24g/+48qDB8VurtN7mePDU4yaDlS+Dz/9wv6y6oq27lqrJ8yarKwvv/7Oi9+SVq38cfGfYwtLVkZsnsZ8n2796R6XqC+plJUoj7bJHXz1VQdXK3bD9dYy/SVKicqpT75Ex7INAhCAAAQgAAEIZDuBLVZqa/eW/Way1kq86i8IW4lahG3zGuFx48YhaBt7SGTtlKg96ZhDbeT1d7g5qb8vU6VE7kOPP20Tv//J5+29XA87eP89rc9yPX3er7+Z6F9XHDTAv5aXl9v9zrX308+/MrkDJxOeEsKjn3/FuzpXOB/zDu3b2iEH7GUrrTjQlxP/77+PPGVvv/ex3/zFl9/aqWddYkcesq+ttspgm/7Lr/bsi6+b3IgXLFxkKyzfz/bYZTtvwdUBsiL/6i7+YEWO/xzyjH7uFfviq29s5sxZtlyv7rbtVpvaemuv4et88LGn7b0PP7VrLj/Xf9a/sO24Iw+y0P+PnOBW/488dD8b5Npx1gUjbfutN7Mdttkietyop1+yN9/5wK686AwrKiqykdfdbm3atHYWzD425q33bN68Bda/73K2567b2woD+0ePS/TmBycen33pdRPPJUuW2sYbrO3cv0tt7HsfuvLP9A8KVH6rVi3tpGMPixbx5dff2h33POTdzActH6lDHJ97aYxpTNWGHt272uEH7WO9q8ZaB3/z3ff22FPP2zRngdW4rbryCi7PMCspaWVPP/+qPf/yG76OcZ9/7cfo1OMPt+7duizDQWNQE28VIk7qx/5772rPvPCat8zrPNlv711sjdWw9HrQ/IMABCAAAQhAIO8IjJkw1w7ZuJPvN8K2eQ6/rLNXXHGFRUJDNc82Zn2rJk+ZZm+986Gfz6jASoUuEtfM36oL2t9+n2UXXnG9TZk63efbZYet3PsZ9sioZ6P9j7V0/uHmt/7rmlvtI+fGLEGXTMx++Mnndt0t/7Hffp9tW222oW260bo2Z958+89/H4uWG//mL064tmlT6jdLmO6+0za2/IC+9t2kH+2yq2/xgm79dYbYOkNWs++c+L7trv+axLVSvBU5/vPsP+bYZVfd7AXzwP59fV8VwOie/z4enaurciQYQ5kKSCV+2rZg4ULtNlmwH37iGR/4aNWVVoiKzFhBqHzjvvjK2rdr68WshN2PP081cZSYVR82XH8t+9kxv+OeB23p0qU6JGEa70TpVTfcaVOn/2JbbLKBrbv26r4Pr775jnXt3MmL2VB+r57dq5WhY9X20LZJP/zkOerBxUbrrW2bbLiOzfilzG5086ND+tiJ9etvvceKnQjfY+dtbSPXTt/use/5LIOc+I4fo969eizDIVXe4rRgwSJ79MnnbMjqqzjL/GCb/cdcPy6hTbxCAAIQgAAEIACBfCEQ63Yc32cJW7kih4BRstYqiJQsuKTME6isrLDi4mIstI2FXi6ed93/qJWWtrJddhzqq9Ecx3hBK2udrHBnnHKMtW/fzufr4oRSkXvioBRr6fzRBZW6/rZ7rMRZAs87/YQa57ZqcLfYdAPbc5dt/UCrrJ8nT7WyOEGt7SGt4eZevvLG2zZ12gwbtsdOfvO8+fN9nT2dJfG0k46yli1a+O2KpPvSa2O966ssnPFW5PjPEmlz5s6zs/7+N29NVCEST9r+3kfjbNcdhjpWJb5siUBZVR998nlv9ZSFu3xpRDi/+fYH3rJ5xMH7ejEZX48KiGWmz0Fcd+nS0c485dhoPW1bt7aXXx9rE5xFdLWVV1TWaknBsW658wE/L/WUvw2PcpSo/vjT8bZK1TGh/HiX8NgHEeJ4rXvAMHjQADv28L9Gy9I4SWTLSt+lc0d73Fn0O3Zsb/848Ug/J0AN6tqlsw1eYYBv2yrO7bxnj27Vxkg74jmkwjtwkkX2nNOP91ZnlXXxlTe6ByE1u8YrHwkCEIAABCAAAQjkIoFYt2MJ3PiExTaeSNN8LigotF69eiFoGwv/G2Pf95ZHWVGjItAJ1nhBKeGm9OSzL9uWzpIqN+PggqvtQSxJ8MhlWUF/Tjz6UC/0tD9ZWtNZ2zTHcoYLQqVAVNNn/OItkhKmyVKiuZmvjHnHC+7jjzo42g8dv7yzsiq1bBm5yGPFm7bHflYfZIlUkCm5xobUv29v/zbwKS0JgnaJF/5ffPmNd6nWHOSlzhK8eMkSe8q5LK84qL8TeMv7Y2PrCeUGZkFgBrF3+IHDomJWefv0jrh0J5tb/LKLGqx09GEHRAWoPktQKklcKoXyg0u0tgWxGFywX63iuNH6a3vXcuVRWrx4sX/Vww4lraf1uwus9eKrb7rzYIgXuXKnDinRGGlfLIdUeQdOuzlLvFyoQyouLvIRtcNnXiEAAQhAAAIQgEA+EQgi9n/vuSlyHWuOoasgUr/OiXj7yWL7znfz7ZTtulpJMUsoNvY5U1hYYGVlZQjaxgAty94jo57zRb/4yhumP6Wfp0z3r7GBn7Z0VtSvvvnOzR0d5/9k0T1w3z1MglQpiCWJO6WVVhhYq5hdsGChm3s62j5xc2xl/VVq0aLYvw8iz2+M+/ezc5H2czZX+tNaKevhyoMHuvm3EetxOCQIcy0lFC/e4j9rORnVv7ZzVY5NwVodxJzKUlrsLLQPO5drzS9df501fFAtWW1fevUtP8dY8zuV4uvxG92/wCwITIm9zp06+KWEQh69/lI203/sVSVQY/fpvdyd1Xe5LscmiXOlgc4dWylWTPoN7l8Qi4H3q2+843fd7az28Umu6Jofq7TnLts7d9/H3FzZ1/yfGBxx8DA337iH359ojOI5pMo7cJKrcUg6NzV3d601Vg2beIUABCAAAQhAAAIQqIFAi6ICm7+40udo09JF3Y04WtZwBLsagkBFRaVbYWUWgrYhYMaX8d9HR/tNcuUsdkIuPml+Y6eOHfxmWfsuOPNkP0fz08++tBecZU6CZs2qwEgSS0qnHDfctBbtS85FdqvNN7S2bZIv8nyDc0ue7NyGd9l+K2elXclbRRVASmJqFTfvNFnS0kBKEnEhyd13uZ4RMRW26XWMm9MpsSV32M+/nOB3BfEWL+b+cP3t2qVT1IU2lPOGcx9WCkI3iLqvJnxnEyf9ZCcfd5h3PVYeMRObDdYdEl32SHNRlVYcFLHW6r13Bx43PhptOYg9BVaKTbJ0yn25X59e0bGI36++B2ts2Kdtn7hx6uusu7Kuy8KqYFibb1J9SaUPPv7MHxJEtQS5xLkCacUnTWgPyVvWLznLJv34s737/if+IcdTz73s3JQP9FkSjVG6vBMJ8R9+mlz1UKM6r9A+XiEAAQhAAAIQgECuEwhzYjdaoXWNy/QoErKCR82eX+6RyFord+ViZzkkNT4B3c8ff/zxCNqGRv2Vi177+fgJtu3QTX1QpdjyZTl7YvSLfr6kBO1b735ole7JwmYbr2cK7KM/RcZVsCIN0KIqsSS3Vc1T3XXHre3xp16wp559xf46bLfYoqPvZfX8afI022bLTWy7oRFXVQU9UnRcJUUFTpa+nPCtn/OrObxKIThTsKSG49QPRSmW5VApWPqCeIv/vGjxEvtjzhwvNoN4kxiVBdRHDK5ytw1zaBXhd9DAfrbiwAG+fFkw5YKrFCsIJZSVQjv1/uXX3/bLIwWRHMSerOaxSRGbtYxSMo6LXZuVFLgqNikglazYYf7svPkL/O4gxvVBUZE1x1br92oJoyVVQafk2hxr7VU0Y1lcFRxqvivnTcdjgAsepijU6nu/3svZBy6413xncQ/pm+8meWt3GCNtT4d3EPrBJTqUHwRzskjYIR+vEIAABCAAAQhAINcJaK5sohSErNarVWJ92kSUGn+b7q2HDh2KoG1o1Pf+73EfhXbn7bZcpuhglZVAlEAd6wTMFBc9V+K1nXNr/eSz8T4a7/bbbO4DHgUxFiyfWzgr4AvOfVlL62znBLOso/FJZSnJaqrIynI/fuHVN7wA7dWzW7V5sLHH6rj4tU1lgdQSQuO++Nov76L3X7hyP3JiTRbJNavcUuMtffGfZSVW8KV/3/uwreXcjn9yEYdfdxZeWTn3csvmhFRa5XYra+a+VUGptE8BsrRtx223sHZt//xiqajqq9yrJ7uHAD/9PMUtK/S9Ly4wC2JP7t6K5Ku5v4rsK8EpIam2JUqaG6wgUloaR0vfdHfW6A+d1TUIvjB/VhZhJfVPolRzfd93Qa6UglVYEYvFTm7lHd2DDLkqT3KCXtZ2uTvL7dzFdrZnXnzNC949nRVXlt/Xnbu3xPOuO2zty9M/PeQQi5ddQK6111zNuVJ3XMblORXe8edWqEDu74qirKBfJAhAAAIQgAAEIJCPBMJas/F9D+vRhu0I2UCiqV4juqe4qarP1Xpl9YuNYhvbz04ueq2Sgv4o7eaWZbn/wSfcMjSRJXq0jumwPXaMuq/KgqcULJ8SmPvsvqNfUkXr2x516P5+f+w/We4kdCTYJCCVtGSPrKE1uRtPcS7K8fNndazWP73t7v95wabPisCrNiqCslJwuQ2WvvjPyqOliH6eMtULY4ljzRPeaL21bN89d4q6FCtfSVVQqCEu2nJY6kbbZdXVMdvFBEfS9g3c8jtvObdhiVVZjRUES8vcvONcdQOzIK5lcXz9zff8nwTbbjttHbVgq6z4pCc+hx6wt2P4kHuIELEOLz+gj2M4yIvaMH9WvDd3Fna5T4uxRLqWO5IlPohqlXW4s2bffveD9kLVGrKqT8cpIJPGVX87b7eVW2N2jHcN137N+z3p2EOjfdG2zTZe31mAn7BRz7zkRHYX53reutr6v8qTCm+tJ6wUOOm9HmrIus/8WdEgQQACEIAABCCQjwSCu3Hou6yxP8xcbBK5SsGtOASOCvl4zTwBzaHV/WvB5GlllT27RVxMM9+Mpq1RAJa65WAWujVON7tmqn1+4cr1alCHXivb7Glf17kMzQ+VaIu1Pta5kLgD5i9YYLNmz7Ee3bpUE41x2VL+ONetYaskAZVukuutXH9lVWzIpHmtsqhKOMYmudWeds7lTnyv75chmjX7D3/SB0t5bN6a3svtWO7Qch8+56KrvBX1jFOPrXaI3LpVv4RpTUkWc42NGMS3V8fpnJQFv13btkmDf8nFWtZgWfVrSo3Fu6Y62QcBCEAAAhCAAASaEwHdW+nvl5mzrbvzvqst3fv27yZX4kM26eznxwa34oYUsr+4qXvdu3Tw94KJ7gdra6P2rz7ia3vz1OW8QUgrVKRbTip1Ndc86vOzzz6Dy3FzGKD4CMIN0SYtwxK7FEt9y6yPkA11t3Brrja0mFXZsmwnSvFutem60QYBLDE++4+5toGzLscnrSebSpIwDnOFE+XXhZnIlTw2r0RzbWJW+RuLd2xbeA8BCEAAAhCAAARyhYCssUHA3jv2N9+thhSyucKpufRDU//0sCK1u/Dm0mraAYE6EAjzZ2Pdautw+DJZJ1S5gIf5s8tkYAMEIAABCEAAAhCAQNYSiHUjRsg2/2GUh6tELYK2+Y8VLUyTwMbrr+3W813VuwqnWUS1wxRQ6rgjD4yuP1ttJx8gAAEIQAACEIAABLKewHm79TBZamPFbdZ3Koc7IFGLoG3AAU5n/mwDVk9RcQRiA0vF7UrrY5fOHU1/JAhAAAIQgAAEIACB3CWAmM2OsQ3zowuzo7m0EgIQgAAEIAABCEAAAhCAAAQgECGg2DP6Q9ByRkAAAhCAAAQgAAEIQAACEIBA1hHQHFoEbdYNGw2GAAQgAAEIQAACEIAABOpGoLJu2Rs1d3NqS6N2tFELl5j94osvELSNSpnCIQABCEAAAhCAAAQgAIEmJ1Dslj1csnRpk7dDbVBbSPUnoIBQV1xxBYK2/igpAQIQgAAEIAABCEAAAhBozgRKS1ragoWLmryJaoPaQmoYAsXFxQjahkFJKRCAAAQgAAEIQAACEIBAcyMQAgeVtGrp1yyd34SiVnXLTVZtCe1qbryyqT3l5eXWq1cvlu3JpkGjrRCAAAQgAAEIQAACEIBA3QlIQLZpXWLz5i+0pc7tt7SklbVw1r1MJLkZyzIrMas2qC2k+hMoKiq0srIyBG39UVICBCAAAQhAAAIQgAAEINBcCQQBKQHbvm1rW7hosc2ZO9+WOgufWWOLy0o/Z7akVQsrcWJW8z6xzjbUmVJgs2bNQtA2FE7KgQAEIAABCEAAAhCAAASaJ4EgaiUoZZ2V229IlZWNE3U41Kl6gogNr6FuXtMnIIv3CSecgKBNHyFHQgACEIAABCAAAQhAAALZQiAITL02lohNxiK27mR52F53AltuuSWCtu7YOAICEIAABCAAAQhAAAIQyEYCscIyU6I21JmNvJpzm4uLi/yDiczMhG7OJGgbBCAAAQhAAAIQgAAEIJB3BBCa2T3k5eUVvgOF2d0NWg8BCEAAAhCAAAQgAAEIQAAC+UhADyUQtPk48vQZAhCAAAQgAAEIQAACEIBAFhPQsj1KCFpRaOxo3aqDBAEIQAACEIAABCAAAQhAoKEI5LmGkcux5kEjaBvqhKIcCEAAAhCAAAQgAAEIQAACEMgIgTAHGkHrnmzo4UbvDsU26ddFGYFPJRCAAAQgAAEIQAACEIAABNIhIM0i7eINtHlspdU6tFpXOO8FbeREKLS1+hbb6xPmpnNOcQwEIAABCEAAAhCAAAQgAIGMEJBmkXaxgkJmTjrieS9opeqL3N8eq5faQ+//npGTkEogAAEIQAACEIAABCAAAQikQ0CaRdpFGkZaJl+T+p73c2gjftcFpkV5B/cstU2Xb2EjnpyWr+cE/YYABCAAAQhAAAIQgAAEmjEBaRVpFmkXaRhNngxzSZtxsxulaZWVFfbZZ59ZweRpZZU9u3VqlEqyoVCp+vLySluyZLEtWLjQLnx2tnXpUGIX7t4rG5pPGyEAAQhAAAIQgAAEIACBPCAgMTtz9kIbsVMHKy0psRYtWlpRUf4KWgn5jh074HIsEDoRiouLrWWrlnb+ju2tqGKRbf9/39ldb80kUFQefDnQRQhAAAIQgAAEIAABCDRHAgoAJU0ibSKNIq0izSLtks9iVmNVWBjRcHlvoRUMWWkjltpyW7xkiS1etNgmTFtoT325yMZNWWpTZpcrGwkCEIAABCAAAQhAAAIQgEDGCPTuUGRDehfbbqu2spV6lXgx27JFCydmi7yrcb66G2sA1PfVV/+LufBYpHAi6MRo6cAUFhbZqv2KbaXlSmypFuytcILXKpzyhRUEIAABCEAAAhCAAAQgAIFGJuCWYnGqxAUydlbIIhfE1llkWxS38PNmFQxK+iVomEZuSbMtXgbJsrIyBG0YoXBCFDtRq4hZOnHK3dMPrW/kzLfmNC2CNsDiFQIQgAAEIAABCEAAAhBoPAJO0DotKzOk1yY+orF0ivusFLSL/5Cn/8Rg1qxZCNrY8Q8nhoJfF8ov3QlZJS9q/Tv+QQACEIAABCAAAQhAAAIQyAyBsCxP0CnhNTO1N/daKu3EE09E0CYapnCi6FWmbLkikyAAAQhAAAIQgAAEIAABCGSaQNAmma63uddX4Vxot9hiCwRtbQPFCVQbIfZDAAIQgAAEIAABCEAAAhDILAFZr6XV5F1LggAEIAABCEAAAhCAAAQgAAEIZA0BTQuVNy2CNmuGjIZCAAIQgAAEIAABCEAAAhCAgAjIQitRi6DlfIAABCAAAQhAAAIQgAAEIACBrCMgUYugzbpho8EQgAAEIAABCEAAAhCAAATym4DcjXE5zu9zgN5DAAIQgAAEIAABCEAAAhDISgIKCEVQqKwcOhoNAQhAAAIQgAAEIAABCEAAAsyh5RyAAAQgAAEIQAACEIAABCAAgawj4MUsc2izbtxoMAQgAAEIQAACEIAABCAAgbwnoIBQmkP7//iYt4D2ngpwAAAAAElFTkSuQmCC;clipPath=inset(1.37% 0.33% 0.68% 0%);imageBorder=default;dashed=1;dashPattern=1 4;" vertex="1" parent="1">
          <mxGeometry width="813.5" height="389.0652173913044" as="geometry" />
        </mxCell>
        <mxCell id="kNUCHaaY_nJfJqJrPL7E-4" style="edgeStyle=orthogonalEdgeStyle;rounded=0;orthogonalLoop=1;jettySize=auto;html=1;entryX=0;entryY=0.5;entryDx=0;entryDy=0;strokeColor=#e6e6e6;" edge="1" parent="1" source="kNUCHaaY_nJfJqJrPL7E-6" target="kNUCHaaY_nJfJqJrPL7E-11">
          <mxGeometry relative="1" as="geometry">
            <Array as="points">
              <mxPoint x="390" y="42.5" />
              <mxPoint x="390" y="71.5" />
            </Array>
          </mxGeometry>
        </mxCell>
        <mxCell id="kNUCHaaY_nJfJqJrPL7E-5" style="edgeStyle=orthogonalEdgeStyle;rounded=0;orthogonalLoop=1;jettySize=auto;html=1;entryX=0;entryY=0.5;entryDx=0;entryDy=0;strokeColor=#e6e6e6;" edge="1" parent="1" source="kNUCHaaY_nJfJqJrPL7E-6" target="kNUCHaaY_nJfJqJrPL7E-10">
          <mxGeometry relative="1" as="geometry" />
        </mxCell>
        <mxCell id="kNUCHaaY_nJfJqJrPL7E-6" value="" style="rounded=1;whiteSpace=wrap;html=1;strokeWidth=1;dashed=1;fillColor=none;container=0;strokeColor=#e6e6e6;" vertex="1" parent="1">
          <mxGeometry x="67" y="20.5" width="320" height="44" as="geometry" />
        </mxCell>
        <mxCell id="kNUCHaaY_nJfJqJrPL7E-7" style="edgeStyle=orthogonalEdgeStyle;rounded=0;orthogonalLoop=1;jettySize=auto;html=1;strokeColor=#ebebeb;" edge="1" parent="1" source="kNUCHaaY_nJfJqJrPL7E-9" target="kNUCHaaY_nJfJqJrPL7E-12">
          <mxGeometry relative="1" as="geometry" />
        </mxCell>
        <mxCell id="kNUCHaaY_nJfJqJrPL7E-8" style="edgeStyle=orthogonalEdgeStyle;rounded=0;orthogonalLoop=1;jettySize=auto;html=1;strokeColor=#ebebeb;" edge="1" parent="1" source="kNUCHaaY_nJfJqJrPL7E-9" target="kNUCHaaY_nJfJqJrPL7E-13">
          <mxGeometry relative="1" as="geometry">
            <Array as="points">
              <mxPoint x="770" y="164.5" />
            </Array>
          </mxGeometry>
        </mxCell>
        <mxCell id="kNUCHaaY_nJfJqJrPL7E-9" value="" style="rounded=1;whiteSpace=wrap;html=1;strokeWidth=1;dashed=1;fillColor=none;container=0;strokeColor=#ebebeb;" vertex="1" parent="1">
          <mxGeometry x="80" y="104.5" width="670" height="120" as="geometry" />
        </mxCell>
        <mxCell id="kNUCHaaY_nJfJqJrPL7E-10" value="&lt;font style=&quot;font-size: 13px;&quot; color=&quot;#0000ff&quot; face=&quot;Courier New&quot;&gt;qbusiness-webexperience-chat-user-background-color&lt;/font&gt;" style="rounded=1;whiteSpace=wrap;html=1;strokeWidth=1;fillWeight=4;hachureGap=8;hachureAngle=45;fillColor=#f0f0f0;sketch=1;container=0;" vertex="1" parent="1">
          <mxGeometry x="410" y="32.5" width="398" height="20" as="geometry" />
        </mxCell>
        <mxCell id="kNUCHaaY_nJfJqJrPL7E-11" value="&lt;font color=&quot;#0000ff&quot; style=&quot;font-size: 13px;&quot; face=&quot;Courier New&quot;&gt;qbusiness-webexperience-chat-user-text-color&lt;/font&gt;" style="text;html=1;strokeColor=none;fillColor=none;align=center;verticalAlign=middle;whiteSpace=wrap;rounded=0;fontSize=13;container=0;" vertex="1" parent="1">
          <mxGeometry x="447" y="62.5" width="360" height="18" as="geometry" />
        </mxCell>
        <mxCell id="kNUCHaaY_nJfJqJrPL7E-12" value="&lt;font style=&quot;font-size: 13px;&quot; face=&quot;Courier New&quot; color=&quot;#0000ff&quot;&gt;qbusiness-webexperience-chat-agent-text-color&lt;/font&gt;" style="text;html=1;strokeColor=none;fillColor=none;align=center;verticalAlign=middle;whiteSpace=wrap;rounded=0;fontSize=13;container=0;" vertex="1" parent="1">
          <mxGeometry x="235" y="267.5" width="359.5" height="20" as="geometry" />
        </mxCell>
        <mxCell id="kNUCHaaY_nJfJqJrPL7E-13" value="&lt;font style=&quot;font-size: 13px;&quot; color=&quot;#0000ff&quot; face=&quot;Courier New&quot;&gt;qbusiness-webexperience-chat-agent-background-color&lt;/font&gt;" style="rounded=1;whiteSpace=wrap;html=1;strokeWidth=1;fillWeight=4;hachureGap=8;hachureAngle=45;fillColor=#f0f0f0;sketch=1;container=0;flipV=0;" vertex="1" parent="1">
          <mxGeometry x="400" y="304.5" width="408" height="20" as="geometry" />
        </mxCell>
        <mxCell id="kNUCHaaY_nJfJqJrPL7E-14" style="edgeStyle=orthogonalEdgeStyle;rounded=0;orthogonalLoop=1;jettySize=auto;html=1;entryX=0.5;entryY=1;entryDx=0;entryDy=0;fontColor=#e6e6e6;strokeColor=#e6e6e6;" edge="1" parent="1" source="kNUCHaaY_nJfJqJrPL7E-15" target="kNUCHaaY_nJfJqJrPL7E-18">
          <mxGeometry relative="1" as="geometry">
            <Array as="points">
              <mxPoint x="30" y="314.5" />
              <mxPoint x="30" y="137.5" />
            </Array>
          </mxGeometry>
        </mxCell>
        <mxCell id="kNUCHaaY_nJfJqJrPL7E-15" value="&lt;font color=&quot;#0000ff&quot; style=&quot;font-size: 13px;&quot; face=&quot;Courier New&quot;&gt;qbusiness-webexperience-chat-logo-visibility&lt;/font&gt;" style="text;html=1;strokeColor=none;fillColor=none;align=center;verticalAlign=middle;whiteSpace=wrap;rounded=0;fontSize=13;container=0;flipV=0;" vertex="1" parent="1">
          <mxGeometry x="40" y="304.5" width="347" height="20" as="geometry" />
        </mxCell>
        <mxCell id="kNUCHaaY_nJfJqJrPL7E-16" value="" style="rounded=1;whiteSpace=wrap;html=1;strokeWidth=1;dashed=1;fillColor=none;container=0;strokeColor=#ebebeb;" vertex="1" parent="1">
          <mxGeometry x="2" y="17.5" width="56" height="50" as="geometry" />
        </mxCell>
        <mxCell id="kNUCHaaY_nJfJqJrPL7E-17" style="edgeStyle=orthogonalEdgeStyle;rounded=0;orthogonalLoop=1;jettySize=auto;html=1;entryX=0.5;entryY=1;entryDx=0;entryDy=0;strokeColor=#ebebeb;" edge="1" parent="1" source="kNUCHaaY_nJfJqJrPL7E-18" target="kNUCHaaY_nJfJqJrPL7E-16">
          <mxGeometry relative="1" as="geometry" />
        </mxCell>
        <mxCell id="kNUCHaaY_nJfJqJrPL7E-18" value="" style="rounded=1;whiteSpace=wrap;html=1;strokeWidth=1;dashed=1;fillColor=none;container=0;strokeColor=#ebebeb;" vertex="1" parent="1">
          <mxGeometry x="3" y="87.5" width="56" height="50" as="geometry" />
        </mxCell>
      </root>
    </mxGraphModel>
  </diagram>
</mxfile>
